<ttFont>
    <TTGlyph name="A" xMin="58" yMin="0" xMax="778" yMax="720">
      <contour>
        <pt x="197" y="720" on="1"/>
        <pt x="638" y="720" on="1"/>
        <pt x="696" y="720" on="0"/>
        <pt x="778" y="639" on="0"/>
        <pt x="778" y="581" on="1"/>
        <pt x="778" y="0" on="1"/>
        <pt x="645" y="0" on="1"/>
        <pt x="645" y="242" on="1"/>
        <pt x="190" y="242" on="1"/>
        <pt x="190" y="0" on="1"/>
        <pt x="58" y="0" on="1"/>
        <pt x="58" y="581" on="1"/>
        <pt x="58" y="639" on="0"/>
        <pt x="139" y="720" on="0"/>
      </contour>
      <contour>
        <pt x="190" y="374" on="1"/>
        <pt x="645" y="374" on="1"/>
        <pt x="645" y="581" on="1"/>
        <pt x="645" y="588" on="0"/>
        <pt x="638" y="588" on="1"/>
        <pt x="197" y="588" on="1"/>
        <pt x="190" y="588" on="0"/>
        <pt x="190" y="581" on="1"/>
      </contour>
    </TTGlyph>
    <TTGlyph name="A.alt" xMin="0" yMin="0" xMax="713" yMax="720">
      <contour>
        <pt x="0" y="0" on="1"/>
        <pt x="0" y="33" on="1"/>
        <pt x="570" y="720" on="1"/>
        <pt x="713" y="720" on="1"/>
        <pt x="713" y="0" on="1"/>
        <pt x="581" y="0" on="1"/>
        <pt x="581" y="183" on="1"/>
        <pt x="296" y="183" on="1"/>
        <pt x="143" y="0" on="1"/>
      </contour>
      <contour>
        <pt x="581" y="523" on="1"/>
        <pt x="406" y="314" on="1"/>
        <pt x="581" y="314" on="1"/>
      </contour>
    </TTGlyph>
    <TTGlyph name="A.alt2" xMin="54" yMin="0" xMax="767" yMax="720">
      <contour>
        <pt x="54" y="720" on="1"/>
        <pt x="197" y="720" on="1"/>
        <pt x="767" y="33" on="1"/>
        <pt x="767" y="0" on="1"/>
        <pt x="625" y="0" on="1"/>
        <pt x="471" y="183" on="1"/>
        <pt x="185" y="183" on="1"/>
        <pt x="185" y="0" on="1"/>
        <pt x="54" y="0" on="1"/>
      </contour>
      <contour>
        <pt x="185" y="521" on="1"/>
        <pt x="185" y="314" on="1"/>
        <pt x="361" y="314" on="1"/>
      </contour>
    </TTGlyph>
    <TTGlyph name="A.alt3" xMin="-28" yMin="0" xMax="864" yMax="720">
      <contour>
        <pt x="864" y="0" on="1"/>
        <pt x="712" y="0" on="1"/>
        <pt x="616" y="168" on="1"/>
        <pt x="222" y="168" on="1"/>
        <pt x="124" y="0" on="1"/>
        <pt x="-28" y="0" on="1"/>
        <pt x="358" y="720" on="1"/>
        <pt x="479" y="720" on="1"/>
      </contour>
      <contour>
        <pt x="419" y="553" on="1"/>
        <pt x="296" y="300" on="1"/>
        <pt x="541" y="300" on="1"/>
      </contour>
    </TTGlyph>
    <TTGlyph name="AE" xMin="54" yMin="0" xMax="1304" yMax="720">
      <contour>
        <pt x="774" y="588" on="1"/>
        <pt x="774" y="426" on="1"/>
        <pt x="1200" y="426" on="1"/>
        <pt x="1200" y="294" on="1"/>
        <pt x="774" y="294" on="1"/>
        <pt x="774" y="132" on="1"/>
        <pt x="1304" y="132" on="1"/>
        <pt x="1304" y="0" on="1"/>
        <pt x="642" y="0" on="1"/>
        <pt x="642" y="242" on="1"/>
        <pt x="187" y="242" on="1"/>
        <pt x="187" y="0" on="1"/>
        <pt x="54" y="0" on="1"/>
        <pt x="54" y="581" on="1"/>
        <pt x="54" y="639" on="0"/>
        <pt x="136" y="720" on="0"/>
        <pt x="193" y="720" on="1"/>
        <pt x="1304" y="720" on="1"/>
        <pt x="1304" y="588" on="1"/>
      </contour>
      <contour>
        <pt x="642" y="374" on="1"/>
        <pt x="642" y="581" on="1"/>
        <pt x="642" y="588" on="0"/>
        <pt x="635" y="588" on="1"/>
        <pt x="193" y="588" on="1"/>
        <pt x="187" y="588" on="0"/>
        <pt x="187" y="581" on="1"/>
        <pt x="187" y="374" on="1"/>
      </contour>
    </TTGlyph>
    <TTGlyph name="Aacute" xMin="58" yMin="0" xMax="778" yMax="961">
      <contour>
        <pt x="197" y="720" on="1"/>
        <pt x="638" y="720" on="1"/>
        <pt x="696" y="720" on="0"/>
        <pt x="778" y="639" on="0"/>
        <pt x="778" y="581" on="1"/>
        <pt x="778" y="0" on="1"/>
        <pt x="645" y="0" on="1"/>
        <pt x="645" y="242" on="1"/>
        <pt x="190" y="242" on="1"/>
        <pt x="190" y="0" on="1"/>
        <pt x="58" y="0" on="1"/>
        <pt x="58" y="581" on="1"/>
        <pt x="58" y="639" on="0"/>
        <pt x="139" y="720" on="0"/>
      </contour>
      <contour>
        <pt x="190" y="374" on="1"/>
        <pt x="645" y="374" on="1"/>
        <pt x="645" y="581" on="1"/>
        <pt x="645" y="588" on="0"/>
        <pt x="638" y="588" on="1"/>
        <pt x="197" y="588" on="1"/>
        <pt x="190" y="588" on="0"/>
        <pt x="190" y="581" on="1"/>
      </contour>
      <contour>
        <pt x="344" y="778" on="1"/>
        <pt x="390" y="961" on="1"/>
        <pt x="523" y="961" on="1"/>
        <pt x="477" y="778" on="1"/>
      </contour>
    </TTGlyph>
    <TTGlyph name="Acircumflex" xMin="58" yMin="0" xMax="778" yMax="941">
      <contour>
        <pt x="197" y="720" on="1"/>
        <pt x="638" y="720" on="1"/>
        <pt x="696" y="720" on="0"/>
        <pt x="778" y="639" on="0"/>
        <pt x="778" y="581" on="1"/>
        <pt x="778" y="0" on="1"/>
        <pt x="645" y="0" on="1"/>
        <pt x="645" y="242" on="1"/>
        <pt x="190" y="242" on="1"/>
        <pt x="190" y="0" on="1"/>
        <pt x="58" y="0" on="1"/>
        <pt x="58" y="581" on="1"/>
        <pt x="58" y="639" on="0"/>
        <pt x="139" y="720" on="0"/>
      </contour>
      <contour>
        <pt x="190" y="374" on="1"/>
        <pt x="645" y="374" on="1"/>
        <pt x="645" y="581" on="1"/>
        <pt x="645" y="588" on="0"/>
        <pt x="638" y="588" on="1"/>
        <pt x="197" y="588" on="1"/>
        <pt x="190" y="588" on="0"/>
        <pt x="190" y="581" on="1"/>
      </contour>
      <contour>
        <pt x="400" y="778" on="1"/>
        <pt x="296" y="778" on="1"/>
        <pt x="394" y="941" on="1"/>
        <pt x="481" y="941" on="1"/>
        <pt x="579" y="778" on="1"/>
        <pt x="473" y="778" on="1"/>
        <pt x="436" y="837" on="1"/>
        <pt x="430" y="828" on="0"/>
        <pt x="406" y="787" on="0"/>
      </contour>
    </TTGlyph>
    <TTGlyph name="Adieresis" xMin="58" yMin="0" xMax="778" yMax="901">
      <contour>
        <pt x="197" y="720" on="1"/>
        <pt x="638" y="720" on="1"/>
        <pt x="696" y="720" on="0"/>
        <pt x="778" y="639" on="0"/>
        <pt x="778" y="581" on="1"/>
        <pt x="778" y="0" on="1"/>
        <pt x="645" y="0" on="1"/>
        <pt x="645" y="242" on="1"/>
        <pt x="190" y="242" on="1"/>
        <pt x="190" y="0" on="1"/>
        <pt x="58" y="0" on="1"/>
        <pt x="58" y="581" on="1"/>
        <pt x="58" y="639" on="0"/>
        <pt x="139" y="720" on="0"/>
      </contour>
      <contour>
        <pt x="190" y="374" on="1"/>
        <pt x="645" y="374" on="1"/>
        <pt x="645" y="581" on="1"/>
        <pt x="645" y="588" on="0"/>
        <pt x="638" y="588" on="1"/>
        <pt x="197" y="588" on="1"/>
        <pt x="190" y="588" on="0"/>
        <pt x="190" y="581" on="1"/>
      </contour>
      <contour>
        <pt x="582" y="901" on="1"/>
        <pt x="582" y="769" on="1"/>
        <pt x="450" y="769" on="1"/>
        <pt x="450" y="901" on="1"/>
      </contour>
      <contour>
        <pt x="410" y="901" on="1"/>
        <pt x="410" y="769" on="1"/>
        <pt x="279" y="769" on="1"/>
        <pt x="279" y="901" on="1"/>
      </contour>
    </TTGlyph>
    <TTGlyph name="Agrave" xMin="58" yMin="0" xMax="778" yMax="962">
      <contour>
        <pt x="197" y="720" on="1"/>
        <pt x="638" y="720" on="1"/>
        <pt x="696" y="720" on="0"/>
        <pt x="778" y="639" on="0"/>
        <pt x="778" y="581" on="1"/>
        <pt x="778" y="0" on="1"/>
        <pt x="645" y="0" on="1"/>
        <pt x="645" y="242" on="1"/>
        <pt x="190" y="242" on="1"/>
        <pt x="190" y="0" on="1"/>
        <pt x="58" y="0" on="1"/>
        <pt x="58" y="581" on="1"/>
        <pt x="58" y="639" on="0"/>
        <pt x="139" y="720" on="0"/>
      </contour>
      <contour>
        <pt x="190" y="374" on="1"/>
        <pt x="645" y="374" on="1"/>
        <pt x="645" y="581" on="1"/>
        <pt x="645" y="588" on="0"/>
        <pt x="638" y="588" on="1"/>
        <pt x="197" y="588" on="1"/>
        <pt x="190" y="588" on="0"/>
        <pt x="190" y="581" on="1"/>
      </contour>
      <contour>
        <pt x="477" y="962" on="1"/>
        <pt x="523" y="779" on="1"/>
        <pt x="390" y="779" on="1"/>
        <pt x="344" y="962" on="1"/>
      </contour>
    </TTGlyph>
    <TTGlyph name="Aring" xMin="58" yMin="0" xMax="778" yMax="961">
      <contour>
        <pt x="197" y="720" on="1"/>
        <pt x="638" y="720" on="1"/>
        <pt x="696" y="720" on="0"/>
        <pt x="778" y="639" on="0"/>
        <pt x="778" y="581" on="1"/>
        <pt x="778" y="0" on="1"/>
        <pt x="645" y="0" on="1"/>
        <pt x="645" y="242" on="1"/>
        <pt x="190" y="242" on="1"/>
        <pt x="190" y="0" on="1"/>
        <pt x="58" y="0" on="1"/>
        <pt x="58" y="581" on="1"/>
        <pt x="58" y="639" on="0"/>
        <pt x="139" y="720" on="0"/>
      </contour>
      <contour>
        <pt x="190" y="374" on="1"/>
        <pt x="645" y="374" on="1"/>
        <pt x="645" y="581" on="1"/>
        <pt x="645" y="588" on="0"/>
        <pt x="638" y="588" on="1"/>
        <pt x="197" y="588" on="1"/>
        <pt x="190" y="588" on="0"/>
        <pt x="190" y="581" on="1"/>
      </contour>
      <contour>
        <pt x="388" y="961" on="1"/>
        <pt x="442" y="961" on="1"/>
        <pt x="469" y="961" on="0"/>
        <pt x="507" y="922" on="0"/>
        <pt x="507" y="896" on="1"/>
        <pt x="507" y="845" on="1"/>
        <pt x="507" y="819" on="0"/>
        <pt x="469" y="780" on="0"/>
        <pt x="442" y="780" on="1"/>
        <pt x="388" y="780" on="1"/>
        <pt x="361" y="780" on="0"/>
        <pt x="323" y="819" on="0"/>
        <pt x="323" y="845" on="1"/>
        <pt x="323" y="896" on="1"/>
        <pt x="323" y="922" on="0"/>
        <pt x="361" y="961" on="0"/>
      </contour>
      <contour>
        <pt x="389" y="894" on="1"/>
        <pt x="389" y="847" on="1"/>
        <pt x="441" y="847" on="1"/>
        <pt x="441" y="894" on="1"/>
      </contour>
    </TTGlyph>
    <TTGlyph name="Atilde" xMin="58" yMin="0" xMax="778" yMax="939">
      <contour>
        <pt x="197" y="720" on="1"/>
        <pt x="638" y="720" on="1"/>
        <pt x="696" y="720" on="0"/>
        <pt x="778" y="639" on="0"/>
        <pt x="778" y="581" on="1"/>
        <pt x="778" y="0" on="1"/>
        <pt x="645" y="0" on="1"/>
        <pt x="645" y="242" on="1"/>
        <pt x="190" y="242" on="1"/>
        <pt x="190" y="0" on="1"/>
        <pt x="58" y="0" on="1"/>
        <pt x="58" y="581" on="1"/>
        <pt x="58" y="639" on="0"/>
        <pt x="139" y="720" on="0"/>
      </contour>
      <contour>
        <pt x="190" y="374" on="1"/>
        <pt x="645" y="374" on="1"/>
        <pt x="645" y="581" on="1"/>
        <pt x="645" y="588" on="0"/>
        <pt x="638" y="588" on="1"/>
        <pt x="197" y="588" on="1"/>
        <pt x="190" y="588" on="0"/>
        <pt x="190" y="581" on="1"/>
      </contour>
      <contour>
        <pt x="519" y="874" on="1"/>
        <pt x="566" y="874" on="0"/>
        <pt x="606" y="901" on="1"/>
        <pt x="606" y="805" on="1"/>
        <pt x="554" y="783" on="0"/>
        <pt x="517" y="783" on="1"/>
        <pt x="481" y="783" on="0"/>
        <pt x="361" y="848" on="0"/>
        <pt x="327" y="848" on="1"/>
        <pt x="315" y="848" on="1"/>
        <pt x="271" y="848" on="0"/>
        <pt x="242" y="810" on="1"/>
        <pt x="242" y="921" on="1"/>
        <pt x="287" y="939" on="0"/>
        <pt x="327" y="939" on="1"/>
        <pt x="366" y="939" on="0"/>
        <pt x="487" y="878" on="0"/>
      </contour>
    </TTGlyph>
    <TTGlyph name="B" xMin="59" yMin="0" xMax="779" yMax="720">
      <contour>
        <pt x="750" y="581" on="1"/>
        <pt x="750" y="440" on="1"/>
        <pt x="750" y="410" on="0"/>
        <pt x="740" y="389" on="1"/>
        <pt x="779" y="348" on="0"/>
        <pt x="779" y="294" on="1"/>
        <pt x="779" y="139" on="1"/>
        <pt x="779" y="81" on="0"/>
        <pt x="697" y="0" on="0"/>
        <pt x="639" y="0" on="1"/>
        <pt x="59" y="0" on="1"/>
        <pt x="59" y="720" on="1"/>
        <pt x="611" y="720" on="1"/>
        <pt x="668" y="720" on="0"/>
        <pt x="750" y="639" on="0"/>
      </contour>
      <contour>
        <pt x="611" y="588" on="1"/>
        <pt x="198" y="588" on="1"/>
        <pt x="191" y="588" on="0"/>
        <pt x="191" y="581" on="1"/>
        <pt x="191" y="440" on="1"/>
        <pt x="191" y="433" on="0"/>
        <pt x="198" y="433" on="1"/>
        <pt x="611" y="433" on="1"/>
        <pt x="617" y="433" on="0"/>
        <pt x="617" y="440" on="1"/>
        <pt x="617" y="581" on="1"/>
        <pt x="617" y="588" on="0"/>
      </contour>
      <contour>
        <pt x="646" y="139" on="1"/>
        <pt x="646" y="294" on="1"/>
        <pt x="646" y="300" on="0"/>
        <pt x="639" y="300" on="1"/>
        <pt x="198" y="300" on="1"/>
        <pt x="191" y="300" on="0"/>
        <pt x="191" y="294" on="1"/>
        <pt x="191" y="139" on="1"/>
        <pt x="191" y="132" on="0"/>
        <pt x="198" y="132" on="1"/>
        <pt x="639" y="132" on="1"/>
        <pt x="646" y="132" on="0"/>
      </contour>
    </TTGlyph>
    <TTGlyph name="C" xMin="56" yMin="0" xMax="774" yMax="720">
      <contour>
        <pt x="774" y="588" on="1"/>
        <pt x="195" y="588" on="1"/>
        <pt x="188" y="588" on="0"/>
        <pt x="188" y="581" on="1"/>
        <pt x="188" y="139" on="1"/>
        <pt x="188" y="132" on="0"/>
        <pt x="195" y="132" on="1"/>
        <pt x="774" y="132" on="1"/>
        <pt x="774" y="0" on="1"/>
        <pt x="195" y="0" on="1"/>
        <pt x="137" y="0" on="0"/>
        <pt x="56" y="81" on="0"/>
        <pt x="56" y="139" on="1"/>
        <pt x="56" y="581" on="1"/>
        <pt x="56" y="639" on="0"/>
        <pt x="137" y="720" on="0"/>
        <pt x="195" y="720" on="1"/>
        <pt x="774" y="720" on="1"/>
      </contour>
    </TTGlyph>
    <TTGlyph name="C.alt" xMin="52" yMin="0" xMax="773" yMax="720">
      <contour>
        <pt x="773" y="605" on="1"/>
        <pt x="773" y="484" on="1"/>
        <pt x="640" y="484" on="1"/>
        <pt x="640" y="588" on="1"/>
        <pt x="191" y="588" on="1"/>
        <pt x="184" y="588" on="0"/>
        <pt x="184" y="581" on="1"/>
        <pt x="184" y="139" on="1"/>
        <pt x="184" y="132" on="0"/>
        <pt x="191" y="132" on="1"/>
        <pt x="640" y="132" on="1"/>
        <pt x="640" y="236" on="1"/>
        <pt x="770" y="236" on="1"/>
        <pt x="770" y="115" on="1"/>
        <pt x="761" y="66" on="0"/>
        <pt x="684" y="0" on="0"/>
        <pt x="633" y="0" on="1"/>
        <pt x="191" y="0" on="1"/>
        <pt x="133" y="0" on="0"/>
        <pt x="52" y="81" on="0"/>
        <pt x="52" y="139" on="1"/>
        <pt x="52" y="581" on="1"/>
        <pt x="52" y="639" on="0"/>
        <pt x="133" y="720" on="0"/>
        <pt x="191" y="720" on="1"/>
        <pt x="633" y="720" on="1"/>
        <pt x="683" y="720" on="0"/>
        <pt x="761" y="655" on="0"/>
      </contour>
    </TTGlyph>
    <TTGlyph name="Ccedilla" xMin="56" yMin="-154" xMax="774" yMax="720">
      <contour>
        <pt x="774" y="588" on="1"/>
        <pt x="195" y="588" on="1"/>
        <pt x="188" y="588" on="0"/>
        <pt x="188" y="581" on="1"/>
        <pt x="188" y="139" on="1"/>
        <pt x="188" y="132" on="0"/>
        <pt x="195" y="132" on="1"/>
        <pt x="774" y="132" on="1"/>
        <pt x="774" y="0" on="1"/>
        <pt x="508" y="0" on="1"/>
        <pt x="470" y="-154" on="1"/>
        <pt x="337" y="-154" on="1"/>
        <pt x="375" y="0" on="1"/>
        <pt x="195" y="0" on="1"/>
        <pt x="137" y="0" on="0"/>
        <pt x="56" y="81" on="0"/>
        <pt x="56" y="139" on="1"/>
        <pt x="56" y="581" on="1"/>
        <pt x="56" y="639" on="0"/>
        <pt x="137" y="720" on="0"/>
        <pt x="195" y="720" on="1"/>
        <pt x="774" y="720" on="1"/>
      </contour>
    </TTGlyph>
    <TTGlyph name="D" xMin="58" yMin="0" xMax="778" yMax="720">
      <contour>
        <pt x="58" y="720" on="1"/>
        <pt x="638" y="720" on="1"/>
        <pt x="696" y="720" on="0"/>
        <pt x="778" y="639" on="0"/>
        <pt x="778" y="581" on="1"/>
        <pt x="778" y="139" on="1"/>
        <pt x="778" y="81" on="0"/>
        <pt x="696" y="0" on="0"/>
        <pt x="638" y="0" on="1"/>
        <pt x="58" y="0" on="1"/>
      </contour>
      <contour>
        <pt x="645" y="139" on="1"/>
        <pt x="645" y="581" on="1"/>
        <pt x="645" y="588" on="0"/>
        <pt x="638" y="588" on="1"/>
        <pt x="197" y="588" on="1"/>
        <pt x="190" y="588" on="0"/>
        <pt x="190" y="581" on="1"/>
        <pt x="190" y="139" on="1"/>
        <pt x="190" y="132" on="0"/>
        <pt x="197" y="132" on="1"/>
        <pt x="638" y="132" on="1"/>
        <pt x="645" y="132" on="0"/>
      </contour>
    </TTGlyph>
    <TTGlyph name="E" xMin="58" yMin="0" xMax="720" yMax="720">
      <contour>
        <pt x="720" y="720" on="1"/>
        <pt x="720" y="588" on="1"/>
        <pt x="191" y="588" on="1"/>
        <pt x="191" y="426" on="1"/>
        <pt x="617" y="426" on="1"/>
        <pt x="617" y="294" on="1"/>
        <pt x="191" y="294" on="1"/>
        <pt x="191" y="132" on="1"/>
        <pt x="720" y="132" on="1"/>
        <pt x="720" y="0" on="1"/>
        <pt x="58" y="0" on="1"/>
        <pt x="58" y="720" on="1"/>
      </contour>
    </TTGlyph>
    <TTGlyph name="Eacute" xMin="58" yMin="0" xMax="720" yMax="962">
      <contour>
        <pt x="720" y="720" on="1"/>
        <pt x="720" y="588" on="1"/>
        <pt x="191" y="588" on="1"/>
        <pt x="191" y="426" on="1"/>
        <pt x="617" y="426" on="1"/>
        <pt x="617" y="294" on="1"/>
        <pt x="191" y="294" on="1"/>
        <pt x="191" y="132" on="1"/>
        <pt x="720" y="132" on="1"/>
        <pt x="720" y="0" on="1"/>
        <pt x="58" y="0" on="1"/>
        <pt x="58" y="720" on="1"/>
      </contour>
      <contour>
        <pt x="309" y="779" on="1"/>
        <pt x="355" y="962" on="1"/>
        <pt x="488" y="962" on="1"/>
        <pt x="442" y="779" on="1"/>
      </contour>
    </TTGlyph>
    <TTGlyph name="Ecircumflex" xMin="58" yMin="0" xMax="720" yMax="941">
      <contour>
        <pt x="720" y="720" on="1"/>
        <pt x="720" y="588" on="1"/>
        <pt x="191" y="588" on="1"/>
        <pt x="191" y="426" on="1"/>
        <pt x="617" y="426" on="1"/>
        <pt x="617" y="294" on="1"/>
        <pt x="191" y="294" on="1"/>
        <pt x="191" y="132" on="1"/>
        <pt x="720" y="132" on="1"/>
        <pt x="720" y="0" on="1"/>
        <pt x="58" y="0" on="1"/>
        <pt x="58" y="720" on="1"/>
      </contour>
      <contour>
        <pt x="365" y="778" on="1"/>
        <pt x="261" y="778" on="1"/>
        <pt x="359" y="941" on="1"/>
        <pt x="446" y="941" on="1"/>
        <pt x="544" y="778" on="1"/>
        <pt x="438" y="778" on="1"/>
        <pt x="401" y="837" on="1"/>
        <pt x="395" y="828" on="0"/>
        <pt x="371" y="787" on="0"/>
      </contour>
    </TTGlyph>
    <TTGlyph name="Edieresis" xMin="58" yMin="0" xMax="720" yMax="911">
      <contour>
        <pt x="720" y="720" on="1"/>
        <pt x="720" y="588" on="1"/>
        <pt x="191" y="588" on="1"/>
        <pt x="191" y="426" on="1"/>
        <pt x="617" y="426" on="1"/>
        <pt x="617" y="294" on="1"/>
        <pt x="191" y="294" on="1"/>
        <pt x="191" y="132" on="1"/>
        <pt x="720" y="132" on="1"/>
        <pt x="720" y="0" on="1"/>
        <pt x="58" y="0" on="1"/>
        <pt x="58" y="720" on="1"/>
      </contour>
      <contour>
        <pt x="547" y="911" on="1"/>
        <pt x="547" y="779" on="1"/>
        <pt x="415" y="779" on="1"/>
        <pt x="415" y="911" on="1"/>
      </contour>
      <contour>
        <pt x="375" y="911" on="1"/>
        <pt x="375" y="779" on="1"/>
        <pt x="244" y="779" on="1"/>
        <pt x="244" y="911" on="1"/>
      </contour>
    </TTGlyph>
    <TTGlyph name="Egrave" xMin="58" yMin="0" xMax="720" yMax="962">
      <contour>
        <pt x="720" y="720" on="1"/>
        <pt x="720" y="588" on="1"/>
        <pt x="191" y="588" on="1"/>
        <pt x="191" y="426" on="1"/>
        <pt x="617" y="426" on="1"/>
        <pt x="617" y="294" on="1"/>
        <pt x="191" y="294" on="1"/>
        <pt x="191" y="132" on="1"/>
        <pt x="720" y="132" on="1"/>
        <pt x="720" y="0" on="1"/>
        <pt x="58" y="0" on="1"/>
        <pt x="58" y="720" on="1"/>
      </contour>
      <contour>
        <pt x="442" y="962" on="1"/>
        <pt x="488" y="779" on="1"/>
        <pt x="355" y="779" on="1"/>
        <pt x="309" y="962" on="1"/>
      </contour>
    </TTGlyph>
    <TTGlyph name="Euro" xMin="35" yMin="0" xMax="746" yMax="720">
      <contour>
        <pt x="268" y="131" on="1"/>
        <pt x="746" y="131" on="1"/>
        <pt x="746" y="0" on="1"/>
        <pt x="268" y="0" on="1"/>
        <pt x="211" y="0" on="0"/>
        <pt x="130" y="81" on="0"/>
        <pt x="130" y="138" on="1"/>
        <pt x="130" y="197" on="1"/>
        <pt x="35" y="197" on="1"/>
        <pt x="35" y="328" on="1"/>
        <pt x="130" y="328" on="1"/>
        <pt x="130" y="385" on="1"/>
        <pt x="35" y="385" on="1"/>
        <pt x="35" y="516" on="1"/>
        <pt x="130" y="516" on="1"/>
        <pt x="130" y="582" on="1"/>
        <pt x="130" y="639" on="0"/>
        <pt x="211" y="720" on="0"/>
        <pt x="268" y="720" on="1"/>
        <pt x="746" y="720" on="1"/>
        <pt x="746" y="589" on="1"/>
        <pt x="268" y="589" on="1"/>
        <pt x="261" y="589" on="0"/>
        <pt x="261" y="582" on="1"/>
        <pt x="261" y="516" on="1"/>
        <pt x="643" y="516" on="1"/>
        <pt x="643" y="385" on="1"/>
        <pt x="261" y="385" on="1"/>
        <pt x="261" y="328" on="1"/>
        <pt x="643" y="328" on="1"/>
        <pt x="643" y="197" on="1"/>
        <pt x="261" y="197" on="1"/>
        <pt x="261" y="138" on="1"/>
        <pt x="261" y="131" on="0"/>
      </contour>
    </TTGlyph>
    <TTGlyph name="F" xMin="58" yMin="0" xMax="720" yMax="720">
      <contour>
        <pt x="58" y="720" on="1"/>
        <pt x="720" y="720" on="1"/>
        <pt x="720" y="588" on="1"/>
        <pt x="191" y="588" on="1"/>
        <pt x="191" y="426" on="1"/>
        <pt x="617" y="426" on="1"/>
        <pt x="617" y="294" on="1"/>
        <pt x="191" y="294" on="1"/>
        <pt x="191" y="0" on="1"/>
        <pt x="58" y="0" on="1"/>
      </contour>
    </TTGlyph>
    <TTGlyph name="G" xMin="56" yMin="0" xMax="776" yMax="720">
      <contour>
        <pt x="776" y="581" on="1"/>
        <pt x="776" y="525" on="1"/>
        <pt x="643" y="525" on="1"/>
        <pt x="643" y="581" on="1"/>
        <pt x="643" y="588" on="0"/>
        <pt x="636" y="588" on="1"/>
        <pt x="195" y="588" on="1"/>
        <pt x="188" y="588" on="0"/>
        <pt x="188" y="581" on="1"/>
        <pt x="188" y="139" on="1"/>
        <pt x="188" y="132" on="0"/>
        <pt x="195" y="132" on="1"/>
        <pt x="636" y="132" on="1"/>
        <pt x="643" y="132" on="0"/>
        <pt x="643" y="139" on="1"/>
        <pt x="643" y="275" on="1"/>
        <pt x="480" y="275" on="1"/>
        <pt x="480" y="407" on="1"/>
        <pt x="776" y="407" on="1"/>
        <pt x="776" y="139" on="1"/>
        <pt x="776" y="81" on="0"/>
        <pt x="694" y="0" on="0"/>
        <pt x="636" y="0" on="1"/>
        <pt x="195" y="0" on="1"/>
        <pt x="137" y="0" on="0"/>
        <pt x="56" y="81" on="0"/>
        <pt x="56" y="139" on="1"/>
        <pt x="56" y="581" on="1"/>
        <pt x="56" y="639" on="0"/>
        <pt x="137" y="720" on="0"/>
        <pt x="195" y="720" on="1"/>
        <pt x="636" y="720" on="1"/>
        <pt x="694" y="720" on="0"/>
        <pt x="776" y="639" on="0"/>
      </contour>
    </TTGlyph>
    <TTGlyph name="H" xMin="57" yMin="0" xMax="793" yMax="720">
      <contour>
        <pt x="661" y="720" on="1"/>
        <pt x="793" y="720" on="1"/>
        <pt x="793" y="0" on="1"/>
        <pt x="661" y="0" on="1"/>
        <pt x="661" y="294" on="1"/>
        <pt x="189" y="294" on="1"/>
        <pt x="189" y="0" on="1"/>
        <pt x="57" y="0" on="1"/>
        <pt x="57" y="720" on="1"/>
        <pt x="189" y="720" on="1"/>
        <pt x="189" y="426" on="1"/>
        <pt x="661" y="426" on="1"/>
      </contour>
    </TTGlyph>
    <TTGlyph name="I" xMin="57" yMin="0" xMax="189" yMax="720">
      <contour>
        <pt x="57" y="0" on="1"/>
        <pt x="57" y="720" on="1"/>
        <pt x="189" y="720" on="1"/>
        <pt x="189" y="0" on="1"/>
      </contour>
    </TTGlyph>
    <TTGlyph name="I.alt" xMin="49" yMin="0" xMax="769" yMax="720">
      <contour>
        <pt x="769" y="720" on="1"/>
        <pt x="769" y="588" on="1"/>
        <pt x="475" y="588" on="1"/>
        <pt x="475" y="132" on="1"/>
        <pt x="769" y="132" on="1"/>
        <pt x="769" y="0" on="1"/>
        <pt x="49" y="0" on="1"/>
        <pt x="49" y="132" on="1"/>
        <pt x="343" y="132" on="1"/>
        <pt x="343" y="588" on="1"/>
        <pt x="49" y="588" on="1"/>
        <pt x="49" y="720" on="1"/>
      </contour>
    </TTGlyph>
    <TTGlyph name="Iacute" xMin="36" yMin="0" xMax="215" yMax="962">
      <contour>
        <pt x="57" y="0" on="1"/>
        <pt x="57" y="720" on="1"/>
        <pt x="189" y="720" on="1"/>
        <pt x="189" y="0" on="1"/>
      </contour>
      <contour>
        <pt x="36" y="779" on="1"/>
        <pt x="82" y="962" on="1"/>
        <pt x="215" y="962" on="1"/>
        <pt x="169" y="779" on="1"/>
      </contour>
    </TTGlyph>
    <TTGlyph name="Icircumflex" xMin="-12" yMin="0" xMax="271" yMax="941">
      <contour>
        <pt x="57" y="0" on="1"/>
        <pt x="57" y="720" on="1"/>
        <pt x="189" y="720" on="1"/>
        <pt x="189" y="0" on="1"/>
      </contour>
      <contour>
        <pt x="92" y="778" on="1"/>
        <pt x="-12" y="778" on="1"/>
        <pt x="86" y="941" on="1"/>
        <pt x="173" y="941" on="1"/>
        <pt x="271" y="778" on="1"/>
        <pt x="165" y="778" on="1"/>
        <pt x="128" y="837" on="1"/>
        <pt x="122" y="828" on="0"/>
        <pt x="98" y="787" on="0"/>
      </contour>
    </TTGlyph>
    <TTGlyph name="Idieresis" xMin="-29" yMin="0" xMax="274" yMax="911">
      <contour>
        <pt x="57" y="0" on="1"/>
        <pt x="57" y="720" on="1"/>
        <pt x="189" y="720" on="1"/>
        <pt x="189" y="0" on="1"/>
      </contour>
      <contour>
        <pt x="274" y="911" on="1"/>
        <pt x="274" y="779" on="1"/>
        <pt x="142" y="779" on="1"/>
        <pt x="142" y="911" on="1"/>
      </contour>
      <contour>
        <pt x="102" y="911" on="1"/>
        <pt x="102" y="779" on="1"/>
        <pt x="-29" y="779" on="1"/>
        <pt x="-29" y="911" on="1"/>
      </contour>
    </TTGlyph>
    <TTGlyph name="Igrave" xMin="36" yMin="0" xMax="215" yMax="962">
      <contour>
        <pt x="57" y="0" on="1"/>
        <pt x="57" y="720" on="1"/>
        <pt x="189" y="720" on="1"/>
        <pt x="189" y="0" on="1"/>
      </contour>
      <contour>
        <pt x="169" y="962" on="1"/>
        <pt x="215" y="779" on="1"/>
        <pt x="82" y="779" on="1"/>
        <pt x="36" y="962" on="1"/>
      </contour>
    </TTGlyph>
    <TTGlyph name="J" xMin="4" yMin="0" xMax="724" yMax="720">
      <contour>
        <pt x="591" y="139" on="1"/>
        <pt x="591" y="720" on="1"/>
        <pt x="724" y="720" on="1"/>
        <pt x="724" y="139" on="1"/>
        <pt x="724" y="81" on="0"/>
        <pt x="642" y="0" on="0"/>
        <pt x="585" y="0" on="1"/>
        <pt x="143" y="0" on="1"/>
        <pt x="85" y="0" on="0"/>
        <pt x="4" y="81" on="0"/>
        <pt x="4" y="139" on="1"/>
        <pt x="4" y="221" on="1"/>
        <pt x="136" y="221" on="1"/>
        <pt x="136" y="139" on="1"/>
        <pt x="136" y="132" on="0"/>
        <pt x="143" y="132" on="1"/>
        <pt x="585" y="132" on="1"/>
        <pt x="591" y="132" on="0"/>
      </contour>
    </TTGlyph>
    <TTGlyph name="J.alt" xMin="3" yMin="0" xMax="599" yMax="720">
      <contour>
        <pt x="466" y="139" on="1"/>
        <pt x="466" y="720" on="1"/>
        <pt x="599" y="720" on="1"/>
        <pt x="599" y="139" on="1"/>
        <pt x="599" y="81" on="0"/>
        <pt x="517" y="0" on="0"/>
        <pt x="459" y="0" on="1"/>
        <pt x="3" y="0" on="1"/>
        <pt x="3" y="132" on="1"/>
        <pt x="459" y="132" on="1"/>
        <pt x="466" y="132" on="0"/>
      </contour>
    </TTGlyph>
    <TTGlyph name="K" xMin="57" yMin="0" xMax="751" yMax="720">
      <contour>
        <pt x="606" y="720" on="1"/>
        <pt x="751" y="720" on="1"/>
        <pt x="751" y="685" on="1"/>
        <pt x="479" y="360" on="1"/>
        <pt x="751" y="35" on="1"/>
        <pt x="751" y="0" on="1"/>
        <pt x="606" y="0" on="1"/>
        <pt x="360" y="294" on="1"/>
        <pt x="190" y="294" on="1"/>
        <pt x="190" y="0" on="1"/>
        <pt x="57" y="0" on="1"/>
        <pt x="57" y="720" on="1"/>
        <pt x="190" y="720" on="1"/>
        <pt x="190" y="426" on="1"/>
        <pt x="360" y="426" on="1"/>
      </contour>
    </TTGlyph>
    <TTGlyph name="K.alt" xMin="54" yMin="0" xMax="775" yMax="720">
      <contour>
        <pt x="642" y="430" on="1"/>
        <pt x="642" y="720" on="1"/>
        <pt x="775" y="720" on="1"/>
        <pt x="775" y="449" on="1"/>
        <pt x="775" y="422" on="0"/>
        <pt x="732" y="371" on="0"/>
        <pt x="696" y="357" on="1"/>
        <pt x="732" y="342" on="0"/>
        <pt x="774" y="292" on="0"/>
        <pt x="774" y="265" on="1"/>
        <pt x="774" y="0" on="1"/>
        <pt x="641" y="0" on="1"/>
        <pt x="641" y="284" on="1"/>
        <pt x="641" y="291" on="0"/>
        <pt x="635" y="291" on="1"/>
        <pt x="193" y="291" on="1"/>
        <pt x="186" y="291" on="0"/>
        <pt x="186" y="284" on="1"/>
        <pt x="186" y="0" on="1"/>
        <pt x="54" y="0" on="1"/>
        <pt x="54" y="720" on="1"/>
        <pt x="186" y="720" on="1"/>
        <pt x="186" y="430" on="1"/>
        <pt x="186" y="423" on="0"/>
        <pt x="193" y="423" on="1"/>
        <pt x="635" y="423" on="1"/>
        <pt x="642" y="423" on="0"/>
      </contour>
    </TTGlyph>
    <TTGlyph name="L" xMin="57" yMin="0" xMax="777" yMax="721">
      <contour>
        <pt x="57" y="0" on="1"/>
        <pt x="57" y="721" on="1"/>
        <pt x="189" y="721" on="1"/>
        <pt x="189" y="132" on="1"/>
        <pt x="777" y="132" on="1"/>
        <pt x="777" y="0" on="1"/>
      </contour>
    </TTGlyph>
    <TTGlyph name="M" xMin="56" yMin="0" xMax="868" yMax="720">
      <contour>
        <pt x="462" y="408" on="1"/>
        <pt x="723" y="720" on="1"/>
        <pt x="868" y="720" on="1"/>
        <pt x="868" y="0" on="1"/>
        <pt x="735" y="0" on="1"/>
        <pt x="735" y="528" on="1"/>
        <pt x="462" y="203" on="1"/>
        <pt x="188" y="528" on="1"/>
        <pt x="188" y="0" on="1"/>
        <pt x="56" y="0" on="1"/>
        <pt x="56" y="720" on="1"/>
        <pt x="200" y="720" on="1"/>
      </contour>
    </TTGlyph>
    <TTGlyph name="M.alt" xMin="54" yMin="0" xMax="1089" yMax="720">
      <contour>
        <pt x="950" y="720" on="1"/>
        <pt x="1007" y="720" on="0"/>
        <pt x="1089" y="639" on="0"/>
        <pt x="1089" y="581" on="1"/>
        <pt x="1089" y="0" on="1"/>
        <pt x="956" y="0" on="1"/>
        <pt x="956" y="581" on="1"/>
        <pt x="956" y="588" on="0"/>
        <pt x="950" y="588" on="1"/>
        <pt x="626" y="588" on="1"/>
        <pt x="626" y="0" on="1"/>
        <pt x="494" y="0" on="1"/>
        <pt x="494" y="581" on="1"/>
        <pt x="494" y="588" on="0"/>
        <pt x="487" y="588" on="1"/>
        <pt x="186" y="588" on="1"/>
        <pt x="186" y="0" on="1"/>
        <pt x="54" y="0" on="1"/>
        <pt x="54" y="720" on="1"/>
      </contour>
    </TTGlyph>
    <TTGlyph name="N" xMin="56" yMin="0" xMax="776" yMax="720">
      <contour>
        <pt x="643" y="192" on="1"/>
        <pt x="643" y="720" on="1"/>
        <pt x="776" y="720" on="1"/>
        <pt x="776" y="0" on="1"/>
        <pt x="632" y="0" on="1"/>
        <pt x="188" y="528" on="1"/>
        <pt x="188" y="0" on="1"/>
        <pt x="56" y="0" on="1"/>
        <pt x="56" y="720" on="1"/>
        <pt x="200" y="720" on="1"/>
      </contour>
    </TTGlyph>
    <TTGlyph name="N.alt" xMin="54" yMin="0" xMax="774" yMax="720">
      <contour>
        <pt x="186" y="0" on="1"/>
        <pt x="54" y="0" on="1"/>
        <pt x="54" y="720" on="1"/>
        <pt x="635" y="720" on="1"/>
        <pt x="692" y="720" on="0"/>
        <pt x="774" y="639" on="0"/>
        <pt x="774" y="581" on="1"/>
        <pt x="774" y="0" on="1"/>
        <pt x="641" y="0" on="1"/>
        <pt x="641" y="581" on="1"/>
        <pt x="641" y="588" on="0"/>
        <pt x="635" y="588" on="1"/>
        <pt x="186" y="588" on="1"/>
      </contour>
    </TTGlyph>
    <TTGlyph name="Ntilde" xMin="56" yMin="0" xMax="776" yMax="939">
      <contour>
        <pt x="643" y="192" on="1"/>
        <pt x="643" y="720" on="1"/>
        <pt x="776" y="720" on="1"/>
        <pt x="776" y="0" on="1"/>
        <pt x="632" y="0" on="1"/>
        <pt x="188" y="528" on="1"/>
        <pt x="188" y="0" on="1"/>
        <pt x="56" y="0" on="1"/>
        <pt x="56" y="720" on="1"/>
        <pt x="200" y="720" on="1"/>
      </contour>
      <contour>
        <pt x="517" y="874" on="1"/>
        <pt x="564" y="874" on="0"/>
        <pt x="604" y="901" on="1"/>
        <pt x="604" y="805" on="1"/>
        <pt x="552" y="783" on="0"/>
        <pt x="515" y="783" on="1"/>
        <pt x="479" y="783" on="0"/>
        <pt x="359" y="848" on="0"/>
        <pt x="325" y="848" on="1"/>
        <pt x="313" y="848" on="1"/>
        <pt x="269" y="848" on="0"/>
        <pt x="240" y="810" on="1"/>
        <pt x="240" y="921" on="1"/>
        <pt x="285" y="939" on="0"/>
        <pt x="325" y="939" on="1"/>
        <pt x="364" y="939" on="0"/>
        <pt x="485" y="878" on="0"/>
      </contour>
    </TTGlyph>
    <TTGlyph name="O" xMin="54" yMin="0" xMax="774" yMax="720">
      <contour>
        <pt x="193" y="720" on="1"/>
        <pt x="635" y="720" on="1"/>
        <pt x="692" y="720" on="0"/>
        <pt x="774" y="639" on="0"/>
        <pt x="774" y="581" on="1"/>
        <pt x="774" y="139" on="1"/>
        <pt x="774" y="81" on="0"/>
        <pt x="692" y="0" on="0"/>
        <pt x="635" y="0" on="1"/>
        <pt x="193" y="0" on="1"/>
        <pt x="135" y="0" on="0"/>
        <pt x="54" y="81" on="0"/>
        <pt x="54" y="139" on="1"/>
        <pt x="54" y="581" on="1"/>
        <pt x="54" y="639" on="0"/>
        <pt x="135" y="720" on="0"/>
      </contour>
      <contour>
        <pt x="193" y="132" on="1"/>
        <pt x="635" y="132" on="1"/>
        <pt x="641" y="132" on="0"/>
        <pt x="641" y="139" on="1"/>
        <pt x="641" y="581" on="1"/>
        <pt x="641" y="588" on="0"/>
        <pt x="635" y="588" on="1"/>
        <pt x="193" y="588" on="1"/>
        <pt x="186" y="588" on="0"/>
        <pt x="186" y="581" on="1"/>
        <pt x="186" y="139" on="1"/>
        <pt x="186" y="132" on="0"/>
      </contour>
    </TTGlyph>
    <TTGlyph name="O.alt" xMin="52" yMin="0" xMax="772" yMax="720">
      <contour>
        <pt x="191" y="720" on="1"/>
        <pt x="633" y="720" on="1"/>
        <pt x="690" y="720" on="0"/>
        <pt x="772" y="639" on="0"/>
        <pt x="772" y="581" on="1"/>
        <pt x="772" y="139" on="1"/>
        <pt x="772" y="81" on="0"/>
        <pt x="690" y="0" on="0"/>
        <pt x="633" y="0" on="1"/>
        <pt x="191" y="0" on="1"/>
        <pt x="133" y="0" on="0"/>
        <pt x="52" y="81" on="0"/>
        <pt x="52" y="139" on="1"/>
        <pt x="52" y="581" on="1"/>
        <pt x="52" y="639" on="0"/>
        <pt x="133" y="720" on="0"/>
      </contour>
      <contour>
        <pt x="639" y="139" on="1"/>
        <pt x="639" y="581" on="1"/>
        <pt x="639" y="588" on="0"/>
        <pt x="633" y="588" on="1"/>
        <pt x="191" y="588" on="1"/>
        <pt x="184" y="588" on="0"/>
        <pt x="184" y="581" on="1"/>
        <pt x="184" y="139" on="1"/>
        <pt x="184" y="132" on="0"/>
        <pt x="191" y="132" on="1"/>
        <pt x="633" y="132" on="1"/>
        <pt x="639" y="132" on="0"/>
      </contour>
      <contour>
        <pt x="478" y="294" on="1"/>
        <pt x="346" y="294" on="1"/>
        <pt x="346" y="426" on="1"/>
        <pt x="478" y="426" on="1"/>
      </contour>
    </TTGlyph>
    <TTGlyph name="OE" xMin="53" yMin="0" xMax="1303" yMax="720">
      <contour>
        <pt x="773" y="588" on="1"/>
        <pt x="773" y="426" on="1"/>
        <pt x="1199" y="426" on="1"/>
        <pt x="1199" y="294" on="1"/>
        <pt x="773" y="294" on="1"/>
        <pt x="773" y="132" on="1"/>
        <pt x="1303" y="132" on="1"/>
        <pt x="1303" y="0" on="1"/>
        <pt x="192" y="0" on="1"/>
        <pt x="135" y="0" on="0"/>
        <pt x="53" y="81" on="0"/>
        <pt x="53" y="139" on="1"/>
        <pt x="53" y="581" on="1"/>
        <pt x="53" y="639" on="0"/>
        <pt x="135" y="720" on="0"/>
        <pt x="192" y="720" on="1"/>
        <pt x="1303" y="720" on="1"/>
        <pt x="1303" y="588" on="1"/>
      </contour>
      <contour>
        <pt x="634" y="132" on="1"/>
        <pt x="641" y="132" on="0"/>
        <pt x="641" y="139" on="1"/>
        <pt x="641" y="581" on="1"/>
        <pt x="641" y="588" on="0"/>
        <pt x="634" y="588" on="1"/>
        <pt x="192" y="588" on="1"/>
        <pt x="186" y="588" on="0"/>
        <pt x="186" y="581" on="1"/>
        <pt x="186" y="139" on="1"/>
        <pt x="186" y="132" on="0"/>
        <pt x="192" y="132" on="1"/>
      </contour>
    </TTGlyph>
    <TTGlyph name="Oacute" xMin="54" yMin="0" xMax="774" yMax="962">
      <contour>
        <pt x="193" y="720" on="1"/>
        <pt x="635" y="720" on="1"/>
        <pt x="692" y="720" on="0"/>
        <pt x="774" y="639" on="0"/>
        <pt x="774" y="581" on="1"/>
        <pt x="774" y="139" on="1"/>
        <pt x="774" y="81" on="0"/>
        <pt x="692" y="0" on="0"/>
        <pt x="635" y="0" on="1"/>
        <pt x="193" y="0" on="1"/>
        <pt x="135" y="0" on="0"/>
        <pt x="54" y="81" on="0"/>
        <pt x="54" y="139" on="1"/>
        <pt x="54" y="581" on="1"/>
        <pt x="54" y="639" on="0"/>
        <pt x="135" y="720" on="0"/>
      </contour>
      <contour>
        <pt x="193" y="132" on="1"/>
        <pt x="635" y="132" on="1"/>
        <pt x="641" y="132" on="0"/>
        <pt x="641" y="139" on="1"/>
        <pt x="641" y="581" on="1"/>
        <pt x="641" y="588" on="0"/>
        <pt x="635" y="588" on="1"/>
        <pt x="193" y="588" on="1"/>
        <pt x="186" y="588" on="0"/>
        <pt x="186" y="581" on="1"/>
        <pt x="186" y="139" on="1"/>
        <pt x="186" y="132" on="0"/>
      </contour>
      <contour>
        <pt x="340" y="779" on="1"/>
        <pt x="386" y="962" on="1"/>
        <pt x="519" y="962" on="1"/>
        <pt x="473" y="779" on="1"/>
      </contour>
    </TTGlyph>
    <TTGlyph name="Ocircumflex" xMin="54" yMin="0" xMax="774" yMax="941">
      <contour>
        <pt x="193" y="720" on="1"/>
        <pt x="635" y="720" on="1"/>
        <pt x="692" y="720" on="0"/>
        <pt x="774" y="639" on="0"/>
        <pt x="774" y="581" on="1"/>
        <pt x="774" y="139" on="1"/>
        <pt x="774" y="81" on="0"/>
        <pt x="692" y="0" on="0"/>
        <pt x="635" y="0" on="1"/>
        <pt x="193" y="0" on="1"/>
        <pt x="135" y="0" on="0"/>
        <pt x="54" y="81" on="0"/>
        <pt x="54" y="139" on="1"/>
        <pt x="54" y="581" on="1"/>
        <pt x="54" y="639" on="0"/>
        <pt x="135" y="720" on="0"/>
      </contour>
      <contour>
        <pt x="193" y="132" on="1"/>
        <pt x="635" y="132" on="1"/>
        <pt x="641" y="132" on="0"/>
        <pt x="641" y="139" on="1"/>
        <pt x="641" y="581" on="1"/>
        <pt x="641" y="588" on="0"/>
        <pt x="635" y="588" on="1"/>
        <pt x="193" y="588" on="1"/>
        <pt x="186" y="588" on="0"/>
        <pt x="186" y="581" on="1"/>
        <pt x="186" y="139" on="1"/>
        <pt x="186" y="132" on="0"/>
      </contour>
      <contour>
        <pt x="396" y="778" on="1"/>
        <pt x="292" y="778" on="1"/>
        <pt x="390" y="941" on="1"/>
        <pt x="477" y="941" on="1"/>
        <pt x="575" y="778" on="1"/>
        <pt x="469" y="778" on="1"/>
        <pt x="432" y="837" on="1"/>
        <pt x="426" y="828" on="0"/>
        <pt x="402" y="787" on="0"/>
      </contour>
    </TTGlyph>
    <TTGlyph name="Odieresis" xMin="54" yMin="0" xMax="774" yMax="911">
      <contour>
        <pt x="193" y="720" on="1"/>
        <pt x="635" y="720" on="1"/>
        <pt x="692" y="720" on="0"/>
        <pt x="774" y="639" on="0"/>
        <pt x="774" y="581" on="1"/>
        <pt x="774" y="139" on="1"/>
        <pt x="774" y="81" on="0"/>
        <pt x="692" y="0" on="0"/>
        <pt x="635" y="0" on="1"/>
        <pt x="193" y="0" on="1"/>
        <pt x="135" y="0" on="0"/>
        <pt x="54" y="81" on="0"/>
        <pt x="54" y="139" on="1"/>
        <pt x="54" y="581" on="1"/>
        <pt x="54" y="639" on="0"/>
        <pt x="135" y="720" on="0"/>
      </contour>
      <contour>
        <pt x="193" y="132" on="1"/>
        <pt x="635" y="132" on="1"/>
        <pt x="641" y="132" on="0"/>
        <pt x="641" y="139" on="1"/>
        <pt x="641" y="581" on="1"/>
        <pt x="641" y="588" on="0"/>
        <pt x="635" y="588" on="1"/>
        <pt x="193" y="588" on="1"/>
        <pt x="186" y="588" on="0"/>
        <pt x="186" y="581" on="1"/>
        <pt x="186" y="139" on="1"/>
        <pt x="186" y="132" on="0"/>
      </contour>
      <contour>
        <pt x="578" y="911" on="1"/>
        <pt x="578" y="779" on="1"/>
        <pt x="446" y="779" on="1"/>
        <pt x="446" y="911" on="1"/>
      </contour>
      <contour>
        <pt x="406" y="911" on="1"/>
        <pt x="406" y="779" on="1"/>
        <pt x="275" y="779" on="1"/>
        <pt x="275" y="911" on="1"/>
      </contour>
    </TTGlyph>
    <TTGlyph name="Ograve" xMin="54" yMin="0" xMax="774" yMax="962">
      <contour>
        <pt x="193" y="720" on="1"/>
        <pt x="635" y="720" on="1"/>
        <pt x="692" y="720" on="0"/>
        <pt x="774" y="639" on="0"/>
        <pt x="774" y="581" on="1"/>
        <pt x="774" y="139" on="1"/>
        <pt x="774" y="81" on="0"/>
        <pt x="692" y="0" on="0"/>
        <pt x="635" y="0" on="1"/>
        <pt x="193" y="0" on="1"/>
        <pt x="135" y="0" on="0"/>
        <pt x="54" y="81" on="0"/>
        <pt x="54" y="139" on="1"/>
        <pt x="54" y="581" on="1"/>
        <pt x="54" y="639" on="0"/>
        <pt x="135" y="720" on="0"/>
      </contour>
      <contour>
        <pt x="193" y="132" on="1"/>
        <pt x="635" y="132" on="1"/>
        <pt x="641" y="132" on="0"/>
        <pt x="641" y="139" on="1"/>
        <pt x="641" y="581" on="1"/>
        <pt x="641" y="588" on="0"/>
        <pt x="635" y="588" on="1"/>
        <pt x="193" y="588" on="1"/>
        <pt x="186" y="588" on="0"/>
        <pt x="186" y="581" on="1"/>
        <pt x="186" y="139" on="1"/>
        <pt x="186" y="132" on="0"/>
      </contour>
      <contour>
        <pt x="473" y="962" on="1"/>
        <pt x="519" y="779" on="1"/>
        <pt x="386" y="779" on="1"/>
        <pt x="340" y="962" on="1"/>
      </contour>
    </TTGlyph>
    <TTGlyph name="Otilde" xMin="54" yMin="0" xMax="774" yMax="939">
      <contour>
        <pt x="193" y="720" on="1"/>
        <pt x="635" y="720" on="1"/>
        <pt x="692" y="720" on="0"/>
        <pt x="774" y="639" on="0"/>
        <pt x="774" y="581" on="1"/>
        <pt x="774" y="139" on="1"/>
        <pt x="774" y="81" on="0"/>
        <pt x="692" y="0" on="0"/>
        <pt x="635" y="0" on="1"/>
        <pt x="193" y="0" on="1"/>
        <pt x="135" y="0" on="0"/>
        <pt x="54" y="81" on="0"/>
        <pt x="54" y="139" on="1"/>
        <pt x="54" y="581" on="1"/>
        <pt x="54" y="639" on="0"/>
        <pt x="135" y="720" on="0"/>
      </contour>
      <contour>
        <pt x="193" y="132" on="1"/>
        <pt x="635" y="132" on="1"/>
        <pt x="641" y="132" on="0"/>
        <pt x="641" y="139" on="1"/>
        <pt x="641" y="581" on="1"/>
        <pt x="641" y="588" on="0"/>
        <pt x="635" y="588" on="1"/>
        <pt x="193" y="588" on="1"/>
        <pt x="186" y="588" on="0"/>
        <pt x="186" y="581" on="1"/>
        <pt x="186" y="139" on="1"/>
        <pt x="186" y="132" on="0"/>
      </contour>
      <contour>
        <pt x="515" y="874" on="1"/>
        <pt x="562" y="874" on="0"/>
        <pt x="602" y="901" on="1"/>
        <pt x="602" y="805" on="1"/>
        <pt x="550" y="783" on="0"/>
        <pt x="513" y="783" on="1"/>
        <pt x="477" y="783" on="0"/>
        <pt x="357" y="848" on="0"/>
        <pt x="323" y="848" on="1"/>
        <pt x="311" y="848" on="1"/>
        <pt x="267" y="848" on="0"/>
        <pt x="238" y="810" on="1"/>
        <pt x="238" y="921" on="1"/>
        <pt x="283" y="939" on="0"/>
        <pt x="323" y="939" on="1"/>
        <pt x="362" y="939" on="0"/>
        <pt x="483" y="878" on="0"/>
      </contour>
    </TTGlyph>
    <TTGlyph name="P" xMin="56" yMin="0" xMax="776" yMax="719">
      <contour>
        <pt x="56" y="719" on="1"/>
        <pt x="636" y="719" on="1"/>
        <pt x="694" y="719" on="0"/>
        <pt x="776" y="637" on="0"/>
        <pt x="776" y="580" on="1"/>
        <pt x="776" y="386" on="1"/>
        <pt x="776" y="329" on="0"/>
        <pt x="694" y="247" on="0"/>
        <pt x="636" y="247" on="1"/>
        <pt x="191" y="246" on="1"/>
        <pt x="188" y="247" on="1"/>
        <pt x="188" y="0" on="1"/>
        <pt x="56" y="0" on="1"/>
      </contour>
      <contour>
        <pt x="643" y="386" on="1"/>
        <pt x="643" y="580" on="1"/>
        <pt x="643" y="587" on="0"/>
        <pt x="636" y="587" on="1"/>
        <pt x="195" y="587" on="1"/>
        <pt x="188" y="587" on="0"/>
        <pt x="188" y="580" on="1"/>
        <pt x="188" y="386" on="1"/>
        <pt x="188" y="379" on="0"/>
        <pt x="195" y="379" on="1"/>
        <pt x="636" y="379" on="1"/>
        <pt x="643" y="379" on="0"/>
      </contour>
    </TTGlyph>
    <TTGlyph name="Q" xMin="54" yMin="0" xMax="860" yMax="720">
      <contour>
        <pt x="774" y="132" on="1"/>
        <pt x="860" y="132" on="1"/>
        <pt x="860" y="0" on="1"/>
        <pt x="193" y="0" on="1"/>
        <pt x="135" y="0" on="0"/>
        <pt x="54" y="81" on="0"/>
        <pt x="54" y="139" on="1"/>
        <pt x="54" y="581" on="1"/>
        <pt x="54" y="639" on="0"/>
        <pt x="135" y="720" on="0"/>
        <pt x="193" y="720" on="1"/>
        <pt x="634" y="720" on="1"/>
        <pt x="692" y="720" on="0"/>
        <pt x="774" y="639" on="0"/>
        <pt x="774" y="581" on="1"/>
      </contour>
      <contour>
        <pt x="193" y="132" on="1"/>
        <pt x="634" y="132" on="1"/>
        <pt x="641" y="132" on="0"/>
        <pt x="641" y="139" on="1"/>
        <pt x="641" y="581" on="1"/>
        <pt x="641" y="588" on="0"/>
        <pt x="634" y="588" on="1"/>
        <pt x="193" y="588" on="1"/>
        <pt x="186" y="588" on="0"/>
        <pt x="186" y="581" on="1"/>
        <pt x="186" y="139" on="1"/>
        <pt x="186" y="132" on="0"/>
      </contour>
    </TTGlyph>
    <TTGlyph name="Q.alt" xMin="54" yMin="-104" xMax="774" yMax="720">
      <contour>
        <pt x="635" y="720" on="1"/>
        <pt x="692" y="720" on="0"/>
        <pt x="774" y="639" on="0"/>
        <pt x="774" y="581" on="1"/>
        <pt x="774" y="139" on="1"/>
        <pt x="774" y="81" on="0"/>
        <pt x="692" y="0" on="0"/>
        <pt x="635" y="0" on="1"/>
        <pt x="480" y="0" on="1"/>
        <pt x="480" y="-104" on="1"/>
        <pt x="347" y="-104" on="1"/>
        <pt x="347" y="0" on="1"/>
        <pt x="193" y="0" on="1"/>
        <pt x="135" y="0" on="0"/>
        <pt x="54" y="81" on="0"/>
        <pt x="54" y="139" on="1"/>
        <pt x="54" y="581" on="1"/>
        <pt x="54" y="639" on="0"/>
        <pt x="135" y="720" on="0"/>
        <pt x="193" y="720" on="1"/>
      </contour>
      <contour>
        <pt x="641" y="139" on="1"/>
        <pt x="641" y="581" on="1"/>
        <pt x="641" y="588" on="0"/>
        <pt x="635" y="588" on="1"/>
        <pt x="193" y="588" on="1"/>
        <pt x="186" y="588" on="0"/>
        <pt x="186" y="581" on="1"/>
        <pt x="186" y="139" on="1"/>
        <pt x="186" y="132" on="0"/>
        <pt x="193" y="132" on="1"/>
        <pt x="635" y="132" on="1"/>
        <pt x="641" y="132" on="0"/>
      </contour>
    </TTGlyph>
    <TTGlyph name="R" xMin="55" yMin="0" xMax="775" yMax="719">
      <contour>
        <pt x="775" y="580" on="1"/>
        <pt x="775" y="386" on="1"/>
        <pt x="775" y="329" on="0"/>
        <pt x="693" y="247" on="0"/>
        <pt x="635" y="247" on="1"/>
        <pt x="596" y="247" on="1"/>
        <pt x="775" y="34" on="1"/>
        <pt x="775" y="0" on="1"/>
        <pt x="631" y="0" on="1"/>
        <pt x="423" y="247" on="1"/>
        <pt x="190" y="247" on="1"/>
        <pt x="187" y="247" on="1"/>
        <pt x="187" y="0" on="1"/>
        <pt x="55" y="0" on="1"/>
        <pt x="55" y="719" on="1"/>
        <pt x="635" y="719" on="1"/>
        <pt x="693" y="719" on="0"/>
        <pt x="775" y="637" on="0"/>
      </contour>
      <contour>
        <pt x="194" y="379" on="1"/>
        <pt x="635" y="379" on="1"/>
        <pt x="642" y="379" on="0"/>
        <pt x="642" y="386" on="1"/>
        <pt x="642" y="580" on="1"/>
        <pt x="642" y="587" on="0"/>
        <pt x="635" y="587" on="1"/>
        <pt x="194" y="587" on="1"/>
        <pt x="187" y="587" on="0"/>
        <pt x="187" y="580" on="1"/>
        <pt x="187" y="386" on="1"/>
        <pt x="187" y="379" on="0"/>
      </contour>
    </TTGlyph>
    <TTGlyph name="R.alt" xMin="54" yMin="0" xMax="774" yMax="720">
      <contour>
        <pt x="774" y="580" on="1"/>
        <pt x="774" y="386" on="1"/>
        <pt x="774" y="335" on="0"/>
        <pt x="723" y="313" on="1"/>
        <pt x="774" y="291" on="0"/>
        <pt x="774" y="240" on="1"/>
        <pt x="774" y="0" on="1"/>
        <pt x="641" y="0" on="1"/>
        <pt x="641" y="240" on="1"/>
        <pt x="641" y="247" on="0"/>
        <pt x="635" y="247" on="1"/>
        <pt x="193" y="247" on="1"/>
        <pt x="186" y="247" on="0"/>
        <pt x="186" y="240" on="1"/>
        <pt x="186" y="0" on="1"/>
        <pt x="54" y="0" on="1"/>
        <pt x="54" y="720" on="1"/>
        <pt x="635" y="719" on="1"/>
        <pt x="692" y="719" on="0"/>
        <pt x="774" y="637" on="0"/>
      </contour>
      <contour>
        <pt x="635" y="587" on="1"/>
        <pt x="193" y="587" on="1"/>
        <pt x="186" y="587" on="0"/>
        <pt x="186" y="580" on="1"/>
        <pt x="186" y="386" on="1"/>
        <pt x="186" y="379" on="0"/>
        <pt x="193" y="379" on="1"/>
        <pt x="635" y="379" on="1"/>
        <pt x="641" y="379" on="0"/>
        <pt x="641" y="386" on="1"/>
        <pt x="641" y="580" on="1"/>
        <pt x="641" y="587" on="0"/>
      </contour>
    </TTGlyph>
    <TTGlyph name="S" xMin="51" yMin="0" xMax="771" yMax="720">
      <contour>
        <pt x="771" y="581" on="1"/>
        <pt x="771" y="526" on="1"/>
        <pt x="638" y="526" on="1"/>
        <pt x="638" y="581" on="1"/>
        <pt x="638" y="588" on="0"/>
        <pt x="632" y="588" on="1"/>
        <pt x="190" y="588" on="1"/>
        <pt x="183" y="588" on="0"/>
        <pt x="183" y="581" on="1"/>
        <pt x="183" y="433" on="1"/>
        <pt x="183" y="426" on="0"/>
        <pt x="190" y="426" on="1"/>
        <pt x="632" y="426" on="1"/>
        <pt x="689" y="426" on="0"/>
        <pt x="771" y="345" on="0"/>
        <pt x="771" y="287" on="1"/>
        <pt x="771" y="139" on="1"/>
        <pt x="771" y="81" on="0"/>
        <pt x="689" y="0" on="0"/>
        <pt x="632" y="0" on="1"/>
        <pt x="190" y="0" on="1"/>
        <pt x="132" y="0" on="0"/>
        <pt x="51" y="81" on="0"/>
        <pt x="51" y="139" on="1"/>
        <pt x="51" y="194" on="1"/>
        <pt x="183" y="194" on="1"/>
        <pt x="183" y="139" on="1"/>
        <pt x="183" y="132" on="0"/>
        <pt x="190" y="132" on="1"/>
        <pt x="632" y="132" on="1"/>
        <pt x="638" y="132" on="0"/>
        <pt x="638" y="139" on="1"/>
        <pt x="638" y="287" on="1"/>
        <pt x="638" y="294" on="0"/>
        <pt x="632" y="294" on="1"/>
        <pt x="190" y="294" on="1"/>
        <pt x="132" y="294" on="0"/>
        <pt x="51" y="375" on="0"/>
        <pt x="51" y="433" on="1"/>
        <pt x="51" y="581" on="1"/>
        <pt x="51" y="639" on="0"/>
        <pt x="132" y="720" on="0"/>
        <pt x="190" y="720" on="1"/>
        <pt x="632" y="720" on="1"/>
        <pt x="689" y="720" on="0"/>
        <pt x="771" y="639" on="0"/>
      </contour>
    </TTGlyph>
    <TTGlyph name="S.alt" xMin="46" yMin="0" xMax="766" yMax="720">
      <contour>
        <pt x="185" y="426" on="1"/>
        <pt x="627" y="426" on="1"/>
        <pt x="684" y="426" on="0"/>
        <pt x="766" y="345" on="0"/>
        <pt x="766" y="287" on="1"/>
        <pt x="766" y="139" on="1"/>
        <pt x="766" y="81" on="0"/>
        <pt x="684" y="0" on="0"/>
        <pt x="627" y="0" on="1"/>
        <pt x="46" y="0" on="1"/>
        <pt x="46" y="132" on="1"/>
        <pt x="627" y="132" on="1"/>
        <pt x="633" y="132" on="0"/>
        <pt x="633" y="139" on="1"/>
        <pt x="633" y="287" on="1"/>
        <pt x="633" y="294" on="0"/>
        <pt x="627" y="294" on="1"/>
        <pt x="185" y="294" on="1"/>
        <pt x="127" y="294" on="0"/>
        <pt x="46" y="375" on="0"/>
        <pt x="46" y="433" on="1"/>
        <pt x="46" y="581" on="1"/>
        <pt x="46" y="639" on="0"/>
        <pt x="127" y="720" on="0"/>
        <pt x="185" y="720" on="1"/>
        <pt x="766" y="720" on="1"/>
        <pt x="766" y="588" on="1"/>
        <pt x="185" y="588" on="1"/>
        <pt x="178" y="588" on="0"/>
        <pt x="178" y="581" on="1"/>
        <pt x="178" y="433" on="1"/>
        <pt x="178" y="426" on="0"/>
      </contour>
    </TTGlyph>
    <TTGlyph name="Scaron" xMin="51" yMin="0" xMax="771" yMax="941">
      <contour>
        <pt x="771" y="581" on="1"/>
        <pt x="771" y="526" on="1"/>
        <pt x="638" y="526" on="1"/>
        <pt x="638" y="581" on="1"/>
        <pt x="638" y="588" on="0"/>
        <pt x="632" y="588" on="1"/>
        <pt x="190" y="588" on="1"/>
        <pt x="183" y="588" on="0"/>
        <pt x="183" y="581" on="1"/>
        <pt x="183" y="433" on="1"/>
        <pt x="183" y="426" on="0"/>
        <pt x="190" y="426" on="1"/>
        <pt x="632" y="426" on="1"/>
        <pt x="689" y="426" on="0"/>
        <pt x="771" y="345" on="0"/>
        <pt x="771" y="287" on="1"/>
        <pt x="771" y="139" on="1"/>
        <pt x="771" y="81" on="0"/>
        <pt x="689" y="0" on="0"/>
        <pt x="632" y="0" on="1"/>
        <pt x="190" y="0" on="1"/>
        <pt x="132" y="0" on="0"/>
        <pt x="51" y="81" on="0"/>
        <pt x="51" y="139" on="1"/>
        <pt x="51" y="194" on="1"/>
        <pt x="183" y="194" on="1"/>
        <pt x="183" y="139" on="1"/>
        <pt x="183" y="132" on="0"/>
        <pt x="190" y="132" on="1"/>
        <pt x="632" y="132" on="1"/>
        <pt x="638" y="132" on="0"/>
        <pt x="638" y="139" on="1"/>
        <pt x="638" y="287" on="1"/>
        <pt x="638" y="294" on="0"/>
        <pt x="632" y="294" on="1"/>
        <pt x="190" y="294" on="1"/>
        <pt x="132" y="294" on="0"/>
        <pt x="51" y="375" on="0"/>
        <pt x="51" y="433" on="1"/>
        <pt x="51" y="581" on="1"/>
        <pt x="51" y="639" on="0"/>
        <pt x="132" y="720" on="0"/>
        <pt x="190" y="720" on="1"/>
        <pt x="632" y="720" on="1"/>
        <pt x="689" y="720" on="0"/>
        <pt x="771" y="639" on="0"/>
      </contour>
      <contour>
        <pt x="289" y="941" on="1"/>
        <pt x="392" y="941" on="1"/>
        <pt x="429" y="882" on="1"/>
        <pt x="466" y="941" on="1"/>
        <pt x="572" y="941" on="1"/>
        <pt x="474" y="778" on="1"/>
        <pt x="387" y="778" on="1"/>
      </contour>
    </TTGlyph>
    <TTGlyph name="T" xMin="20" yMin="0" xMax="740" yMax="720">
      <contour>
        <pt x="20" y="720" on="1"/>
        <pt x="740" y="720" on="1"/>
        <pt x="740" y="588" on="1"/>
        <pt x="447" y="588" on="1"/>
        <pt x="447" y="0" on="1"/>
        <pt x="314" y="0" on="1"/>
        <pt x="314" y="588" on="1"/>
        <pt x="20" y="588" on="1"/>
      </contour>
    </TTGlyph>
    <TTGlyph name="U" xMin="54" yMin="0" xMax="774" yMax="720">
      <contour>
        <pt x="641" y="139" on="1"/>
        <pt x="641" y="720" on="1"/>
        <pt x="774" y="720" on="1"/>
        <pt x="774" y="139" on="1"/>
        <pt x="774" y="81" on="0"/>
        <pt x="692" y="0" on="0"/>
        <pt x="635" y="0" on="1"/>
        <pt x="193" y="0" on="1"/>
        <pt x="135" y="0" on="0"/>
        <pt x="54" y="81" on="0"/>
        <pt x="54" y="139" on="1"/>
        <pt x="54" y="720" on="1"/>
        <pt x="186" y="720" on="1"/>
        <pt x="186" y="139" on="1"/>
        <pt x="186" y="132" on="0"/>
        <pt x="193" y="132" on="1"/>
        <pt x="635" y="132" on="1"/>
        <pt x="641" y="132" on="0"/>
      </contour>
    </TTGlyph>
    <TTGlyph name="Uacute" xMin="54" yMin="0" xMax="774" yMax="962">
      <contour>
        <pt x="641" y="139" on="1"/>
        <pt x="641" y="720" on="1"/>
        <pt x="774" y="720" on="1"/>
        <pt x="774" y="139" on="1"/>
        <pt x="774" y="81" on="0"/>
        <pt x="692" y="0" on="0"/>
        <pt x="635" y="0" on="1"/>
        <pt x="193" y="0" on="1"/>
        <pt x="135" y="0" on="0"/>
        <pt x="54" y="81" on="0"/>
        <pt x="54" y="139" on="1"/>
        <pt x="54" y="720" on="1"/>
        <pt x="186" y="720" on="1"/>
        <pt x="186" y="139" on="1"/>
        <pt x="186" y="132" on="0"/>
        <pt x="193" y="132" on="1"/>
        <pt x="635" y="132" on="1"/>
        <pt x="641" y="132" on="0"/>
      </contour>
      <contour>
        <pt x="340" y="779" on="1"/>
        <pt x="386" y="962" on="1"/>
        <pt x="519" y="962" on="1"/>
        <pt x="473" y="779" on="1"/>
      </contour>
    </TTGlyph>
    <TTGlyph name="Ucircumflex" xMin="54" yMin="0" xMax="774" yMax="941">
      <contour>
        <pt x="641" y="139" on="1"/>
        <pt x="641" y="720" on="1"/>
        <pt x="774" y="720" on="1"/>
        <pt x="774" y="139" on="1"/>
        <pt x="774" y="81" on="0"/>
        <pt x="692" y="0" on="0"/>
        <pt x="635" y="0" on="1"/>
        <pt x="193" y="0" on="1"/>
        <pt x="135" y="0" on="0"/>
        <pt x="54" y="81" on="0"/>
        <pt x="54" y="139" on="1"/>
        <pt x="54" y="720" on="1"/>
        <pt x="186" y="720" on="1"/>
        <pt x="186" y="139" on="1"/>
        <pt x="186" y="132" on="0"/>
        <pt x="193" y="132" on="1"/>
        <pt x="635" y="132" on="1"/>
        <pt x="641" y="132" on="0"/>
      </contour>
      <contour>
        <pt x="396" y="778" on="1"/>
        <pt x="292" y="778" on="1"/>
        <pt x="390" y="941" on="1"/>
        <pt x="477" y="941" on="1"/>
        <pt x="575" y="778" on="1"/>
        <pt x="469" y="778" on="1"/>
        <pt x="432" y="837" on="1"/>
        <pt x="426" y="828" on="0"/>
        <pt x="402" y="787" on="0"/>
      </contour>
    </TTGlyph>
    <TTGlyph name="Udieresis" xMin="54" yMin="0" xMax="774" yMax="911">
      <contour>
        <pt x="641" y="139" on="1"/>
        <pt x="641" y="720" on="1"/>
        <pt x="774" y="720" on="1"/>
        <pt x="774" y="139" on="1"/>
        <pt x="774" y="81" on="0"/>
        <pt x="692" y="0" on="0"/>
        <pt x="635" y="0" on="1"/>
        <pt x="193" y="0" on="1"/>
        <pt x="135" y="0" on="0"/>
        <pt x="54" y="81" on="0"/>
        <pt x="54" y="139" on="1"/>
        <pt x="54" y="720" on="1"/>
        <pt x="186" y="720" on="1"/>
        <pt x="186" y="139" on="1"/>
        <pt x="186" y="132" on="0"/>
        <pt x="193" y="132" on="1"/>
        <pt x="635" y="132" on="1"/>
        <pt x="641" y="132" on="0"/>
      </contour>
      <contour>
        <pt x="578" y="911" on="1"/>
        <pt x="578" y="779" on="1"/>
        <pt x="446" y="779" on="1"/>
        <pt x="446" y="911" on="1"/>
      </contour>
      <contour>
        <pt x="406" y="911" on="1"/>
        <pt x="406" y="779" on="1"/>
        <pt x="275" y="779" on="1"/>
        <pt x="275" y="911" on="1"/>
      </contour>
    </TTGlyph>
    <TTGlyph name="Ugrave" xMin="54" yMin="0" xMax="774" yMax="962">
      <contour>
        <pt x="641" y="139" on="1"/>
        <pt x="641" y="720" on="1"/>
        <pt x="774" y="720" on="1"/>
        <pt x="774" y="139" on="1"/>
        <pt x="774" y="81" on="0"/>
        <pt x="692" y="0" on="0"/>
        <pt x="635" y="0" on="1"/>
        <pt x="193" y="0" on="1"/>
        <pt x="135" y="0" on="0"/>
        <pt x="54" y="81" on="0"/>
        <pt x="54" y="139" on="1"/>
        <pt x="54" y="720" on="1"/>
        <pt x="186" y="720" on="1"/>
        <pt x="186" y="139" on="1"/>
        <pt x="186" y="132" on="0"/>
        <pt x="193" y="132" on="1"/>
        <pt x="635" y="132" on="1"/>
        <pt x="641" y="132" on="0"/>
      </contour>
      <contour>
        <pt x="473" y="962" on="1"/>
        <pt x="519" y="779" on="1"/>
        <pt x="386" y="779" on="1"/>
        <pt x="340" y="962" on="1"/>
      </contour>
    </TTGlyph>
    <TTGlyph name="V" xMin="35" yMin="0" xMax="986" yMax="720">
      <contour>
        <pt x="511" y="160" on="1"/>
        <pt x="833" y="720" on="1"/>
        <pt x="986" y="720" on="1"/>
        <pt x="570" y="0" on="1"/>
        <pt x="451" y="0" on="1"/>
        <pt x="35" y="720" on="1"/>
        <pt x="188" y="720" on="1"/>
      </contour>
    </TTGlyph>
    <TTGlyph name="V.alt" xMin="54" yMin="0" xMax="767" yMax="720">
      <contour>
        <pt x="54" y="720" on="1"/>
        <pt x="185" y="720" on="1"/>
        <pt x="185" y="190" on="1"/>
        <pt x="625" y="720" on="1"/>
        <pt x="767" y="720" on="1"/>
        <pt x="767" y="680" on="1"/>
        <pt x="197" y="0" on="1"/>
        <pt x="54" y="0" on="1"/>
      </contour>
    </TTGlyph>
    <TTGlyph name="V.alt2" xMin="0" yMin="0" xMax="720" yMax="720">
      <contour>
        <pt x="587" y="192" on="1"/>
        <pt x="587" y="720" on="1"/>
        <pt x="720" y="720" on="1"/>
        <pt x="720" y="0" on="1"/>
        <pt x="576" y="0" on="1"/>
        <pt x="0" y="686" on="1"/>
        <pt x="0" y="720" on="1"/>
        <pt x="144" y="720" on="1"/>
      </contour>
    </TTGlyph>
    <TTGlyph name="V.alt3" xMin="53" yMin="0" xMax="773" yMax="720">
      <contour>
        <pt x="640" y="720" on="1"/>
        <pt x="773" y="720" on="1"/>
        <pt x="773" y="0" on="1"/>
        <pt x="192" y="0" on="1"/>
        <pt x="134" y="0" on="0"/>
        <pt x="53" y="81" on="0"/>
        <pt x="53" y="139" on="1"/>
        <pt x="53" y="720" on="1"/>
        <pt x="185" y="720" on="1"/>
        <pt x="185" y="139" on="1"/>
        <pt x="185" y="132" on="0"/>
        <pt x="192" y="132" on="1"/>
        <pt x="640" y="132" on="1"/>
      </contour>
    </TTGlyph>
    <TTGlyph name="W" xMin="35" yMin="0" xMax="1140" yMax="720">
      <contour>
        <pt x="1000" y="720" on="1"/>
        <pt x="1140" y="720" on="1"/>
        <pt x="878" y="0" on="1"/>
        <pt x="774" y="0" on="1"/>
        <pt x="587" y="511" on="1"/>
        <pt x="400" y="0" on="1"/>
        <pt x="297" y="0" on="1"/>
        <pt x="35" y="720" on="1"/>
        <pt x="175" y="720" on="1"/>
        <pt x="349" y="245" on="1"/>
        <pt x="523" y="720" on="1"/>
        <pt x="652" y="720" on="1"/>
        <pt x="826" y="245" on="1"/>
      </contour>
    </TTGlyph>
    <TTGlyph name="W.alt" xMin="65" yMin="0" xMax="1148" yMax="720">
      <contour>
        <pt x="1004" y="720" on="1"/>
        <pt x="1148" y="720" on="1"/>
        <pt x="1148" y="686" on="1"/>
        <pt x="572" y="0" on="1"/>
        <pt x="428" y="0" on="1"/>
        <pt x="428" y="262" on="1"/>
        <pt x="209" y="0" on="1"/>
        <pt x="65" y="0" on="1"/>
        <pt x="65" y="720" on="1"/>
        <pt x="197" y="720" on="1"/>
        <pt x="197" y="192" on="1"/>
        <pt x="641" y="720" on="1"/>
        <pt x="785" y="720" on="1"/>
        <pt x="785" y="685" on="1"/>
        <pt x="561" y="420" on="1"/>
        <pt x="561" y="192" on="1"/>
      </contour>
    </TTGlyph>
    <TTGlyph name="W.alt2" xMin="-3" yMin="0" xMax="1080" yMax="720">
      <contour>
        <pt x="141" y="720" on="1"/>
        <pt x="584" y="192" on="1"/>
        <pt x="584" y="420" on="1"/>
        <pt x="360" y="685" on="1"/>
        <pt x="360" y="720" on="1"/>
        <pt x="504" y="720" on="1"/>
        <pt x="948" y="192" on="1"/>
        <pt x="948" y="720" on="1"/>
        <pt x="1080" y="720" on="1"/>
        <pt x="1080" y="0" on="1"/>
        <pt x="936" y="0" on="1"/>
        <pt x="717" y="261" on="1"/>
        <pt x="717" y="0" on="1"/>
        <pt x="573" y="0" on="1"/>
        <pt x="-3" y="686" on="1"/>
        <pt x="-3" y="720" on="1"/>
      </contour>
    </TTGlyph>
    <TTGlyph name="W.alt3" xMin="54" yMin="0" xMax="966" yMax="720">
      <contour>
        <pt x="510" y="372" on="1"/>
        <pt x="198" y="0" on="1"/>
        <pt x="54" y="0" on="1"/>
        <pt x="54" y="720" on="1"/>
        <pt x="186" y="720" on="1"/>
        <pt x="186" y="191" on="1"/>
        <pt x="510" y="577" on="1"/>
        <pt x="833" y="192" on="1"/>
        <pt x="833" y="720" on="1"/>
        <pt x="966" y="720" on="1"/>
        <pt x="966" y="0" on="1"/>
        <pt x="822" y="0" on="1"/>
      </contour>
    </TTGlyph>
    <TTGlyph name="W.alt4" xMin="53" yMin="0" xMax="1088" yMax="720">
      <contour>
        <pt x="192" y="0" on="1"/>
        <pt x="134" y="0" on="0"/>
        <pt x="53" y="81" on="0"/>
        <pt x="53" y="139" on="1"/>
        <pt x="53" y="720" on="1"/>
        <pt x="185" y="720" on="1"/>
        <pt x="185" y="139" on="1"/>
        <pt x="185" y="132" on="0"/>
        <pt x="192" y="132" on="1"/>
        <pt x="516" y="132" on="1"/>
        <pt x="516" y="720" on="1"/>
        <pt x="648" y="720" on="1"/>
        <pt x="648" y="139" on="1"/>
        <pt x="648" y="132" on="0"/>
        <pt x="655" y="132" on="1"/>
        <pt x="955" y="132" on="1"/>
        <pt x="955" y="720" on="1"/>
        <pt x="1088" y="720" on="1"/>
        <pt x="1088" y="0" on="1"/>
      </contour>
    </TTGlyph>
    <TTGlyph name="X" xMin="46" yMin="0" xMax="766" yMax="720">
      <contour>
        <pt x="621" y="720" on="1"/>
        <pt x="766" y="720" on="1"/>
        <pt x="766" y="685" on="1"/>
        <pt x="492" y="360" on="1"/>
        <pt x="766" y="35" on="1"/>
        <pt x="766" y="0" on="1"/>
        <pt x="621" y="0" on="1"/>
        <pt x="406" y="255" on="1"/>
        <pt x="191" y="0" on="1"/>
        <pt x="46" y="0" on="1"/>
        <pt x="46" y="35" on="1"/>
        <pt x="319" y="360" on="1"/>
        <pt x="46" y="685" on="1"/>
        <pt x="46" y="720" on="1"/>
        <pt x="191" y="720" on="1"/>
        <pt x="406" y="465" on="1"/>
      </contour>
    </TTGlyph>
    <TTGlyph name="X.alt" xMin="54" yMin="0" xMax="775" yMax="720">
      <contour>
        <pt x="642" y="720" on="1"/>
        <pt x="775" y="720" on="1"/>
        <pt x="775" y="449" on="1"/>
        <pt x="775" y="419" on="0"/>
        <pt x="732" y="370" on="0"/>
        <pt x="698" y="357" on="1"/>
        <pt x="732" y="343" on="0"/>
        <pt x="774" y="295" on="0"/>
        <pt x="774" y="265" on="1"/>
        <pt x="774" y="0" on="1"/>
        <pt x="641" y="0" on="1"/>
        <pt x="641" y="284" on="1"/>
        <pt x="641" y="291" on="0"/>
        <pt x="635" y="291" on="1"/>
        <pt x="194" y="291" on="1"/>
        <pt x="187" y="291" on="0"/>
        <pt x="187" y="284" on="1"/>
        <pt x="187" y="0" on="1"/>
        <pt x="55" y="0" on="1"/>
        <pt x="55" y="265" on="1"/>
        <pt x="55" y="327" on="0"/>
        <pt x="130" y="357" on="1"/>
        <pt x="54" y="386" on="0"/>
        <pt x="54" y="449" on="1"/>
        <pt x="54" y="720" on="1"/>
        <pt x="186" y="720" on="1"/>
        <pt x="186" y="430" on="1"/>
        <pt x="186" y="423" on="0"/>
        <pt x="193" y="423" on="1"/>
        <pt x="635" y="423" on="1"/>
        <pt x="642" y="423" on="0"/>
        <pt x="642" y="430" on="1"/>
      </contour>
    </TTGlyph>
    <TTGlyph name="Y" xMin="17" yMin="0" xMax="815" yMax="720">
      <contour>
        <pt x="657" y="720" on="1"/>
        <pt x="815" y="720" on="1"/>
        <pt x="482" y="269" on="1"/>
        <pt x="482" y="0" on="1"/>
        <pt x="350" y="0" on="1"/>
        <pt x="350" y="269" on="1"/>
        <pt x="17" y="720" on="1"/>
        <pt x="174" y="720" on="1"/>
        <pt x="416" y="414" on="1"/>
      </contour>
    </TTGlyph>
    <TTGlyph name="Y.alt" xMin="51" yMin="0" xMax="771" yMax="720">
      <contour>
        <pt x="638" y="720" on="1"/>
        <pt x="771" y="720" on="1"/>
        <pt x="771" y="139" on="1"/>
        <pt x="771" y="81" on="0"/>
        <pt x="689" y="0" on="0"/>
        <pt x="632" y="0" on="1"/>
        <pt x="51" y="0" on="1"/>
        <pt x="51" y="132" on="1"/>
        <pt x="632" y="132" on="1"/>
        <pt x="638" y="132" on="0"/>
        <pt x="638" y="139" on="1"/>
        <pt x="638" y="287" on="1"/>
        <pt x="638" y="294" on="0"/>
        <pt x="632" y="294" on="1"/>
        <pt x="190" y="294" on="1"/>
        <pt x="132" y="294" on="0"/>
        <pt x="51" y="375" on="0"/>
        <pt x="51" y="433" on="1"/>
        <pt x="51" y="720" on="1"/>
        <pt x="183" y="720" on="1"/>
        <pt x="183" y="433" on="1"/>
        <pt x="183" y="426" on="0"/>
        <pt x="190" y="426" on="1"/>
        <pt x="638" y="426" on="1"/>
      </contour>
    </TTGlyph>
    <TTGlyph name="Yacute" xMin="17" yMin="0" xMax="815" yMax="962">
      <contour>
        <pt x="657" y="720" on="1"/>
        <pt x="815" y="720" on="1"/>
        <pt x="482" y="269" on="1"/>
        <pt x="482" y="0" on="1"/>
        <pt x="350" y="0" on="1"/>
        <pt x="350" y="269" on="1"/>
        <pt x="17" y="720" on="1"/>
        <pt x="174" y="720" on="1"/>
        <pt x="416" y="414" on="1"/>
      </contour>
      <contour>
        <pt x="329" y="779" on="1"/>
        <pt x="375" y="962" on="1"/>
        <pt x="508" y="962" on="1"/>
        <pt x="462" y="779" on="1"/>
      </contour>
    </TTGlyph>
    <TTGlyph name="Ydieresis" xMin="17" yMin="0" xMax="815" yMax="911">
      <contour>
        <pt x="657" y="720" on="1"/>
        <pt x="815" y="720" on="1"/>
        <pt x="482" y="269" on="1"/>
        <pt x="482" y="0" on="1"/>
        <pt x="350" y="0" on="1"/>
        <pt x="350" y="269" on="1"/>
        <pt x="17" y="720" on="1"/>
        <pt x="174" y="720" on="1"/>
        <pt x="416" y="414" on="1"/>
      </contour>
      <contour>
        <pt x="567" y="911" on="1"/>
        <pt x="567" y="779" on="1"/>
        <pt x="435" y="779" on="1"/>
        <pt x="435" y="911" on="1"/>
      </contour>
      <contour>
        <pt x="395" y="911" on="1"/>
        <pt x="395" y="779" on="1"/>
        <pt x="264" y="779" on="1"/>
        <pt x="264" y="911" on="1"/>
      </contour>
    </TTGlyph>
    <TTGlyph name="Z" xMin="51" yMin="0" xMax="771" yMax="720">
      <contour>
        <pt x="51" y="588" on="1"/>
        <pt x="51" y="720" on="1"/>
        <pt x="771" y="720" on="1"/>
        <pt x="771" y="576" on="1"/>
        <pt x="243" y="132" on="1"/>
        <pt x="771" y="132" on="1"/>
        <pt x="771" y="0" on="1"/>
        <pt x="51" y="0" on="1"/>
        <pt x="51" y="144" on="1"/>
        <pt x="579" y="588" on="1"/>
      </contour>
    </TTGlyph>
    <TTGlyph name="Z.alt" xMin="49" yMin="0" xMax="769" yMax="720">
      <contour>
        <pt x="188" y="426" on="1"/>
        <pt x="630" y="426" on="1"/>
        <pt x="636" y="426" on="0"/>
        <pt x="636" y="433" on="1"/>
        <pt x="636" y="581" on="1"/>
        <pt x="636" y="588" on="0"/>
        <pt x="630" y="588" on="1"/>
        <pt x="49" y="588" on="1"/>
        <pt x="49" y="720" on="1"/>
        <pt x="630" y="720" on="1"/>
        <pt x="687" y="720" on="0"/>
        <pt x="769" y="639" on="0"/>
        <pt x="769" y="581" on="1"/>
        <pt x="769" y="433" on="1"/>
        <pt x="769" y="375" on="0"/>
        <pt x="687" y="294" on="0"/>
        <pt x="630" y="294" on="1"/>
        <pt x="188" y="294" on="1"/>
        <pt x="181" y="294" on="0"/>
        <pt x="181" y="287" on="1"/>
        <pt x="181" y="139" on="1"/>
        <pt x="181" y="132" on="0"/>
        <pt x="188" y="132" on="1"/>
        <pt x="769" y="132" on="1"/>
        <pt x="769" y="0" on="1"/>
        <pt x="188" y="0" on="1"/>
        <pt x="130" y="0" on="0"/>
        <pt x="49" y="81" on="0"/>
        <pt x="49" y="139" on="1"/>
        <pt x="49" y="287" on="1"/>
        <pt x="49" y="345" on="0"/>
        <pt x="130" y="426" on="0"/>
      </contour>
    </TTGlyph>
    <TTGlyph name="Zcaron" xMin="51" yMin="0" xMax="771" yMax="941">
      <contour>
        <pt x="51" y="588" on="1"/>
        <pt x="51" y="720" on="1"/>
        <pt x="771" y="720" on="1"/>
        <pt x="771" y="576" on="1"/>
        <pt x="243" y="132" on="1"/>
        <pt x="771" y="132" on="1"/>
        <pt x="771" y="0" on="1"/>
        <pt x="51" y="0" on="1"/>
        <pt x="51" y="144" on="1"/>
        <pt x="579" y="588" on="1"/>
      </contour>
      <contour>
        <pt x="288" y="941" on="1"/>
        <pt x="391" y="941" on="1"/>
        <pt x="428" y="882" on="1"/>
        <pt x="465" y="941" on="1"/>
        <pt x="571" y="941" on="1"/>
        <pt x="473" y="778" on="1"/>
        <pt x="386" y="778" on="1"/>
      </contour>
    </TTGlyph>
    <TTGlyph name="a" xMin="52" yMin="0" xMax="641" yMax="580">
      <contour>
        <pt x="503" y="580" on="1"/>
        <pt x="560" y="580" on="0"/>
        <pt x="641" y="499" on="0"/>
        <pt x="641" y="442" on="1"/>
        <pt x="641" y="0" on="1"/>
        <pt x="190" y="0" on="1"/>
        <pt x="133" y="0" on="0"/>
        <pt x="52" y="81" on="0"/>
        <pt x="52" y="138" on="1"/>
        <pt x="52" y="356" on="1"/>
        <pt x="510" y="356" on="1"/>
        <pt x="510" y="442" on="1"/>
        <pt x="510" y="449" on="0"/>
        <pt x="503" y="449" on="1"/>
        <pt x="52" y="449" on="1"/>
        <pt x="52" y="580" on="1"/>
      </contour>
      <contour>
        <pt x="510" y="131" on="1"/>
        <pt x="510" y="224" on="1"/>
        <pt x="183" y="224" on="1"/>
        <pt x="183" y="138" on="1"/>
        <pt x="183" y="131" on="0"/>
        <pt x="190" y="131" on="1"/>
      </contour>
    </TTGlyph>
    <TTGlyph name="a.alt" xMin="51" yMin="0" xMax="640" yMax="580">
      <contour>
        <pt x="502" y="580" on="1"/>
        <pt x="559" y="580" on="0"/>
        <pt x="640" y="499" on="0"/>
        <pt x="640" y="442" on="1"/>
        <pt x="640" y="0" on="1"/>
        <pt x="189" y="0" on="1"/>
        <pt x="132" y="0" on="0"/>
        <pt x="51" y="81" on="0"/>
        <pt x="51" y="138" on="1"/>
        <pt x="51" y="442" on="1"/>
        <pt x="51" y="499" on="0"/>
        <pt x="132" y="580" on="0"/>
        <pt x="189" y="580" on="1"/>
      </contour>
      <contour>
        <pt x="189" y="131" on="1"/>
        <pt x="509" y="131" on="1"/>
        <pt x="509" y="442" on="1"/>
        <pt x="509" y="449" on="0"/>
        <pt x="502" y="449" on="1"/>
        <pt x="189" y="449" on="1"/>
        <pt x="182" y="449" on="0"/>
        <pt x="182" y="442" on="1"/>
        <pt x="182" y="138" on="1"/>
        <pt x="182" y="131" on="0"/>
      </contour>
    </TTGlyph>
    <TTGlyph name="a.sc" xMin="53" yMin="0" xMax="671" yMax="580">
      <contour>
        <pt x="191" y="580" on="1"/>
        <pt x="533" y="580" on="1"/>
        <pt x="590" y="580" on="0"/>
        <pt x="671" y="499" on="0"/>
        <pt x="671" y="442" on="1"/>
        <pt x="671" y="0" on="1"/>
        <pt x="540" y="0" on="1"/>
        <pt x="540" y="145" on="1"/>
        <pt x="184" y="145" on="1"/>
        <pt x="184" y="0" on="1"/>
        <pt x="53" y="0" on="1"/>
        <pt x="53" y="442" on="1"/>
        <pt x="53" y="499" on="0"/>
        <pt x="134" y="580" on="0"/>
      </contour>
      <contour>
        <pt x="184" y="276" on="1"/>
        <pt x="540" y="276" on="1"/>
        <pt x="540" y="442" on="1"/>
        <pt x="540" y="449" on="0"/>
        <pt x="533" y="449" on="1"/>
        <pt x="191" y="449" on="1"/>
        <pt x="184" y="449" on="0"/>
        <pt x="184" y="442" on="1"/>
      </contour>
    </TTGlyph>
    <TTGlyph name="aacute" xMin="52" yMin="0" xMax="641" yMax="860">
      <contour>
        <pt x="503" y="580" on="1"/>
        <pt x="560" y="580" on="0"/>
        <pt x="641" y="499" on="0"/>
        <pt x="641" y="442" on="1"/>
        <pt x="641" y="0" on="1"/>
        <pt x="190" y="0" on="1"/>
        <pt x="133" y="0" on="0"/>
        <pt x="52" y="81" on="0"/>
        <pt x="52" y="138" on="1"/>
        <pt x="52" y="356" on="1"/>
        <pt x="510" y="356" on="1"/>
        <pt x="510" y="442" on="1"/>
        <pt x="510" y="449" on="0"/>
        <pt x="503" y="449" on="1"/>
        <pt x="52" y="449" on="1"/>
        <pt x="52" y="580" on="1"/>
      </contour>
      <contour>
        <pt x="510" y="131" on="1"/>
        <pt x="510" y="224" on="1"/>
        <pt x="183" y="224" on="1"/>
        <pt x="183" y="138" on="1"/>
        <pt x="183" y="131" on="0"/>
        <pt x="190" y="131" on="1"/>
      </contour>
      <contour>
        <pt x="288" y="677" on="1"/>
        <pt x="334" y="860" on="1"/>
        <pt x="467" y="860" on="1"/>
        <pt x="421" y="677" on="1"/>
      </contour>
    </TTGlyph>
    <TTGlyph name="acircumflex" xMin="52" yMin="0" xMax="641" yMax="840">
      <contour>
        <pt x="503" y="580" on="1"/>
        <pt x="560" y="580" on="0"/>
        <pt x="641" y="499" on="0"/>
        <pt x="641" y="442" on="1"/>
        <pt x="641" y="0" on="1"/>
        <pt x="190" y="0" on="1"/>
        <pt x="133" y="0" on="0"/>
        <pt x="52" y="81" on="0"/>
        <pt x="52" y="138" on="1"/>
        <pt x="52" y="356" on="1"/>
        <pt x="510" y="356" on="1"/>
        <pt x="510" y="442" on="1"/>
        <pt x="510" y="449" on="0"/>
        <pt x="503" y="449" on="1"/>
        <pt x="52" y="449" on="1"/>
        <pt x="52" y="580" on="1"/>
      </contour>
      <contour>
        <pt x="510" y="131" on="1"/>
        <pt x="510" y="224" on="1"/>
        <pt x="183" y="224" on="1"/>
        <pt x="183" y="138" on="1"/>
        <pt x="183" y="131" on="0"/>
        <pt x="190" y="131" on="1"/>
      </contour>
      <contour>
        <pt x="344" y="677" on="1"/>
        <pt x="240" y="677" on="1"/>
        <pt x="338" y="840" on="1"/>
        <pt x="425" y="840" on="1"/>
        <pt x="523" y="677" on="1"/>
        <pt x="417" y="677" on="1"/>
        <pt x="380" y="736" on="1"/>
        <pt x="374" y="727" on="0"/>
        <pt x="350" y="686" on="0"/>
      </contour>
    </TTGlyph>
    <TTGlyph name="acute" xMin="33" yMin="786" xMax="212" yMax="969">
      <contour>
        <pt x="33" y="786" on="1"/>
        <pt x="79" y="969" on="1"/>
        <pt x="212" y="969" on="1"/>
        <pt x="166" y="786" on="1"/>
      </contour>
    </TTGlyph>
    <TTGlyph name="adieresis" xMin="52" yMin="0" xMax="641" yMax="809">
      <contour>
        <pt x="503" y="580" on="1"/>
        <pt x="560" y="580" on="0"/>
        <pt x="641" y="499" on="0"/>
        <pt x="641" y="442" on="1"/>
        <pt x="641" y="0" on="1"/>
        <pt x="190" y="0" on="1"/>
        <pt x="133" y="0" on="0"/>
        <pt x="52" y="81" on="0"/>
        <pt x="52" y="138" on="1"/>
        <pt x="52" y="356" on="1"/>
        <pt x="510" y="356" on="1"/>
        <pt x="510" y="442" on="1"/>
        <pt x="510" y="449" on="0"/>
        <pt x="503" y="449" on="1"/>
        <pt x="52" y="449" on="1"/>
        <pt x="52" y="580" on="1"/>
      </contour>
      <contour>
        <pt x="510" y="131" on="1"/>
        <pt x="510" y="224" on="1"/>
        <pt x="183" y="224" on="1"/>
        <pt x="183" y="138" on="1"/>
        <pt x="183" y="131" on="0"/>
        <pt x="190" y="131" on="1"/>
      </contour>
      <contour>
        <pt x="526" y="809" on="1"/>
        <pt x="526" y="677" on="1"/>
        <pt x="394" y="677" on="1"/>
        <pt x="394" y="809" on="1"/>
      </contour>
      <contour>
        <pt x="354" y="809" on="1"/>
        <pt x="354" y="677" on="1"/>
        <pt x="223" y="677" on="1"/>
        <pt x="223" y="809" on="1"/>
      </contour>
    </TTGlyph>
    <TTGlyph name="ae" xMin="53" yMin="0" xMax="1100" yMax="580">
      <contour>
        <pt x="963" y="580" on="1"/>
        <pt x="1020" y="580" on="0"/>
        <pt x="1100" y="499" on="0"/>
        <pt x="1100" y="442" on="1"/>
        <pt x="1100" y="224" on="1"/>
        <pt x="642" y="224" on="1"/>
        <pt x="642" y="136" on="1"/>
        <pt x="642" y="131" on="0"/>
        <pt x="649" y="131" on="1"/>
        <pt x="1100" y="131" on="1"/>
        <pt x="1100" y="0" on="1"/>
        <pt x="190" y="0" on="1"/>
        <pt x="133" y="0" on="0"/>
        <pt x="53" y="81" on="0"/>
        <pt x="53" y="138" on="1"/>
        <pt x="53" y="356" on="1"/>
        <pt x="511" y="356" on="1"/>
        <pt x="511" y="442" on="1"/>
        <pt x="511" y="449" on="0"/>
        <pt x="504" y="449" on="1"/>
        <pt x="53" y="449" on="1"/>
        <pt x="53" y="580" on="1"/>
      </contour>
      <contour>
        <pt x="511" y="131" on="1"/>
        <pt x="511" y="224" on="1"/>
        <pt x="184" y="224" on="1"/>
        <pt x="184" y="138" on="1"/>
        <pt x="184" y="131" on="0"/>
        <pt x="190" y="131" on="1"/>
      </contour>
      <contour>
        <pt x="642" y="356" on="1"/>
        <pt x="969" y="356" on="1"/>
        <pt x="969" y="442" on="1"/>
        <pt x="969" y="449" on="0"/>
        <pt x="963" y="449" on="1"/>
        <pt x="649" y="449" on="1"/>
        <pt x="642" y="449" on="0"/>
        <pt x="642" y="442" on="1"/>
      </contour>
    </TTGlyph>
    <TTGlyph name="agrave" xMin="52" yMin="0" xMax="641" yMax="860">
      <contour>
        <pt x="503" y="580" on="1"/>
        <pt x="560" y="580" on="0"/>
        <pt x="641" y="499" on="0"/>
        <pt x="641" y="442" on="1"/>
        <pt x="641" y="0" on="1"/>
        <pt x="190" y="0" on="1"/>
        <pt x="133" y="0" on="0"/>
        <pt x="52" y="81" on="0"/>
        <pt x="52" y="138" on="1"/>
        <pt x="52" y="356" on="1"/>
        <pt x="510" y="356" on="1"/>
        <pt x="510" y="442" on="1"/>
        <pt x="510" y="449" on="0"/>
        <pt x="503" y="449" on="1"/>
        <pt x="52" y="449" on="1"/>
        <pt x="52" y="580" on="1"/>
      </contour>
      <contour>
        <pt x="510" y="131" on="1"/>
        <pt x="510" y="224" on="1"/>
        <pt x="183" y="224" on="1"/>
        <pt x="183" y="138" on="1"/>
        <pt x="183" y="131" on="0"/>
        <pt x="190" y="131" on="1"/>
      </contour>
      <contour>
        <pt x="421" y="860" on="1"/>
        <pt x="467" y="677" on="1"/>
        <pt x="334" y="677" on="1"/>
        <pt x="288" y="860" on="1"/>
      </contour>
    </TTGlyph>
    <TTGlyph name="ampersand" xMin="53" yMin="-8" xMax="887" yMax="720">
      <contour>
        <pt x="766" y="195" on="1"/>
        <pt x="887" y="124" on="1"/>
        <pt x="887" y="-8" on="1"/>
        <pt x="749" y="70" on="1"/>
        <pt x="732" y="38" on="0"/>
        <pt x="667" y="0" on="0"/>
        <pt x="628" y="0" on="1"/>
        <pt x="191" y="0" on="1"/>
        <pt x="134" y="0" on="0"/>
        <pt x="53" y="81" on="0"/>
        <pt x="53" y="138" on="1"/>
        <pt x="53" y="332" on="1"/>
        <pt x="53" y="354" on="0"/>
        <pt x="80" y="404" on="0"/>
        <pt x="103" y="414" on="1"/>
        <pt x="91" y="435" on="0"/>
        <pt x="91" y="476" on="1"/>
        <pt x="91" y="582" on="1"/>
        <pt x="91" y="639" on="0"/>
        <pt x="172" y="720" on="0"/>
        <pt x="229" y="720" on="1"/>
        <pt x="600" y="720" on="1"/>
        <pt x="650" y="720" on="0"/>
        <pt x="729" y="655" on="0"/>
        <pt x="737" y="606" on="1"/>
        <pt x="737" y="521" on="1"/>
        <pt x="606" y="521" on="1"/>
        <pt x="606" y="581" on="1"/>
        <pt x="606" y="588" on="0"/>
        <pt x="600" y="588" on="1"/>
        <pt x="229" y="588" on="1"/>
        <pt x="222" y="588" on="0"/>
        <pt x="222" y="581" on="1"/>
        <pt x="222" y="457" on="1"/>
        <pt x="635" y="249" on="1"/>
        <pt x="635" y="358" on="1"/>
        <pt x="766" y="358" on="1"/>
      </contour>
      <contour>
        <pt x="191" y="131" on="1"/>
        <pt x="608" y="131" on="1"/>
        <pt x="198" y="338" on="1"/>
        <pt x="191" y="338" on="1"/>
        <pt x="184" y="338" on="0"/>
        <pt x="184" y="332" on="1"/>
        <pt x="184" y="138" on="1"/>
        <pt x="184" y="131" on="0"/>
      </contour>
    </TTGlyph>
    <TTGlyph name="aring" xMin="52" yMin="0" xMax="641" yMax="858">
      <contour>
        <pt x="503" y="580" on="1"/>
        <pt x="560" y="580" on="0"/>
        <pt x="641" y="499" on="0"/>
        <pt x="641" y="442" on="1"/>
        <pt x="641" y="0" on="1"/>
        <pt x="190" y="0" on="1"/>
        <pt x="133" y="0" on="0"/>
        <pt x="52" y="81" on="0"/>
        <pt x="52" y="138" on="1"/>
        <pt x="52" y="356" on="1"/>
        <pt x="510" y="356" on="1"/>
        <pt x="510" y="442" on="1"/>
        <pt x="510" y="449" on="0"/>
        <pt x="503" y="449" on="1"/>
        <pt x="52" y="449" on="1"/>
        <pt x="52" y="580" on="1"/>
      </contour>
      <contour>
        <pt x="510" y="131" on="1"/>
        <pt x="510" y="224" on="1"/>
        <pt x="183" y="224" on="1"/>
        <pt x="183" y="138" on="1"/>
        <pt x="183" y="131" on="0"/>
        <pt x="190" y="131" on="1"/>
      </contour>
      <contour>
        <pt x="332" y="858" on="1"/>
        <pt x="386" y="858" on="1"/>
        <pt x="413" y="858" on="0"/>
        <pt x="451" y="819" on="0"/>
        <pt x="451" y="793" on="1"/>
        <pt x="451" y="742" on="1"/>
        <pt x="451" y="716" on="0"/>
        <pt x="413" y="677" on="0"/>
        <pt x="386" y="677" on="1"/>
        <pt x="332" y="677" on="1"/>
        <pt x="305" y="677" on="0"/>
        <pt x="267" y="716" on="0"/>
        <pt x="267" y="742" on="1"/>
        <pt x="267" y="793" on="1"/>
        <pt x="267" y="819" on="0"/>
        <pt x="305" y="858" on="0"/>
      </contour>
      <contour>
        <pt x="333" y="791" on="1"/>
        <pt x="333" y="744" on="1"/>
        <pt x="385" y="744" on="1"/>
        <pt x="385" y="791" on="1"/>
      </contour>
    </TTGlyph>
    <TTGlyph name="asciitilde" xMin="24" yMin="221" xMax="388" yMax="377">
      <contour>
        <pt x="301" y="312" on="1"/>
        <pt x="349" y="312" on="0"/>
        <pt x="388" y="338" on="1"/>
        <pt x="388" y="242" on="1"/>
        <pt x="338" y="221" on="0"/>
        <pt x="299" y="221" on="1"/>
        <pt x="263" y="221" on="0"/>
        <pt x="140" y="285" on="0"/>
        <pt x="103" y="285" on="1"/>
        <pt x="56" y="285" on="0"/>
        <pt x="24" y="254" on="1"/>
        <pt x="24" y="358" on="1"/>
        <pt x="67" y="377" on="0"/>
        <pt x="109" y="377" on="1"/>
        <pt x="147" y="377" on="0"/>
        <pt x="269" y="317" on="0"/>
      </contour>
    </TTGlyph>
    <TTGlyph name="asterisk" xMin="25" yMin="287" xMax="480" yMax="719">
      <contour>
        <pt x="439" y="632" on="1"/>
        <pt x="480" y="506" on="1"/>
        <pt x="358" y="467" on="1"/>
        <pt x="434" y="364" on="1"/>
        <pt x="328" y="287" on="1"/>
        <pt x="251" y="390" on="1"/>
        <pt x="177" y="287" on="1"/>
        <pt x="71" y="364" on="1"/>
        <pt x="146" y="467" on="1"/>
        <pt x="25" y="506" on="1"/>
        <pt x="65" y="632" on="1"/>
        <pt x="186" y="591" on="1"/>
        <pt x="186" y="719" on="1"/>
        <pt x="318" y="719" on="1"/>
        <pt x="318" y="592" on="1"/>
      </contour>
    </TTGlyph>
    <TTGlyph name="at" xMin="57" yMin="0" xMax="770" yMax="720">
      <contour>
        <pt x="381" y="529" on="1"/>
        <pt x="447" y="529" on="1"/>
        <pt x="504" y="529" on="0"/>
        <pt x="584" y="449" on="0"/>
        <pt x="584" y="392" on="1"/>
        <pt x="584" y="310" on="1"/>
        <pt x="639" y="310" on="1"/>
        <pt x="639" y="582" on="1"/>
        <pt x="639" y="589" on="0"/>
        <pt x="632" y="589" on="1"/>
        <pt x="195" y="589" on="1"/>
        <pt x="188" y="589" on="0"/>
        <pt x="188" y="582" on="1"/>
        <pt x="188" y="138" on="1"/>
        <pt x="188" y="131" on="0"/>
        <pt x="195" y="131" on="1"/>
        <pt x="770" y="131" on="1"/>
        <pt x="770" y="0" on="1"/>
        <pt x="195" y="0" on="1"/>
        <pt x="138" y="0" on="0"/>
        <pt x="57" y="81" on="0"/>
        <pt x="57" y="138" on="1"/>
        <pt x="57" y="582" on="1"/>
        <pt x="57" y="639" on="0"/>
        <pt x="138" y="720" on="0"/>
        <pt x="195" y="720" on="1"/>
        <pt x="632" y="720" on="1"/>
        <pt x="689" y="720" on="0"/>
        <pt x="770" y="639" on="0"/>
        <pt x="770" y="582" on="1"/>
        <pt x="770" y="198" on="1"/>
        <pt x="381" y="198" on="1"/>
        <pt x="324" y="198" on="0"/>
        <pt x="243" y="278" on="0"/>
        <pt x="243" y="336" on="1"/>
        <pt x="243" y="392" on="1"/>
        <pt x="243" y="449" on="0"/>
        <pt x="324" y="529" on="0"/>
      </contour>
      <contour>
        <pt x="352" y="310" on="1"/>
        <pt x="482" y="310" on="1"/>
        <pt x="482" y="421" on="1"/>
        <pt x="482" y="427" on="0"/>
        <pt x="476" y="427" on="1"/>
        <pt x="352" y="427" on="1"/>
        <pt x="345" y="427" on="0"/>
        <pt x="345" y="421" on="1"/>
        <pt x="345" y="317" on="1"/>
        <pt x="345" y="310" on="0"/>
      </contour>
    </TTGlyph>
    <TTGlyph name="atilde" xMin="52" yMin="0" xMax="641" yMax="836">
      <contour>
        <pt x="503" y="580" on="1"/>
        <pt x="560" y="580" on="0"/>
        <pt x="641" y="499" on="0"/>
        <pt x="641" y="442" on="1"/>
        <pt x="641" y="0" on="1"/>
        <pt x="190" y="0" on="1"/>
        <pt x="133" y="0" on="0"/>
        <pt x="52" y="81" on="0"/>
        <pt x="52" y="138" on="1"/>
        <pt x="52" y="356" on="1"/>
        <pt x="510" y="356" on="1"/>
        <pt x="510" y="442" on="1"/>
        <pt x="510" y="449" on="0"/>
        <pt x="503" y="449" on="1"/>
        <pt x="52" y="449" on="1"/>
        <pt x="52" y="580" on="1"/>
      </contour>
      <contour>
        <pt x="510" y="131" on="1"/>
        <pt x="510" y="224" on="1"/>
        <pt x="183" y="224" on="1"/>
        <pt x="183" y="138" on="1"/>
        <pt x="183" y="131" on="0"/>
        <pt x="190" y="131" on="1"/>
      </contour>
      <contour>
        <pt x="463" y="771" on="1"/>
        <pt x="510" y="771" on="0"/>
        <pt x="550" y="798" on="1"/>
        <pt x="550" y="702" on="1"/>
        <pt x="498" y="680" on="0"/>
        <pt x="461" y="680" on="1"/>
        <pt x="425" y="680" on="0"/>
        <pt x="305" y="745" on="0"/>
        <pt x="271" y="745" on="1"/>
        <pt x="259" y="745" on="1"/>
        <pt x="215" y="745" on="0"/>
        <pt x="186" y="707" on="1"/>
        <pt x="186" y="818" on="1"/>
        <pt x="231" y="836" on="0"/>
        <pt x="271" y="836" on="1"/>
        <pt x="310" y="836" on="0"/>
        <pt x="431" y="775" on="0"/>
      </contour>
    </TTGlyph>
    <TTGlyph name="b" xMin="54" yMin="0" xMax="643" yMax="770">
      <contour>
        <pt x="505" y="580" on="1"/>
        <pt x="562" y="580" on="0"/>
        <pt x="643" y="499" on="0"/>
        <pt x="643" y="442" on="1"/>
        <pt x="643" y="138" on="1"/>
        <pt x="643" y="81" on="0"/>
        <pt x="562" y="0" on="0"/>
        <pt x="505" y="0" on="1"/>
        <pt x="54" y="0" on="1"/>
        <pt x="54" y="770" on="1"/>
        <pt x="185" y="770" on="1"/>
        <pt x="185" y="580" on="1"/>
      </contour>
      <contour>
        <pt x="512" y="138" on="1"/>
        <pt x="512" y="442" on="1"/>
        <pt x="512" y="449" on="0"/>
        <pt x="505" y="449" on="1"/>
        <pt x="192" y="449" on="1"/>
        <pt x="185" y="449" on="0"/>
        <pt x="185" y="442" on="1"/>
        <pt x="185" y="138" on="1"/>
        <pt x="185" y="131" on="0"/>
        <pt x="192" y="131" on="1"/>
        <pt x="505" y="131" on="1"/>
        <pt x="512" y="131" on="0"/>
      </contour>
    </TTGlyph>
    <TTGlyph name="b.sc" xMin="54" yMin="0" xMax="653" yMax="581">
      <contour>
        <pt x="624" y="443" on="1"/>
        <pt x="624" y="359" on="1"/>
        <pt x="624" y="332" on="0"/>
        <pt x="615" y="309" on="1"/>
        <pt x="653" y="269" on="0"/>
        <pt x="653" y="215" on="1"/>
        <pt x="653" y="138" on="1"/>
        <pt x="653" y="81" on="0"/>
        <pt x="572" y="0" on="0"/>
        <pt x="515" y="0" on="1"/>
        <pt x="54" y="0" on="1"/>
        <pt x="54" y="581" on="1"/>
        <pt x="486" y="581" on="1"/>
        <pt x="543" y="581" on="0"/>
        <pt x="624" y="500" on="0"/>
      </contour>
      <contour>
        <pt x="486" y="450" on="1"/>
        <pt x="192" y="450" on="1"/>
        <pt x="185" y="450" on="0"/>
        <pt x="185" y="443" on="1"/>
        <pt x="185" y="359" on="1"/>
        <pt x="185" y="353" on="0"/>
        <pt x="192" y="353" on="1"/>
        <pt x="486" y="353" on="1"/>
        <pt x="493" y="353" on="0"/>
        <pt x="493" y="359" on="1"/>
        <pt x="493" y="443" on="1"/>
        <pt x="493" y="450" on="0"/>
      </contour>
      <contour>
        <pt x="522" y="138" on="1"/>
        <pt x="522" y="215" on="1"/>
        <pt x="522" y="222" on="0"/>
        <pt x="515" y="222" on="1"/>
        <pt x="192" y="222" on="1"/>
        <pt x="185" y="222" on="0"/>
        <pt x="185" y="215" on="1"/>
        <pt x="185" y="138" on="1"/>
        <pt x="185" y="131" on="0"/>
        <pt x="192" y="131" on="1"/>
        <pt x="515" y="131" on="1"/>
        <pt x="522" y="131" on="0"/>
      </contour>
    </TTGlyph>
    <TTGlyph name="backslash" xMin="5" yMin="0" xMax="518" yMax="720">
      <contour>
        <pt x="5" y="720" on="1"/>
        <pt x="40" y="720" on="1"/>
        <pt x="518" y="141" on="1"/>
        <pt x="518" y="0" on="1"/>
        <pt x="483" y="0" on="1"/>
        <pt x="5" y="579" on="1"/>
      </contour>
    </TTGlyph>
    <TTGlyph name="bar" xMin="54" yMin="-104" xMax="185" yMax="816">
      <contour>
        <pt x="54" y="-104" on="1"/>
        <pt x="54" y="816" on="1"/>
        <pt x="185" y="816" on="1"/>
        <pt x="185" y="-104" on="1"/>
      </contour>
    </TTGlyph>
    <TTGlyph name="braceleft" xMin="23" yMin="0" xMax="257" yMax="720">
      <contour>
        <pt x="196" y="318" on="1"/>
        <pt x="196" y="138" on="1"/>
        <pt x="196" y="131" on="0"/>
        <pt x="203" y="131" on="1"/>
        <pt x="257" y="131" on="1"/>
        <pt x="257" y="0" on="1"/>
        <pt x="203" y="0" on="1"/>
        <pt x="145" y="0" on="0"/>
        <pt x="65" y="81" on="0"/>
        <pt x="65" y="138" on="1"/>
        <pt x="65" y="281" on="1"/>
        <pt x="58" y="285" on="0"/>
        <pt x="28" y="304" on="0"/>
        <pt x="23" y="306" on="1"/>
        <pt x="23" y="425" on="1"/>
        <pt x="65" y="448" on="1"/>
        <pt x="65" y="582" on="1"/>
        <pt x="65" y="639" on="0"/>
        <pt x="145" y="720" on="0"/>
        <pt x="203" y="720" on="1"/>
        <pt x="257" y="720" on="1"/>
        <pt x="257" y="589" on="1"/>
        <pt x="203" y="589" on="1"/>
        <pt x="196" y="589" on="0"/>
        <pt x="196" y="582" on="1"/>
        <pt x="196" y="411" on="1"/>
        <pt x="139" y="365" on="1"/>
      </contour>
    </TTGlyph>
    <TTGlyph name="braceright" xMin="51" yMin="0" xMax="285" yMax="720">
      <contour>
        <pt x="112" y="138" on="1"/>
        <pt x="112" y="318" on="1"/>
        <pt x="169" y="365" on="1"/>
        <pt x="112" y="411" on="1"/>
        <pt x="112" y="582" on="1"/>
        <pt x="112" y="589" on="0"/>
        <pt x="105" y="589" on="1"/>
        <pt x="51" y="589" on="1"/>
        <pt x="51" y="720" on="1"/>
        <pt x="105" y="720" on="1"/>
        <pt x="162" y="720" on="0"/>
        <pt x="243" y="639" on="0"/>
        <pt x="243" y="582" on="1"/>
        <pt x="243" y="453" on="1"/>
        <pt x="250" y="449" on="0"/>
        <pt x="279" y="427" on="0"/>
        <pt x="285" y="424" on="1"/>
        <pt x="285" y="306" on="1"/>
        <pt x="243" y="281" on="1"/>
        <pt x="243" y="138" on="1"/>
        <pt x="243" y="81" on="0"/>
        <pt x="162" y="0" on="0"/>
        <pt x="105" y="0" on="1"/>
        <pt x="51" y="0" on="1"/>
        <pt x="51" y="131" on="1"/>
        <pt x="105" y="131" on="1"/>
        <pt x="112" y="131" on="0"/>
      </contour>
    </TTGlyph>
    <TTGlyph name="bracketleft" xMin="54" yMin="0" xMax="246" yMax="720">
      <contour>
        <pt x="54" y="0" on="1"/>
        <pt x="54" y="720" on="1"/>
        <pt x="246" y="720" on="1"/>
        <pt x="246" y="589" on="1"/>
        <pt x="185" y="589" on="1"/>
        <pt x="185" y="131" on="1"/>
        <pt x="246" y="131" on="1"/>
        <pt x="246" y="0" on="1"/>
      </contour>
    </TTGlyph>
    <TTGlyph name="bracketright" xMin="51" yMin="0" xMax="243" yMax="720">
      <contour>
        <pt x="51" y="589" on="1"/>
        <pt x="51" y="720" on="1"/>
        <pt x="243" y="720" on="1"/>
        <pt x="243" y="0" on="1"/>
        <pt x="51" y="0" on="1"/>
        <pt x="51" y="131" on="1"/>
        <pt x="111" y="131" on="1"/>
        <pt x="111" y="589" on="1"/>
      </contour>
    </TTGlyph>
    <TTGlyph name="breve" xMin="40" yMin="786" xMax="265" yMax="895">
      <contour>
        <pt x="189" y="895" on="1"/>
        <pt x="265" y="895" on="1"/>
        <pt x="265" y="874" on="1"/>
        <pt x="265" y="837" on="0"/>
        <pt x="215" y="786" on="0"/>
        <pt x="177" y="786" on="1"/>
        <pt x="128" y="786" on="1"/>
        <pt x="90" y="786" on="0"/>
        <pt x="40" y="837" on="0"/>
        <pt x="40" y="874" on="1"/>
        <pt x="40" y="895" on="1"/>
        <pt x="117" y="895" on="1"/>
        <pt x="117" y="864" on="1"/>
        <pt x="189" y="864" on="1"/>
      </contour>
    </TTGlyph>
    <TTGlyph name="bullet" xMin="118" yMin="293" xMax="249" yMax="420">
      <contour>
        <pt x="172" y="420" on="1"/>
        <pt x="194" y="420" on="1"/>
        <pt x="249" y="420" on="0"/>
        <pt x="249" y="366" on="1"/>
        <pt x="249" y="347" on="1"/>
        <pt x="249" y="293" on="0"/>
        <pt x="194" y="293" on="1"/>
        <pt x="172" y="293" on="1"/>
        <pt x="118" y="293" on="0"/>
        <pt x="118" y="347" on="1"/>
        <pt x="118" y="366" on="1"/>
        <pt x="118" y="420" on="0"/>
      </contour>
    </TTGlyph>
    <TTGlyph name="c" xMin="51" yMin="0" xMax="640" yMax="580">
      <contour>
        <pt x="189" y="131" on="1"/>
        <pt x="640" y="131" on="1"/>
        <pt x="640" y="0" on="1"/>
        <pt x="189" y="0" on="1"/>
        <pt x="132" y="0" on="0"/>
        <pt x="51" y="81" on="0"/>
        <pt x="51" y="138" on="1"/>
        <pt x="51" y="442" on="1"/>
        <pt x="51" y="499" on="0"/>
        <pt x="132" y="580" on="0"/>
        <pt x="189" y="580" on="1"/>
        <pt x="638" y="580" on="1"/>
        <pt x="638" y="449" on="1"/>
        <pt x="189" y="449" on="1"/>
        <pt x="182" y="449" on="0"/>
        <pt x="182" y="442" on="1"/>
        <pt x="182" y="138" on="1"/>
        <pt x="182" y="131" on="0"/>
      </contour>
    </TTGlyph>
    <TTGlyph name="c.sc" xMin="51" yMin="0" xMax="638" yMax="581">
      <contour>
        <pt x="638" y="450" on="1"/>
        <pt x="189" y="450" on="1"/>
        <pt x="182" y="450" on="0"/>
        <pt x="182" y="443" on="1"/>
        <pt x="182" y="138" on="1"/>
        <pt x="182" y="131" on="0"/>
        <pt x="189" y="131" on="1"/>
        <pt x="638" y="131" on="1"/>
        <pt x="638" y="0" on="1"/>
        <pt x="189" y="0" on="1"/>
        <pt x="132" y="0" on="0"/>
        <pt x="51" y="81" on="0"/>
        <pt x="51" y="138" on="1"/>
        <pt x="51" y="443" on="1"/>
        <pt x="51" y="500" on="0"/>
        <pt x="132" y="581" on="0"/>
        <pt x="189" y="581" on="1"/>
        <pt x="638" y="581" on="1"/>
      </contour>
    </TTGlyph>
    <TTGlyph name="caron" xMin="27" yMin="785" xMax="310" yMax="948">
      <contour>
        <pt x="27" y="948" on="1"/>
        <pt x="130" y="948" on="1"/>
        <pt x="167" y="889" on="1"/>
        <pt x="204" y="948" on="1"/>
        <pt x="310" y="948" on="1"/>
        <pt x="212" y="785" on="1"/>
        <pt x="125" y="785" on="1"/>
      </contour>
    </TTGlyph>
    <TTGlyph name="ccedilla" xMin="51" yMin="-154" xMax="640" yMax="580">
      <contour>
        <pt x="189" y="131" on="1"/>
        <pt x="640" y="131" on="1"/>
        <pt x="640" y="0" on="1"/>
        <pt x="433" y="0" on="1"/>
        <pt x="395" y="-154" on="1"/>
        <pt x="262" y="-154" on="1"/>
        <pt x="300" y="0" on="1"/>
        <pt x="189" y="0" on="1"/>
        <pt x="132" y="0" on="0"/>
        <pt x="51" y="81" on="0"/>
        <pt x="51" y="138" on="1"/>
        <pt x="51" y="442" on="1"/>
        <pt x="51" y="499" on="0"/>
        <pt x="132" y="580" on="0"/>
        <pt x="189" y="580" on="1"/>
        <pt x="638" y="580" on="1"/>
        <pt x="638" y="449" on="1"/>
        <pt x="189" y="449" on="1"/>
        <pt x="182" y="449" on="0"/>
        <pt x="182" y="442" on="1"/>
        <pt x="182" y="138" on="1"/>
        <pt x="182" y="131" on="0"/>
      </contour>
    </TTGlyph>
    <TTGlyph name="cedilla" xMin="33" yMin="-154" xMax="212" yMax="29">
      <contour>
        <pt x="33" y="-154" on="1"/>
        <pt x="79" y="29" on="1"/>
        <pt x="212" y="29" on="1"/>
        <pt x="166" y="-154" on="1"/>
      </contour>
    </TTGlyph>
    <TTGlyph name="cent" xMin="33" yMin="-104" xMax="621" yMax="711">
      <contour>
        <pt x="621" y="458" on="1"/>
        <pt x="424" y="458" on="1"/>
        <pt x="424" y="131" on="1"/>
        <pt x="621" y="131" on="1"/>
        <pt x="621" y="0" on="1"/>
        <pt x="424" y="0" on="1"/>
        <pt x="424" y="-104" on="1"/>
        <pt x="292" y="-104" on="1"/>
        <pt x="292" y="0" on="1"/>
        <pt x="171" y="0" on="1"/>
        <pt x="114" y="0" on="0"/>
        <pt x="33" y="81" on="0"/>
        <pt x="33" y="138" on="1"/>
        <pt x="33" y="452" on="1"/>
        <pt x="33" y="509" on="0"/>
        <pt x="114" y="590" on="0"/>
        <pt x="171" y="590" on="1"/>
        <pt x="292" y="590" on="1"/>
        <pt x="292" y="711" on="1"/>
        <pt x="424" y="711" on="1"/>
        <pt x="424" y="590" on="1"/>
        <pt x="621" y="590" on="1"/>
      </contour>
      <contour>
        <pt x="292" y="131" on="1"/>
        <pt x="292" y="458" on="1"/>
        <pt x="171" y="458" on="1"/>
        <pt x="164" y="458" on="0"/>
        <pt x="164" y="452" on="1"/>
        <pt x="164" y="138" on="1"/>
        <pt x="164" y="131" on="0"/>
        <pt x="171" y="131" on="1"/>
      </contour>
    </TTGlyph>
    <TTGlyph name="circumflex" xMin="28" yMin="785" xMax="311" yMax="948">
      <contour>
        <pt x="132" y="785" on="1"/>
        <pt x="28" y="785" on="1"/>
        <pt x="126" y="948" on="1"/>
        <pt x="213" y="948" on="1"/>
        <pt x="311" y="785" on="1"/>
        <pt x="205" y="785" on="1"/>
        <pt x="168" y="844" on="1"/>
        <pt x="162" y="835" on="0"/>
        <pt x="138" y="794" on="0"/>
      </contour>
    </TTGlyph>
    <TTGlyph name="colon" xMin="54" yMin="0" xMax="185" yMax="588">
      <contour>
        <pt x="54" y="131" on="1"/>
        <pt x="185" y="131" on="1"/>
        <pt x="185" y="0" on="1"/>
        <pt x="54" y="0" on="1"/>
      </contour>
      <contour>
        <pt x="185" y="588" on="1"/>
        <pt x="185" y="456" on="1"/>
        <pt x="54" y="456" on="1"/>
        <pt x="54" y="588" on="1"/>
      </contour>
    </TTGlyph>
    <TTGlyph name="comma" xMin="54" yMin="-137" xMax="185" yMax="119">
      <contour>
        <pt x="54" y="119" on="1"/>
        <pt x="185" y="119" on="1"/>
        <pt x="185" y="2" on="1"/>
        <pt x="185" y="-49" on="0"/>
        <pt x="110" y="-127" on="0"/>
        <pt x="54" y="-137" on="1"/>
      </contour>
    </TTGlyph>
    <TTGlyph name="d" xMin="23" yMin="0" xMax="613" yMax="770">
      <contour>
        <pt x="482" y="770" on="1"/>
        <pt x="613" y="770" on="1"/>
        <pt x="613" y="0" on="1"/>
        <pt x="161" y="0" on="1"/>
        <pt x="104" y="0" on="0"/>
        <pt x="23" y="81" on="0"/>
        <pt x="23" y="138" on="1"/>
        <pt x="23" y="442" on="1"/>
        <pt x="23" y="499" on="0"/>
        <pt x="104" y="580" on="0"/>
        <pt x="161" y="580" on="1"/>
        <pt x="482" y="580" on="1"/>
      </contour>
      <contour>
        <pt x="161" y="131" on="1"/>
        <pt x="475" y="131" on="1"/>
        <pt x="482" y="131" on="0"/>
        <pt x="482" y="138" on="1"/>
        <pt x="482" y="442" on="1"/>
        <pt x="482" y="449" on="0"/>
        <pt x="475" y="449" on="1"/>
        <pt x="161" y="449" on="1"/>
        <pt x="155" y="449" on="0"/>
        <pt x="155" y="442" on="1"/>
        <pt x="155" y="138" on="1"/>
        <pt x="155" y="131" on="0"/>
      </contour>
    </TTGlyph>
    <TTGlyph name="d.sc" xMin="54" yMin="0" xMax="653" yMax="581">
      <contour>
        <pt x="54" y="581" on="1"/>
        <pt x="515" y="581" on="1"/>
        <pt x="572" y="581" on="0"/>
        <pt x="653" y="500" on="0"/>
        <pt x="653" y="443" on="1"/>
        <pt x="653" y="138" on="1"/>
        <pt x="653" y="81" on="0"/>
        <pt x="572" y="0" on="0"/>
        <pt x="515" y="0" on="1"/>
        <pt x="54" y="0" on="1"/>
      </contour>
      <contour>
        <pt x="522" y="138" on="1"/>
        <pt x="522" y="443" on="1"/>
        <pt x="522" y="450" on="0"/>
        <pt x="515" y="450" on="1"/>
        <pt x="192" y="450" on="1"/>
        <pt x="185" y="450" on="0"/>
        <pt x="185" y="443" on="1"/>
        <pt x="185" y="138" on="1"/>
        <pt x="185" y="131" on="0"/>
        <pt x="192" y="131" on="1"/>
        <pt x="515" y="131" on="1"/>
        <pt x="522" y="131" on="0"/>
      </contour>
    </TTGlyph>
    <TTGlyph name="degree" xMin="45" yMin="361" xMax="406" yMax="713">
      <contour>
        <pt x="183" y="713" on="1"/>
        <pt x="268" y="713" on="1"/>
        <pt x="325" y="713" on="0"/>
        <pt x="406" y="632" on="0"/>
        <pt x="406" y="575" on="1"/>
        <pt x="406" y="499" on="1"/>
        <pt x="406" y="442" on="0"/>
        <pt x="325" y="361" on="0"/>
        <pt x="268" y="361" on="1"/>
        <pt x="183" y="361" on="1"/>
        <pt x="126" y="361" on="0"/>
        <pt x="45" y="442" on="0"/>
        <pt x="45" y="499" on="1"/>
        <pt x="45" y="575" on="1"/>
        <pt x="45" y="632" on="0"/>
        <pt x="126" y="713" on="0"/>
      </contour>
      <contour>
        <pt x="164" y="474" on="1"/>
        <pt x="287" y="474" on="1"/>
        <pt x="294" y="474" on="0"/>
        <pt x="294" y="480" on="1"/>
        <pt x="294" y="594" on="1"/>
        <pt x="294" y="601" on="0"/>
        <pt x="287" y="601" on="1"/>
        <pt x="164" y="601" on="1"/>
        <pt x="157" y="601" on="0"/>
        <pt x="157" y="594" on="1"/>
        <pt x="157" y="480" on="1"/>
        <pt x="157" y="474" on="0"/>
      </contour>
    </TTGlyph>
    <TTGlyph name="dieresis" xMin="54" yMin="786" xMax="357" yMax="918">
      <contour>
        <pt x="357" y="918" on="1"/>
        <pt x="357" y="786" on="1"/>
        <pt x="225" y="786" on="1"/>
        <pt x="225" y="918" on="1"/>
      </contour>
      <contour>
        <pt x="185" y="918" on="1"/>
        <pt x="185" y="786" on="1"/>
        <pt x="54" y="786" on="1"/>
        <pt x="54" y="918" on="1"/>
      </contour>
    </TTGlyph>
    <TTGlyph name="divide" xMin="18" yMin="1" xMax="503" yMax="589">
      <contour>
        <pt x="503" y="361" on="1"/>
        <pt x="503" y="230" on="1"/>
        <pt x="18" y="230" on="1"/>
        <pt x="18" y="361" on="1"/>
      </contour>
      <contour>
        <pt x="201" y="132" on="1"/>
        <pt x="332" y="132" on="1"/>
        <pt x="332" y="1" on="1"/>
        <pt x="201" y="1" on="1"/>
      </contour>
      <contour>
        <pt x="332" y="589" on="1"/>
        <pt x="332" y="457" on="1"/>
        <pt x="201" y="457" on="1"/>
        <pt x="201" y="589" on="1"/>
      </contour>
    </TTGlyph>
    <TTGlyph name="dollar" xMin="34" yMin="-103" xMax="747" yMax="823">
      <contour>
        <pt x="747" y="582" on="1"/>
        <pt x="747" y="528" on="1"/>
        <pt x="616" y="528" on="1"/>
        <pt x="616" y="582" on="1"/>
        <pt x="616" y="589" on="0"/>
        <pt x="609" y="589" on="1"/>
        <pt x="456" y="589" on="1"/>
        <pt x="456" y="426" on="1"/>
        <pt x="609" y="426" on="1"/>
        <pt x="666" y="426" on="0"/>
        <pt x="747" y="345" on="0"/>
        <pt x="747" y="288" on="1"/>
        <pt x="747" y="138" on="1"/>
        <pt x="747" y="81" on="0"/>
        <pt x="666" y="0" on="0"/>
        <pt x="609" y="0" on="1"/>
        <pt x="456" y="0" on="1"/>
        <pt x="456" y="-103" on="1"/>
        <pt x="325" y="-103" on="1"/>
        <pt x="325" y="0" on="1"/>
        <pt x="172" y="0" on="1"/>
        <pt x="115" y="0" on="0"/>
        <pt x="34" y="81" on="0"/>
        <pt x="34" y="138" on="1"/>
        <pt x="34" y="192" on="1"/>
        <pt x="165" y="192" on="1"/>
        <pt x="165" y="138" on="1"/>
        <pt x="165" y="131" on="0"/>
        <pt x="172" y="131" on="1"/>
        <pt x="325" y="131" on="1"/>
        <pt x="325" y="295" on="1"/>
        <pt x="172" y="295" on="1"/>
        <pt x="115" y="295" on="0"/>
        <pt x="34" y="376" on="0"/>
        <pt x="34" y="433" on="1"/>
        <pt x="34" y="582" on="1"/>
        <pt x="34" y="639" on="0"/>
        <pt x="115" y="720" on="0"/>
        <pt x="172" y="720" on="1"/>
        <pt x="325" y="720" on="1"/>
        <pt x="325" y="823" on="1"/>
        <pt x="456" y="823" on="1"/>
        <pt x="456" y="720" on="1"/>
        <pt x="609" y="720" on="1"/>
        <pt x="666" y="720" on="0"/>
        <pt x="747" y="639" on="0"/>
      </contour>
      <contour>
        <pt x="609" y="295" on="1"/>
        <pt x="456" y="295" on="1"/>
        <pt x="456" y="131" on="1"/>
        <pt x="609" y="131" on="1"/>
        <pt x="616" y="131" on="0"/>
        <pt x="616" y="138" on="1"/>
        <pt x="616" y="288" on="1"/>
        <pt x="616" y="295" on="0"/>
      </contour>
      <contour>
        <pt x="325" y="426" on="1"/>
        <pt x="325" y="589" on="1"/>
        <pt x="172" y="589" on="1"/>
        <pt x="165" y="589" on="0"/>
        <pt x="165" y="582" on="1"/>
        <pt x="165" y="433" on="1"/>
        <pt x="165" y="426" on="0"/>
        <pt x="172" y="426" on="1"/>
      </contour>
    </TTGlyph>
    <TTGlyph name="dotaccent" xMin="45" yMin="787" xMax="211" yMax="949">
      <contour>
        <pt x="111" y="949" on="1"/>
        <pt x="145" y="949" on="1"/>
        <pt x="172" y="949" on="0"/>
        <pt x="211" y="910" on="0"/>
        <pt x="211" y="884" on="1"/>
        <pt x="211" y="852" on="1"/>
        <pt x="211" y="826" on="0"/>
        <pt x="172" y="787" on="0"/>
        <pt x="145" y="787" on="1"/>
        <pt x="111" y="787" on="1"/>
        <pt x="84" y="787" on="0"/>
        <pt x="45" y="826" on="0"/>
        <pt x="45" y="852" on="1"/>
        <pt x="45" y="884" on="1"/>
        <pt x="45" y="910" on="0"/>
        <pt x="84" y="949" on="0"/>
      </contour>
    </TTGlyph>
    <TTGlyph name="dotlessi" xMin="52" yMin="0" xMax="183" yMax="580">
      <contour>
        <pt x="52" y="0" on="1"/>
        <pt x="52" y="580" on="1"/>
        <pt x="183" y="580" on="1"/>
        <pt x="183" y="0" on="1"/>
      </contour>
    </TTGlyph>
    <TTGlyph name="e" xMin="51" yMin="0" xMax="640" yMax="580">
      <contour>
        <pt x="502" y="580" on="1"/>
        <pt x="559" y="580" on="0"/>
        <pt x="640" y="499" on="0"/>
        <pt x="640" y="442" on="1"/>
        <pt x="640" y="224" on="1"/>
        <pt x="182" y="224" on="1"/>
        <pt x="182" y="138" on="1"/>
        <pt x="182" y="131" on="0"/>
        <pt x="189" y="131" on="1"/>
        <pt x="640" y="131" on="1"/>
        <pt x="640" y="0" on="1"/>
        <pt x="189" y="0" on="1"/>
        <pt x="132" y="0" on="0"/>
        <pt x="51" y="81" on="0"/>
        <pt x="51" y="138" on="1"/>
        <pt x="51" y="442" on="1"/>
        <pt x="51" y="499" on="0"/>
        <pt x="132" y="580" on="0"/>
        <pt x="189" y="580" on="1"/>
      </contour>
      <contour>
        <pt x="182" y="356" on="1"/>
        <pt x="509" y="356" on="1"/>
        <pt x="509" y="442" on="1"/>
        <pt x="509" y="449" on="0"/>
        <pt x="502" y="449" on="1"/>
        <pt x="189" y="449" on="1"/>
        <pt x="182" y="449" on="0"/>
        <pt x="182" y="442" on="1"/>
      </contour>
    </TTGlyph>
    <TTGlyph name="e.sc" xMin="54" yMin="0" xMax="586" yMax="581">
      <contour>
        <pt x="586" y="581" on="1"/>
        <pt x="586" y="450" on="1"/>
        <pt x="185" y="450" on="1"/>
        <pt x="185" y="356" on="1"/>
        <pt x="484" y="356" on="1"/>
        <pt x="484" y="224" on="1"/>
        <pt x="185" y="224" on="1"/>
        <pt x="185" y="131" on="1"/>
        <pt x="586" y="131" on="1"/>
        <pt x="586" y="0" on="1"/>
        <pt x="54" y="0" on="1"/>
        <pt x="54" y="581" on="1"/>
      </contour>
    </TTGlyph>
    <TTGlyph name="eacute" xMin="51" yMin="0" xMax="640" yMax="861">
      <contour>
        <pt x="502" y="580" on="1"/>
        <pt x="559" y="580" on="0"/>
        <pt x="640" y="499" on="0"/>
        <pt x="640" y="442" on="1"/>
        <pt x="640" y="224" on="1"/>
        <pt x="182" y="224" on="1"/>
        <pt x="182" y="138" on="1"/>
        <pt x="182" y="131" on="0"/>
        <pt x="189" y="131" on="1"/>
        <pt x="640" y="131" on="1"/>
        <pt x="640" y="0" on="1"/>
        <pt x="189" y="0" on="1"/>
        <pt x="132" y="0" on="0"/>
        <pt x="51" y="81" on="0"/>
        <pt x="51" y="138" on="1"/>
        <pt x="51" y="442" on="1"/>
        <pt x="51" y="499" on="0"/>
        <pt x="132" y="580" on="0"/>
        <pt x="189" y="580" on="1"/>
      </contour>
      <contour>
        <pt x="182" y="356" on="1"/>
        <pt x="509" y="356" on="1"/>
        <pt x="509" y="442" on="1"/>
        <pt x="509" y="449" on="0"/>
        <pt x="502" y="449" on="1"/>
        <pt x="189" y="449" on="1"/>
        <pt x="182" y="449" on="0"/>
        <pt x="182" y="442" on="1"/>
      </contour>
      <contour>
        <pt x="245" y="678" on="1"/>
        <pt x="291" y="861" on="1"/>
        <pt x="424" y="861" on="1"/>
        <pt x="378" y="678" on="1"/>
      </contour>
    </TTGlyph>
    <TTGlyph name="ecircumflex" xMin="51" yMin="0" xMax="640" yMax="840">
      <contour>
        <pt x="502" y="580" on="1"/>
        <pt x="559" y="580" on="0"/>
        <pt x="640" y="499" on="0"/>
        <pt x="640" y="442" on="1"/>
        <pt x="640" y="224" on="1"/>
        <pt x="182" y="224" on="1"/>
        <pt x="182" y="138" on="1"/>
        <pt x="182" y="131" on="0"/>
        <pt x="189" y="131" on="1"/>
        <pt x="640" y="131" on="1"/>
        <pt x="640" y="0" on="1"/>
        <pt x="189" y="0" on="1"/>
        <pt x="132" y="0" on="0"/>
        <pt x="51" y="81" on="0"/>
        <pt x="51" y="138" on="1"/>
        <pt x="51" y="442" on="1"/>
        <pt x="51" y="499" on="0"/>
        <pt x="132" y="580" on="0"/>
        <pt x="189" y="580" on="1"/>
      </contour>
      <contour>
        <pt x="182" y="356" on="1"/>
        <pt x="509" y="356" on="1"/>
        <pt x="509" y="442" on="1"/>
        <pt x="509" y="449" on="0"/>
        <pt x="502" y="449" on="1"/>
        <pt x="189" y="449" on="1"/>
        <pt x="182" y="449" on="0"/>
        <pt x="182" y="442" on="1"/>
      </contour>
      <contour>
        <pt x="301" y="677" on="1"/>
        <pt x="197" y="677" on="1"/>
        <pt x="295" y="840" on="1"/>
        <pt x="382" y="840" on="1"/>
        <pt x="480" y="677" on="1"/>
        <pt x="374" y="677" on="1"/>
        <pt x="337" y="736" on="1"/>
        <pt x="331" y="727" on="0"/>
        <pt x="307" y="686" on="0"/>
      </contour>
    </TTGlyph>
    <TTGlyph name="edieresis" xMin="51" yMin="0" xMax="640" yMax="809">
      <contour>
        <pt x="502" y="580" on="1"/>
        <pt x="559" y="580" on="0"/>
        <pt x="640" y="499" on="0"/>
        <pt x="640" y="442" on="1"/>
        <pt x="640" y="224" on="1"/>
        <pt x="182" y="224" on="1"/>
        <pt x="182" y="138" on="1"/>
        <pt x="182" y="131" on="0"/>
        <pt x="189" y="131" on="1"/>
        <pt x="640" y="131" on="1"/>
        <pt x="640" y="0" on="1"/>
        <pt x="189" y="0" on="1"/>
        <pt x="132" y="0" on="0"/>
        <pt x="51" y="81" on="0"/>
        <pt x="51" y="138" on="1"/>
        <pt x="51" y="442" on="1"/>
        <pt x="51" y="499" on="0"/>
        <pt x="132" y="580" on="0"/>
        <pt x="189" y="580" on="1"/>
      </contour>
      <contour>
        <pt x="182" y="356" on="1"/>
        <pt x="509" y="356" on="1"/>
        <pt x="509" y="442" on="1"/>
        <pt x="509" y="449" on="0"/>
        <pt x="502" y="449" on="1"/>
        <pt x="189" y="449" on="1"/>
        <pt x="182" y="449" on="0"/>
        <pt x="182" y="442" on="1"/>
      </contour>
      <contour>
        <pt x="483" y="809" on="1"/>
        <pt x="483" y="677" on="1"/>
        <pt x="351" y="677" on="1"/>
        <pt x="351" y="809" on="1"/>
      </contour>
      <contour>
        <pt x="311" y="809" on="1"/>
        <pt x="311" y="677" on="1"/>
        <pt x="180" y="677" on="1"/>
        <pt x="180" y="809" on="1"/>
      </contour>
    </TTGlyph>
    <TTGlyph name="egrave" xMin="51" yMin="0" xMax="640" yMax="860">
      <contour>
        <pt x="502" y="580" on="1"/>
        <pt x="559" y="580" on="0"/>
        <pt x="640" y="499" on="0"/>
        <pt x="640" y="442" on="1"/>
        <pt x="640" y="224" on="1"/>
        <pt x="182" y="224" on="1"/>
        <pt x="182" y="138" on="1"/>
        <pt x="182" y="131" on="0"/>
        <pt x="189" y="131" on="1"/>
        <pt x="640" y="131" on="1"/>
        <pt x="640" y="0" on="1"/>
        <pt x="189" y="0" on="1"/>
        <pt x="132" y="0" on="0"/>
        <pt x="51" y="81" on="0"/>
        <pt x="51" y="138" on="1"/>
        <pt x="51" y="442" on="1"/>
        <pt x="51" y="499" on="0"/>
        <pt x="132" y="580" on="0"/>
        <pt x="189" y="580" on="1"/>
      </contour>
      <contour>
        <pt x="182" y="356" on="1"/>
        <pt x="509" y="356" on="1"/>
        <pt x="509" y="442" on="1"/>
        <pt x="509" y="449" on="0"/>
        <pt x="502" y="449" on="1"/>
        <pt x="189" y="449" on="1"/>
        <pt x="182" y="449" on="0"/>
        <pt x="182" y="442" on="1"/>
      </contour>
      <contour>
        <pt x="378" y="860" on="1"/>
        <pt x="424" y="677" on="1"/>
        <pt x="291" y="677" on="1"/>
        <pt x="245" y="860" on="1"/>
      </contour>
    </TTGlyph>
    <TTGlyph name="eight" xMin="57" yMin="0" xMax="770" yMax="720">
      <contour>
        <pt x="770" y="606" on="1"/>
        <pt x="770" y="441" on="1"/>
        <pt x="770" y="399" on="0"/>
        <pt x="750" y="369" on="1"/>
        <pt x="770" y="339" on="0"/>
        <pt x="770" y="297" on="1"/>
        <pt x="770" y="138" on="1"/>
        <pt x="770" y="81" on="0"/>
        <pt x="689" y="0" on="0"/>
        <pt x="632" y="0" on="1"/>
        <pt x="195" y="0" on="1"/>
        <pt x="138" y="0" on="0"/>
        <pt x="57" y="81" on="0"/>
        <pt x="57" y="138" on="1"/>
        <pt x="57" y="297" on="1"/>
        <pt x="57" y="337" on="0"/>
        <pt x="77" y="369" on="1"/>
        <pt x="57" y="401" on="0"/>
        <pt x="57" y="441" on="1"/>
        <pt x="57" y="582" on="1"/>
        <pt x="57" y="639" on="0"/>
        <pt x="138" y="720" on="0"/>
        <pt x="195" y="720" on="1"/>
        <pt x="632" y="720" on="1"/>
        <pt x="683" y="720" on="0"/>
        <pt x="762" y="655" on="0"/>
      </contour>
      <contour>
        <pt x="639" y="138" on="1"/>
        <pt x="639" y="297" on="1"/>
        <pt x="639" y="303" on="0"/>
        <pt x="632" y="303" on="1"/>
        <pt x="195" y="303" on="1"/>
        <pt x="188" y="303" on="0"/>
        <pt x="188" y="297" on="1"/>
        <pt x="188" y="138" on="1"/>
        <pt x="188" y="131" on="0"/>
        <pt x="195" y="131" on="1"/>
        <pt x="632" y="131" on="1"/>
        <pt x="639" y="131" on="0"/>
      </contour>
      <contour>
        <pt x="639" y="431" on="1"/>
        <pt x="639" y="581" on="1"/>
        <pt x="639" y="588" on="0"/>
        <pt x="632" y="588" on="1"/>
        <pt x="195" y="588" on="1"/>
        <pt x="188" y="588" on="0"/>
        <pt x="188" y="581" on="1"/>
        <pt x="188" y="431" on="1"/>
        <pt x="188" y="424" on="0"/>
        <pt x="195" y="424" on="1"/>
        <pt x="632" y="424" on="1"/>
        <pt x="639" y="424" on="0"/>
      </contour>
    </TTGlyph>
    <TTGlyph name="ellipsis" xMin="54" yMin="0" xMax="546" yMax="131">
      <contour>
        <pt x="366" y="131" on="1"/>
        <pt x="366" y="0" on="1"/>
        <pt x="234" y="0" on="1"/>
        <pt x="234" y="131" on="1"/>
      </contour>
      <contour>
        <pt x="546" y="131" on="1"/>
        <pt x="546" y="0" on="1"/>
        <pt x="415" y="0" on="1"/>
        <pt x="415" y="131" on="1"/>
      </contour>
      <contour>
        <pt x="185" y="131" on="1"/>
        <pt x="185" y="0" on="1"/>
        <pt x="54" y="0" on="1"/>
        <pt x="54" y="131" on="1"/>
      </contour>
    </TTGlyph>
    <TTGlyph name="emdash" xMin="54" yMin="229" xMax="762" yMax="360">
      <contour>
        <pt x="762" y="360" on="1"/>
        <pt x="762" y="229" on="1"/>
        <pt x="54" y="229" on="1"/>
        <pt x="54" y="360" on="1"/>
      </contour>
    </TTGlyph>
    <TTGlyph name="endash" xMin="54" yMin="229" xMax="653" yMax="360">
      <contour>
        <pt x="653" y="360" on="1"/>
        <pt x="653" y="229" on="1"/>
        <pt x="54" y="229" on="1"/>
        <pt x="54" y="360" on="1"/>
      </contour>
    </TTGlyph>
    <TTGlyph name="equal" xMin="59" yMin="136" xMax="582" yMax="448">
      <contour>
        <pt x="582" y="267" on="1"/>
        <pt x="582" y="136" on="1"/>
        <pt x="59" y="136" on="1"/>
        <pt x="59" y="267" on="1"/>
      </contour>
      <contour>
        <pt x="582" y="448" on="1"/>
        <pt x="582" y="317" on="1"/>
        <pt x="59" y="317" on="1"/>
        <pt x="59" y="448" on="1"/>
      </contour>
    </TTGlyph>
    <TTGlyph name="exclam" xMin="58" yMin="0" xMax="189" yMax="720">
      <contour>
        <pt x="189" y="0" on="1"/>
        <pt x="58" y="0" on="1"/>
        <pt x="58" y="131" on="1"/>
        <pt x="189" y="131" on="1"/>
      </contour>
      <contour>
        <pt x="58" y="197" on="1"/>
        <pt x="58" y="720" on="1"/>
        <pt x="189" y="720" on="1"/>
        <pt x="189" y="197" on="1"/>
      </contour>
    </TTGlyph>
    <TTGlyph name="exclamdown" xMin="53" yMin="0" xMax="184" yMax="720">
      <contour>
        <pt x="184" y="720" on="1"/>
        <pt x="184" y="589" on="1"/>
        <pt x="53" y="589" on="1"/>
        <pt x="53" y="720" on="1"/>
      </contour>
      <contour>
        <pt x="184" y="0" on="1"/>
        <pt x="53" y="0" on="1"/>
        <pt x="53" y="523" on="1"/>
        <pt x="184" y="523" on="1"/>
      </contour>
    </TTGlyph>
    <TTGlyph name="f" xMin="53" yMin="0" xMax="410" yMax="770">
      <contour>
        <pt x="191" y="638" on="1"/>
        <pt x="184" y="638" on="0"/>
        <pt x="184" y="632" on="1"/>
        <pt x="184" y="580" on="1"/>
        <pt x="410" y="580" on="1"/>
        <pt x="410" y="449" on="1"/>
        <pt x="184" y="449" on="1"/>
        <pt x="184" y="0" on="1"/>
        <pt x="53" y="0" on="1"/>
        <pt x="53" y="632" on="1"/>
        <pt x="53" y="689" on="0"/>
        <pt x="133" y="770" on="0"/>
        <pt x="191" y="770" on="1"/>
        <pt x="410" y="770" on="1"/>
        <pt x="410" y="638" on="1"/>
      </contour>
    </TTGlyph>
    <TTGlyph name="f.sc" xMin="54" yMin="0" xMax="586" yMax="581">
      <contour>
        <pt x="54" y="581" on="1"/>
        <pt x="586" y="581" on="1"/>
        <pt x="586" y="450" on="1"/>
        <pt x="185" y="450" on="1"/>
        <pt x="185" y="356" on="1"/>
        <pt x="484" y="356" on="1"/>
        <pt x="484" y="224" on="1"/>
        <pt x="185" y="224" on="1"/>
        <pt x="185" y="0" on="1"/>
        <pt x="54" y="0" on="1"/>
      </contour>
    </TTGlyph>
    <TTGlyph name="five" xMin="57" yMin="0" xMax="770" yMax="720">
      <contour>
        <pt x="188" y="582" on="1"/>
        <pt x="188" y="441" on="1"/>
        <pt x="188" y="435" on="0"/>
        <pt x="195" y="435" on="1"/>
        <pt x="632" y="435" on="1"/>
        <pt x="689" y="435" on="0"/>
        <pt x="770" y="354" on="0"/>
        <pt x="770" y="297" on="1"/>
        <pt x="770" y="138" on="1"/>
        <pt x="770" y="81" on="0"/>
        <pt x="689" y="0" on="0"/>
        <pt x="632" y="0" on="1"/>
        <pt x="195" y="0" on="1"/>
        <pt x="138" y="0" on="0"/>
        <pt x="57" y="81" on="0"/>
        <pt x="57" y="138" on="1"/>
        <pt x="57" y="192" on="1"/>
        <pt x="188" y="192" on="1"/>
        <pt x="188" y="138" on="1"/>
        <pt x="188" y="131" on="0"/>
        <pt x="195" y="131" on="1"/>
        <pt x="632" y="131" on="1"/>
        <pt x="639" y="131" on="0"/>
        <pt x="639" y="138" on="1"/>
        <pt x="639" y="297" on="1"/>
        <pt x="639" y="303" on="0"/>
        <pt x="632" y="303" on="1"/>
        <pt x="57" y="303" on="1"/>
        <pt x="57" y="720" on="1"/>
        <pt x="770" y="720" on="1"/>
        <pt x="770" y="589" on="1"/>
        <pt x="195" y="589" on="1"/>
        <pt x="188" y="589" on="0"/>
      </contour>
    </TTGlyph>
    <TTGlyph name="four" xMin="6" yMin="0" xMax="691" yMax="720">
      <contour>
        <pt x="590" y="312" on="1"/>
        <pt x="691" y="312" on="1"/>
        <pt x="691" y="181" on="1"/>
        <pt x="590" y="181" on="1"/>
        <pt x="590" y="0" on="1"/>
        <pt x="459" y="0" on="1"/>
        <pt x="459" y="181" on="1"/>
        <pt x="6" y="181" on="1"/>
        <pt x="6" y="304" on="1"/>
        <pt x="467" y="720" on="1"/>
        <pt x="590" y="720" on="1"/>
      </contour>
      <contour>
        <pt x="459" y="514" on="1"/>
        <pt x="210" y="312" on="1"/>
        <pt x="459" y="312" on="1"/>
      </contour>
    </TTGlyph>
    <TTGlyph name="four.alt" xMin="9" yMin="0" xMax="694" yMax="720">
      <contour>
        <pt x="593" y="312" on="1"/>
        <pt x="694" y="312" on="1"/>
        <pt x="694" y="181" on="1"/>
        <pt x="593" y="181" on="1"/>
        <pt x="593" y="0" on="1"/>
        <pt x="462" y="0" on="1"/>
        <pt x="462" y="181" on="1"/>
        <pt x="9" y="181" on="1"/>
        <pt x="9" y="303" on="1"/>
        <pt x="365" y="720" on="1"/>
        <pt x="488" y="720" on="1"/>
        <pt x="488" y="653" on="1"/>
        <pt x="179" y="312" on="1"/>
        <pt x="462" y="312" on="1"/>
        <pt x="462" y="454" on="1"/>
        <pt x="593" y="454" on="1"/>
      </contour>
    </TTGlyph>
    <TTGlyph name="g" xMin="41" yMin="-230" xMax="630" yMax="580">
      <contour>
        <pt x="630" y="-92" on="1"/>
        <pt x="630" y="-149" on="0"/>
        <pt x="550" y="-230" on="0"/>
        <pt x="493" y="-230" on="1"/>
        <pt x="138" y="-230" on="1"/>
        <pt x="138" y="-98" on="1"/>
        <pt x="493" y="-98" on="1"/>
        <pt x="499" y="-98" on="0"/>
        <pt x="499" y="-92" on="1"/>
        <pt x="499" y="0" on="1"/>
        <pt x="179" y="0" on="1"/>
        <pt x="122" y="0" on="0"/>
        <pt x="41" y="81" on="0"/>
        <pt x="41" y="138" on="1"/>
        <pt x="41" y="442" on="1"/>
        <pt x="41" y="499" on="0"/>
        <pt x="122" y="580" on="0"/>
        <pt x="179" y="580" on="1"/>
        <pt x="493" y="580" on="1"/>
        <pt x="550" y="580" on="0"/>
        <pt x="630" y="499" on="0"/>
        <pt x="630" y="442" on="1"/>
      </contour>
      <contour>
        <pt x="179" y="131" on="1"/>
        <pt x="493" y="131" on="1"/>
        <pt x="499" y="131" on="0"/>
        <pt x="499" y="138" on="1"/>
        <pt x="499" y="442" on="1"/>
        <pt x="499" y="449" on="0"/>
        <pt x="493" y="449" on="1"/>
        <pt x="179" y="449" on="1"/>
        <pt x="172" y="449" on="0"/>
        <pt x="172" y="442" on="1"/>
        <pt x="172" y="138" on="1"/>
        <pt x="172" y="131" on="0"/>
      </contour>
    </TTGlyph>
    <TTGlyph name="g.sc" xMin="51" yMin="0" xMax="640" yMax="581">
      <contour>
        <pt x="640" y="443" on="1"/>
        <pt x="640" y="412" on="1"/>
        <pt x="509" y="412" on="1"/>
        <pt x="509" y="443" on="1"/>
        <pt x="509" y="450" on="0"/>
        <pt x="502" y="450" on="1"/>
        <pt x="189" y="450" on="1"/>
        <pt x="182" y="450" on="0"/>
        <pt x="182" y="443" on="1"/>
        <pt x="182" y="138" on="1"/>
        <pt x="182" y="131" on="0"/>
        <pt x="189" y="131" on="1"/>
        <pt x="502" y="131" on="1"/>
        <pt x="509" y="131" on="0"/>
        <pt x="509" y="138" on="1"/>
        <pt x="509" y="196" on="1"/>
        <pt x="347" y="196" on="1"/>
        <pt x="347" y="327" on="1"/>
        <pt x="640" y="327" on="1"/>
        <pt x="640" y="138" on="1"/>
        <pt x="640" y="81" on="0"/>
        <pt x="559" y="0" on="0"/>
        <pt x="502" y="0" on="1"/>
        <pt x="189" y="0" on="1"/>
        <pt x="132" y="0" on="0"/>
        <pt x="51" y="81" on="0"/>
        <pt x="51" y="138" on="1"/>
        <pt x="51" y="443" on="1"/>
        <pt x="51" y="500" on="0"/>
        <pt x="132" y="581" on="0"/>
        <pt x="189" y="581" on="1"/>
        <pt x="502" y="581" on="1"/>
        <pt x="559" y="581" on="0"/>
        <pt x="640" y="500" on="0"/>
      </contour>
    </TTGlyph>
    <TTGlyph name="germandbls" xMin="57" yMin="0" xMax="770" yMax="713">
      <contour>
        <pt x="770" y="599" on="1"/>
        <pt x="770" y="438" on="1"/>
        <pt x="770" y="396" on="0"/>
        <pt x="750" y="366" on="1"/>
        <pt x="770" y="336" on="0"/>
        <pt x="770" y="294" on="1"/>
        <pt x="770" y="138" on="1"/>
        <pt x="770" y="81" on="0"/>
        <pt x="689" y="0" on="0"/>
        <pt x="632" y="0" on="1"/>
        <pt x="273" y="0" on="1"/>
        <pt x="273" y="131" on="1"/>
        <pt x="632" y="131" on="1"/>
        <pt x="639" y="131" on="0"/>
        <pt x="639" y="138" on="1"/>
        <pt x="639" y="294" on="1"/>
        <pt x="639" y="300" on="0"/>
        <pt x="632" y="300" on="1"/>
        <pt x="273" y="300" on="1"/>
        <pt x="273" y="421" on="1"/>
        <pt x="632" y="421" on="1"/>
        <pt x="639" y="421" on="0"/>
        <pt x="639" y="428" on="1"/>
        <pt x="639" y="574" on="1"/>
        <pt x="639" y="581" on="0"/>
        <pt x="632" y="581" on="1"/>
        <pt x="195" y="581" on="1"/>
        <pt x="188" y="581" on="0"/>
        <pt x="188" y="574" on="1"/>
        <pt x="188" y="0" on="1"/>
        <pt x="57" y="0" on="1"/>
        <pt x="57" y="575" on="1"/>
        <pt x="57" y="632" on="0"/>
        <pt x="138" y="713" on="0"/>
        <pt x="195" y="713" on="1"/>
        <pt x="632" y="713" on="1"/>
        <pt x="683" y="713" on="0"/>
        <pt x="762" y="648" on="0"/>
      </contour>
    </TTGlyph>
    <TTGlyph name="grave" xMin="32" yMin="786" xMax="211" yMax="969">
      <contour>
        <pt x="165" y="969" on="1"/>
        <pt x="211" y="786" on="1"/>
        <pt x="78" y="786" on="1"/>
        <pt x="32" y="969" on="1"/>
      </contour>
    </TTGlyph>
    <TTGlyph name="greater" xMin="59" yMin="-9" xMax="479" yMax="595">
      <contour>
        <pt x="59" y="-9" on="1"/>
        <pt x="59" y="143" on="1"/>
        <pt x="319" y="294" on="1"/>
        <pt x="59" y="444" on="1"/>
        <pt x="59" y="595" on="1"/>
        <pt x="479" y="353" on="1"/>
        <pt x="479" y="235" on="1"/>
      </contour>
    </TTGlyph>
    <TTGlyph name="h" xMin="54" yMin="0" xMax="643" yMax="770">
      <contour>
        <pt x="505" y="580" on="1"/>
        <pt x="561" y="580" on="0"/>
        <pt x="643" y="499" on="0"/>
        <pt x="643" y="442" on="1"/>
        <pt x="643" y="0" on="1"/>
        <pt x="512" y="0" on="1"/>
        <pt x="512" y="442" on="1"/>
        <pt x="512" y="449" on="0"/>
        <pt x="505" y="449" on="1"/>
        <pt x="192" y="449" on="1"/>
        <pt x="185" y="449" on="0"/>
        <pt x="185" y="442" on="1"/>
        <pt x="185" y="0" on="1"/>
        <pt x="54" y="0" on="1"/>
        <pt x="54" y="770" on="1"/>
        <pt x="185" y="770" on="1"/>
        <pt x="185" y="580" on="1"/>
      </contour>
    </TTGlyph>
    <TTGlyph name="h.sc" xMin="54" yMin="0" xMax="660" yMax="580">
      <contour>
        <pt x="528" y="580" on="1"/>
        <pt x="660" y="580" on="1"/>
        <pt x="660" y="0" on="1"/>
        <pt x="528" y="0" on="1"/>
        <pt x="528" y="224" on="1"/>
        <pt x="185" y="224" on="1"/>
        <pt x="185" y="0" on="1"/>
        <pt x="54" y="0" on="1"/>
        <pt x="54" y="580" on="1"/>
        <pt x="185" y="580" on="1"/>
        <pt x="185" y="356" on="1"/>
        <pt x="528" y="356" on="1"/>
      </contour>
    </TTGlyph>
    <TTGlyph name="hyphen" xMin="59" yMin="230" xMax="468" yMax="361">
      <contour>
        <pt x="468" y="361" on="1"/>
        <pt x="468" y="230" on="1"/>
        <pt x="59" y="230" on="1"/>
        <pt x="59" y="361" on="1"/>
      </contour>
    </TTGlyph>
    <TTGlyph name="i" xMin="52" yMin="0" xMax="183" yMax="770">
      <contour>
        <pt x="52" y="0" on="1"/>
        <pt x="52" y="580" on="1"/>
        <pt x="183" y="580" on="1"/>
        <pt x="183" y="0" on="1"/>
      </contour>
      <contour>
        <pt x="52" y="770" on="1"/>
        <pt x="183" y="770" on="1"/>
        <pt x="183" y="638" on="1"/>
        <pt x="52" y="638" on="1"/>
      </contour>
    </TTGlyph>
    <TTGlyph name="i.sc" xMin="54" yMin="0" xMax="185" yMax="580">
      <contour>
        <pt x="54" y="0" on="1"/>
        <pt x="54" y="580" on="1"/>
        <pt x="185" y="580" on="1"/>
        <pt x="185" y="0" on="1"/>
      </contour>
    </TTGlyph>
    <TTGlyph name="iacute" xMin="49" yMin="0" xMax="228" yMax="860">
      <contour>
        <pt x="51" y="0" on="1"/>
        <pt x="51" y="580" on="1"/>
        <pt x="182" y="580" on="1"/>
        <pt x="182" y="0" on="1"/>
      </contour>
      <contour>
        <pt x="49" y="677" on="1"/>
        <pt x="95" y="860" on="1"/>
        <pt x="228" y="860" on="1"/>
        <pt x="182" y="677" on="1"/>
      </contour>
    </TTGlyph>
    <TTGlyph name="icircumflex" xMin="-15" yMin="0" xMax="268" yMax="840">
      <contour>
        <pt x="51" y="0" on="1"/>
        <pt x="51" y="580" on="1"/>
        <pt x="182" y="580" on="1"/>
        <pt x="182" y="0" on="1"/>
      </contour>
      <contour>
        <pt x="89" y="677" on="1"/>
        <pt x="-15" y="677" on="1"/>
        <pt x="83" y="840" on="1"/>
        <pt x="170" y="840" on="1"/>
        <pt x="268" y="677" on="1"/>
        <pt x="162" y="677" on="1"/>
        <pt x="125" y="736" on="1"/>
        <pt x="119" y="727" on="0"/>
        <pt x="95" y="686" on="0"/>
      </contour>
    </TTGlyph>
    <TTGlyph name="idieresis" xMin="-32" yMin="0" xMax="271" yMax="811">
      <contour>
        <pt x="55" y="0" on="1"/>
        <pt x="55" y="580" on="1"/>
        <pt x="186" y="580" on="1"/>
        <pt x="186" y="0" on="1"/>
      </contour>
      <contour>
        <pt x="271" y="811" on="1"/>
        <pt x="271" y="679" on="1"/>
        <pt x="139" y="679" on="1"/>
        <pt x="139" y="811" on="1"/>
      </contour>
      <contour>
        <pt x="99" y="811" on="1"/>
        <pt x="99" y="679" on="1"/>
        <pt x="-32" y="679" on="1"/>
        <pt x="-32" y="811" on="1"/>
      </contour>
    </TTGlyph>
    <TTGlyph name="igrave" xMin="16" yMin="0" xMax="195" yMax="861">
      <contour>
        <pt x="56" y="0" on="1"/>
        <pt x="56" y="580" on="1"/>
        <pt x="187" y="580" on="1"/>
        <pt x="187" y="0" on="1"/>
      </contour>
      <contour>
        <pt x="149" y="861" on="1"/>
        <pt x="195" y="678" on="1"/>
        <pt x="62" y="678" on="1"/>
        <pt x="16" y="861" on="1"/>
      </contour>
    </TTGlyph>
    <TTGlyph name="j" xMin="-187" yMin="-219" xMax="201" yMax="770">
      <contour>
        <pt x="70" y="770" on="1"/>
        <pt x="201" y="770" on="1"/>
        <pt x="201" y="638" on="1"/>
        <pt x="70" y="638" on="1"/>
      </contour>
      <contour>
        <pt x="201" y="580" on="1"/>
        <pt x="201" y="-81" on="1"/>
        <pt x="201" y="-138" on="0"/>
        <pt x="120" y="-219" on="0"/>
        <pt x="63" y="-219" on="1"/>
        <pt x="-187" y="-219" on="1"/>
        <pt x="-187" y="-87" on="1"/>
        <pt x="63" y="-87" on="1"/>
        <pt x="70" y="-87" on="0"/>
        <pt x="70" y="-81" on="1"/>
        <pt x="70" y="580" on="1"/>
      </contour>
    </TTGlyph>
    <TTGlyph name="j.sc" xMin="5" yMin="0" xMax="604" yMax="580">
      <contour>
        <pt x="473" y="138" on="1"/>
        <pt x="473" y="580" on="1"/>
        <pt x="604" y="580" on="1"/>
        <pt x="604" y="138" on="1"/>
        <pt x="604" y="81" on="0"/>
        <pt x="523" y="0" on="0"/>
        <pt x="466" y="0" on="1"/>
        <pt x="143" y="0" on="1"/>
        <pt x="86" y="0" on="0"/>
        <pt x="5" y="81" on="0"/>
        <pt x="5" y="138" on="1"/>
        <pt x="5" y="209" on="1"/>
        <pt x="136" y="209" on="1"/>
        <pt x="136" y="138" on="1"/>
        <pt x="136" y="131" on="0"/>
        <pt x="143" y="131" on="1"/>
        <pt x="466" y="131" on="1"/>
        <pt x="473" y="131" on="0"/>
      </contour>
    </TTGlyph>
    <TTGlyph name="k" xMin="54" yMin="0" xMax="636" yMax="770">
      <contour>
        <pt x="495" y="580" on="1"/>
        <pt x="636" y="580" on="1"/>
        <pt x="636" y="546" on="1"/>
        <pt x="404" y="290" on="1"/>
        <pt x="636" y="34" on="1"/>
        <pt x="636" y="0" on="1"/>
        <pt x="495" y="0" on="1"/>
        <pt x="288" y="224" on="1"/>
        <pt x="185" y="224" on="1"/>
        <pt x="185" y="0" on="1"/>
        <pt x="54" y="0" on="1"/>
        <pt x="54" y="770" on="1"/>
        <pt x="185" y="770" on="1"/>
        <pt x="185" y="356" on="1"/>
        <pt x="288" y="356" on="1"/>
      </contour>
    </TTGlyph>
    <TTGlyph name="k.alt" xMin="54" yMin="0" xMax="643" yMax="769">
      <contour>
        <pt x="643" y="580" on="1"/>
        <pt x="643" y="362" on="1"/>
        <pt x="643" y="322" on="0"/>
        <pt x="623" y="290" on="1"/>
        <pt x="643" y="258" on="0"/>
        <pt x="643" y="218" on="1"/>
        <pt x="643" y="0" on="1"/>
        <pt x="512" y="0" on="1"/>
        <pt x="512" y="218" on="1"/>
        <pt x="512" y="224" on="0"/>
        <pt x="505" y="224" on="1"/>
        <pt x="185" y="224" on="1"/>
        <pt x="185" y="0" on="1"/>
        <pt x="54" y="0" on="1"/>
        <pt x="54" y="769" on="1"/>
        <pt x="185" y="769" on="1"/>
        <pt x="185" y="356" on="1"/>
        <pt x="505" y="356" on="1"/>
        <pt x="512" y="356" on="0"/>
        <pt x="512" y="362" on="1"/>
        <pt x="512" y="580" on="1"/>
      </contour>
    </TTGlyph>
    <TTGlyph name="k.sc" xMin="54" yMin="0" xMax="636" yMax="580">
      <contour>
        <pt x="495" y="580" on="1"/>
        <pt x="636" y="580" on="1"/>
        <pt x="636" y="546" on="1"/>
        <pt x="404" y="290" on="1"/>
        <pt x="636" y="34" on="1"/>
        <pt x="636" y="0" on="1"/>
        <pt x="495" y="0" on="1"/>
        <pt x="288" y="224" on="1"/>
        <pt x="185" y="224" on="1"/>
        <pt x="185" y="0" on="1"/>
        <pt x="54" y="0" on="1"/>
        <pt x="54" y="580" on="1"/>
        <pt x="185" y="580" on="1"/>
        <pt x="185" y="356" on="1"/>
        <pt x="288" y="356" on="1"/>
      </contour>
    </TTGlyph>
    <TTGlyph name="l" xMin="52" yMin="0" xMax="307" yMax="770">
      <contour>
        <pt x="52" y="770" on="1"/>
        <pt x="184" y="770" on="1"/>
        <pt x="184" y="138" on="1"/>
        <pt x="184" y="131" on="0"/>
        <pt x="190" y="131" on="1"/>
        <pt x="307" y="131" on="1"/>
        <pt x="307" y="0" on="1"/>
        <pt x="190" y="0" on="1"/>
        <pt x="133" y="0" on="0"/>
        <pt x="52" y="81" on="0"/>
        <pt x="52" y="138" on="1"/>
      </contour>
    </TTGlyph>
    <TTGlyph name="l.sc" xMin="54" yMin="0" xMax="653" yMax="580">
      <contour>
        <pt x="54" y="0" on="1"/>
        <pt x="54" y="580" on="1"/>
        <pt x="185" y="580" on="1"/>
        <pt x="185" y="131" on="1"/>
        <pt x="653" y="131" on="1"/>
        <pt x="653" y="0" on="1"/>
      </contour>
    </TTGlyph>
    <TTGlyph name="less" xMin="5" yMin="-7" xMax="424" yMax="597">
      <contour>
        <pt x="163" y="296" on="1"/>
        <pt x="424" y="145" on="1"/>
        <pt x="424" y="-7" on="1"/>
        <pt x="5" y="237" on="1"/>
        <pt x="5" y="355" on="1"/>
        <pt x="424" y="597" on="1"/>
        <pt x="424" y="446" on="1"/>
      </contour>
    </TTGlyph>
    <TTGlyph name="m" xMin="54" yMin="0" xMax="911" yMax="580">
      <contour>
        <pt x="773" y="580" on="1"/>
        <pt x="830" y="580" on="0"/>
        <pt x="911" y="499" on="0"/>
        <pt x="911" y="442" on="1"/>
        <pt x="911" y="0" on="1"/>
        <pt x="781" y="0" on="1"/>
        <pt x="781" y="442" on="1"/>
        <pt x="781" y="449" on="0"/>
        <pt x="773" y="449" on="1"/>
        <pt x="555" y="449" on="1"/>
        <pt x="549" y="449" on="0"/>
        <pt x="549" y="442" on="1"/>
        <pt x="549" y="0" on="1"/>
        <pt x="417" y="0" on="1"/>
        <pt x="417" y="442" on="1"/>
        <pt x="417" y="449" on="0"/>
        <pt x="411" y="449" on="1"/>
        <pt x="192" y="449" on="1"/>
        <pt x="185" y="449" on="0"/>
        <pt x="185" y="442" on="1"/>
        <pt x="185" y="0" on="1"/>
        <pt x="54" y="0" on="1"/>
        <pt x="54" y="580" on="1"/>
      </contour>
    </TTGlyph>
    <TTGlyph name="m.sc" xMin="54" yMin="0" xMax="764" yMax="581">
      <contour>
        <pt x="409" y="279" on="1"/>
        <pt x="619" y="581" on="1"/>
        <pt x="764" y="581" on="1"/>
        <pt x="764" y="0" on="1"/>
        <pt x="632" y="0" on="1"/>
        <pt x="632" y="393" on="1"/>
        <pt x="409" y="74" on="1"/>
        <pt x="185" y="392" on="1"/>
        <pt x="185" y="0" on="1"/>
        <pt x="54" y="0" on="1"/>
        <pt x="54" y="581" on="1"/>
        <pt x="198" y="581" on="1"/>
      </contour>
    </TTGlyph>
    <TTGlyph name="minus" xMin="59" yMin="230" xMax="468" yMax="361">
      <contour>
        <pt x="468" y="361" on="1"/>
        <pt x="468" y="230" on="1"/>
        <pt x="59" y="230" on="1"/>
        <pt x="59" y="361" on="1"/>
      </contour>
    </TTGlyph>
    <TTGlyph name="multiply" xMin="53" yMin="86" xMax="500" yMax="513">
      <contour>
        <pt x="500" y="513" on="1"/>
        <pt x="500" y="480" on="1"/>
        <pt x="361" y="300" on="1"/>
        <pt x="500" y="119" on="1"/>
        <pt x="500" y="86" on="1"/>
        <pt x="356" y="86" on="1"/>
        <pt x="276" y="195" on="1"/>
        <pt x="196" y="86" on="1"/>
        <pt x="53" y="86" on="1"/>
        <pt x="53" y="119" on="1"/>
        <pt x="192" y="300" on="1"/>
        <pt x="53" y="480" on="1"/>
        <pt x="53" y="513" on="1"/>
        <pt x="196" y="513" on="1"/>
        <pt x="276" y="404" on="1"/>
        <pt x="356" y="513" on="1"/>
      </contour>
    </TTGlyph>
    <TTGlyph name="n" xMin="54" yMin="0" xMax="643" yMax="580">
      <contour>
        <pt x="505" y="580" on="1"/>
        <pt x="562" y="580" on="0"/>
        <pt x="643" y="499" on="0"/>
        <pt x="643" y="442" on="1"/>
        <pt x="643" y="0" on="1"/>
        <pt x="512" y="0" on="1"/>
        <pt x="512" y="442" on="1"/>
        <pt x="512" y="449" on="0"/>
        <pt x="505" y="449" on="1"/>
        <pt x="192" y="449" on="1"/>
        <pt x="185" y="449" on="0"/>
        <pt x="185" y="442" on="1"/>
        <pt x="185" y="0" on="1"/>
        <pt x="54" y="0" on="1"/>
        <pt x="54" y="580" on="1"/>
      </contour>
    </TTGlyph>
    <TTGlyph name="n.sc" xMin="54" yMin="0" xMax="653" yMax="580">
      <contour>
        <pt x="522" y="192" on="1"/>
        <pt x="522" y="580" on="1"/>
        <pt x="653" y="580" on="1"/>
        <pt x="653" y="0" on="1"/>
        <pt x="509" y="0" on="1"/>
        <pt x="185" y="390" on="1"/>
        <pt x="185" y="0" on="1"/>
        <pt x="54" y="0" on="1"/>
        <pt x="54" y="580" on="1"/>
        <pt x="197" y="580" on="1"/>
      </contour>
    </TTGlyph>
    <TTGlyph name="nine" xMin="51" yMin="0" xMax="765" yMax="720">
      <contour>
        <pt x="628" y="288" on="1"/>
        <pt x="190" y="288" on="1"/>
        <pt x="133" y="288" on="0"/>
        <pt x="52" y="369" on="0"/>
        <pt x="52" y="426" on="1"/>
        <pt x="52" y="582" on="1"/>
        <pt x="52" y="639" on="0"/>
        <pt x="133" y="720" on="0"/>
        <pt x="190" y="720" on="1"/>
        <pt x="628" y="720" on="1"/>
        <pt x="685" y="720" on="0"/>
        <pt x="765" y="639" on="0"/>
        <pt x="765" y="582" on="1"/>
        <pt x="765" y="138" on="1"/>
        <pt x="765" y="81" on="0"/>
        <pt x="685" y="0" on="0"/>
        <pt x="628" y="0" on="1"/>
        <pt x="190" y="0" on="1"/>
        <pt x="139" y="0" on="0"/>
        <pt x="61" y="75" on="0"/>
        <pt x="51" y="131" on="1"/>
        <pt x="628" y="131" on="1"/>
        <pt x="634" y="131" on="0"/>
        <pt x="634" y="138" on="1"/>
        <pt x="634" y="282" on="1"/>
        <pt x="634" y="288" on="0"/>
      </contour>
      <contour>
        <pt x="184" y="582" on="1"/>
        <pt x="184" y="426" on="1"/>
        <pt x="184" y="420" on="0"/>
        <pt x="190" y="420" on="1"/>
        <pt x="634" y="420" on="1"/>
        <pt x="634" y="582" on="1"/>
        <pt x="634" y="589" on="0"/>
        <pt x="628" y="589" on="1"/>
        <pt x="190" y="589" on="1"/>
        <pt x="184" y="589" on="0"/>
      </contour>
    </TTGlyph>
    <TTGlyph name="nine.alt" xMin="12" yMin="0" xMax="725" yMax="718">
      <contour>
        <pt x="150" y="718" on="1"/>
        <pt x="588" y="718" on="1"/>
        <pt x="645" y="718" on="0"/>
        <pt x="725" y="637" on="0"/>
        <pt x="725" y="580" on="1"/>
        <pt x="725" y="0" on="1"/>
        <pt x="594" y="0" on="1"/>
        <pt x="594" y="280" on="1"/>
        <pt x="594" y="287" on="0"/>
        <pt x="588" y="287" on="1"/>
        <pt x="150" y="287" on="1"/>
        <pt x="93" y="287" on="0"/>
        <pt x="12" y="367" on="0"/>
        <pt x="12" y="424" on="1"/>
        <pt x="12" y="580" on="1"/>
        <pt x="12" y="637" on="0"/>
        <pt x="93" y="718" on="0"/>
      </contour>
      <contour>
        <pt x="594" y="418" on="1"/>
        <pt x="594" y="580" on="1"/>
        <pt x="594" y="587" on="0"/>
        <pt x="588" y="587" on="1"/>
        <pt x="150" y="587" on="1"/>
        <pt x="144" y="587" on="0"/>
        <pt x="144" y="580" on="1"/>
        <pt x="144" y="424" on="1"/>
        <pt x="144" y="418" on="0"/>
        <pt x="150" y="418" on="1"/>
      </contour>
    </TTGlyph>
    <TTGlyph name="ntilde" xMin="54" yMin="0" xMax="643" yMax="835">
      <contour>
        <pt x="505" y="580" on="1"/>
        <pt x="562" y="580" on="0"/>
        <pt x="643" y="499" on="0"/>
        <pt x="643" y="442" on="1"/>
        <pt x="643" y="0" on="1"/>
        <pt x="512" y="0" on="1"/>
        <pt x="512" y="442" on="1"/>
        <pt x="512" y="449" on="0"/>
        <pt x="505" y="449" on="1"/>
        <pt x="192" y="449" on="1"/>
        <pt x="185" y="449" on="0"/>
        <pt x="185" y="442" on="1"/>
        <pt x="185" y="0" on="1"/>
        <pt x="54" y="0" on="1"/>
        <pt x="54" y="580" on="1"/>
      </contour>
      <contour>
        <pt x="455" y="770" on="1"/>
        <pt x="502" y="770" on="0"/>
        <pt x="542" y="797" on="1"/>
        <pt x="542" y="701" on="1"/>
        <pt x="490" y="679" on="0"/>
        <pt x="453" y="679" on="1"/>
        <pt x="417" y="679" on="0"/>
        <pt x="297" y="744" on="0"/>
        <pt x="263" y="744" on="1"/>
        <pt x="251" y="744" on="1"/>
        <pt x="207" y="744" on="0"/>
        <pt x="178" y="706" on="1"/>
        <pt x="178" y="817" on="1"/>
        <pt x="223" y="835" on="0"/>
        <pt x="263" y="835" on="1"/>
        <pt x="302" y="835" on="0"/>
        <pt x="423" y="774" on="0"/>
      </contour>
    </TTGlyph>
    <TTGlyph name="numbersign" xMin="32" yMin="0" xMax="757" yMax="720">
      <contour>
        <pt x="757" y="566" on="1"/>
        <pt x="757" y="435" on="1"/>
        <pt x="640" y="435" on="1"/>
        <pt x="594" y="291" on="1"/>
        <pt x="728" y="291" on="1"/>
        <pt x="728" y="160" on="1"/>
        <pt x="553" y="160" on="1"/>
        <pt x="505" y="0" on="1"/>
        <pt x="373" y="0" on="1"/>
        <pt x="422" y="160" on="1"/>
        <pt x="246" y="160" on="1"/>
        <pt x="198" y="0" on="1"/>
        <pt x="66" y="0" on="1"/>
        <pt x="115" y="160" on="1"/>
        <pt x="32" y="160" on="1"/>
        <pt x="32" y="291" on="1"/>
        <pt x="155" y="291" on="1"/>
        <pt x="201" y="435" on="1"/>
        <pt x="61" y="435" on="1"/>
        <pt x="61" y="566" on="1"/>
        <pt x="243" y="566" on="1"/>
        <pt x="293" y="720" on="1"/>
        <pt x="427" y="720" on="1"/>
        <pt x="375" y="566" on="1"/>
        <pt x="550" y="566" on="1"/>
        <pt x="601" y="720" on="1"/>
        <pt x="734" y="720" on="1"/>
        <pt x="682" y="566" on="1"/>
      </contour>
      <contour>
        <pt x="287" y="291" on="1"/>
        <pt x="462" y="291" on="1"/>
        <pt x="508" y="435" on="1"/>
        <pt x="333" y="435" on="1"/>
      </contour>
    </TTGlyph>
    <TTGlyph name="o" xMin="51" yMin="0" xMax="640" yMax="580">
      <contour>
        <pt x="189" y="580" on="1"/>
        <pt x="502" y="580" on="1"/>
        <pt x="559" y="580" on="0"/>
        <pt x="640" y="499" on="0"/>
        <pt x="640" y="442" on="1"/>
        <pt x="640" y="138" on="1"/>
        <pt x="640" y="81" on="0"/>
        <pt x="559" y="0" on="0"/>
        <pt x="502" y="0" on="1"/>
        <pt x="189" y="0" on="1"/>
        <pt x="132" y="0" on="0"/>
        <pt x="51" y="81" on="0"/>
        <pt x="51" y="138" on="1"/>
        <pt x="51" y="442" on="1"/>
        <pt x="51" y="499" on="0"/>
        <pt x="132" y="580" on="0"/>
      </contour>
      <contour>
        <pt x="502" y="449" on="1"/>
        <pt x="189" y="449" on="1"/>
        <pt x="182" y="449" on="0"/>
        <pt x="182" y="442" on="1"/>
        <pt x="182" y="138" on="1"/>
        <pt x="182" y="131" on="0"/>
        <pt x="189" y="131" on="1"/>
        <pt x="502" y="131" on="1"/>
        <pt x="509" y="131" on="0"/>
        <pt x="509" y="138" on="1"/>
        <pt x="509" y="442" on="1"/>
        <pt x="509" y="449" on="0"/>
      </contour>
    </TTGlyph>
    <TTGlyph name="o.sc" xMin="51" yMin="0" xMax="640" yMax="580">
      <contour>
        <pt x="189" y="580" on="1"/>
        <pt x="502" y="580" on="1"/>
        <pt x="559" y="580" on="0"/>
        <pt x="640" y="499" on="0"/>
        <pt x="640" y="442" on="1"/>
        <pt x="640" y="138" on="1"/>
        <pt x="640" y="81" on="0"/>
        <pt x="559" y="0" on="0"/>
        <pt x="502" y="0" on="1"/>
        <pt x="189" y="0" on="1"/>
        <pt x="132" y="0" on="0"/>
        <pt x="51" y="81" on="0"/>
        <pt x="51" y="138" on="1"/>
        <pt x="51" y="442" on="1"/>
        <pt x="51" y="499" on="0"/>
        <pt x="132" y="580" on="0"/>
      </contour>
      <contour>
        <pt x="189" y="131" on="1"/>
        <pt x="502" y="131" on="1"/>
        <pt x="509" y="131" on="0"/>
        <pt x="509" y="138" on="1"/>
        <pt x="509" y="442" on="1"/>
        <pt x="509" y="449" on="0"/>
        <pt x="502" y="449" on="1"/>
        <pt x="189" y="449" on="1"/>
        <pt x="182" y="449" on="0"/>
        <pt x="182" y="442" on="1"/>
        <pt x="182" y="138" on="1"/>
        <pt x="182" y="131" on="0"/>
      </contour>
    </TTGlyph>
    <TTGlyph name="oacute" xMin="51" yMin="0" xMax="640" yMax="861">
      <contour>
        <pt x="189" y="580" on="1"/>
        <pt x="502" y="580" on="1"/>
        <pt x="559" y="580" on="0"/>
        <pt x="640" y="499" on="0"/>
        <pt x="640" y="442" on="1"/>
        <pt x="640" y="138" on="1"/>
        <pt x="640" y="81" on="0"/>
        <pt x="559" y="0" on="0"/>
        <pt x="502" y="0" on="1"/>
        <pt x="189" y="0" on="1"/>
        <pt x="132" y="0" on="0"/>
        <pt x="51" y="81" on="0"/>
        <pt x="51" y="138" on="1"/>
        <pt x="51" y="442" on="1"/>
        <pt x="51" y="499" on="0"/>
        <pt x="132" y="580" on="0"/>
      </contour>
      <contour>
        <pt x="502" y="449" on="1"/>
        <pt x="189" y="449" on="1"/>
        <pt x="182" y="449" on="0"/>
        <pt x="182" y="442" on="1"/>
        <pt x="182" y="138" on="1"/>
        <pt x="182" y="131" on="0"/>
        <pt x="189" y="131" on="1"/>
        <pt x="502" y="131" on="1"/>
        <pt x="509" y="131" on="0"/>
        <pt x="509" y="138" on="1"/>
        <pt x="509" y="442" on="1"/>
        <pt x="509" y="449" on="0"/>
      </contour>
      <contour>
        <pt x="272" y="678" on="1"/>
        <pt x="318" y="861" on="1"/>
        <pt x="451" y="861" on="1"/>
        <pt x="405" y="678" on="1"/>
      </contour>
    </TTGlyph>
    <TTGlyph name="ocircumflex" xMin="51" yMin="0" xMax="640" yMax="840">
      <contour>
        <pt x="189" y="580" on="1"/>
        <pt x="502" y="580" on="1"/>
        <pt x="559" y="580" on="0"/>
        <pt x="640" y="499" on="0"/>
        <pt x="640" y="442" on="1"/>
        <pt x="640" y="138" on="1"/>
        <pt x="640" y="81" on="0"/>
        <pt x="559" y="0" on="0"/>
        <pt x="502" y="0" on="1"/>
        <pt x="189" y="0" on="1"/>
        <pt x="132" y="0" on="0"/>
        <pt x="51" y="81" on="0"/>
        <pt x="51" y="138" on="1"/>
        <pt x="51" y="442" on="1"/>
        <pt x="51" y="499" on="0"/>
        <pt x="132" y="580" on="0"/>
      </contour>
      <contour>
        <pt x="502" y="449" on="1"/>
        <pt x="189" y="449" on="1"/>
        <pt x="182" y="449" on="0"/>
        <pt x="182" y="442" on="1"/>
        <pt x="182" y="138" on="1"/>
        <pt x="182" y="131" on="0"/>
        <pt x="189" y="131" on="1"/>
        <pt x="502" y="131" on="1"/>
        <pt x="509" y="131" on="0"/>
        <pt x="509" y="138" on="1"/>
        <pt x="509" y="442" on="1"/>
        <pt x="509" y="449" on="0"/>
      </contour>
      <contour>
        <pt x="328" y="677" on="1"/>
        <pt x="224" y="677" on="1"/>
        <pt x="322" y="840" on="1"/>
        <pt x="409" y="840" on="1"/>
        <pt x="507" y="677" on="1"/>
        <pt x="401" y="677" on="1"/>
        <pt x="364" y="736" on="1"/>
        <pt x="358" y="727" on="0"/>
        <pt x="334" y="686" on="0"/>
      </contour>
    </TTGlyph>
    <TTGlyph name="odieresis" xMin="51" yMin="0" xMax="640" yMax="811">
      <contour>
        <pt x="189" y="580" on="1"/>
        <pt x="502" y="580" on="1"/>
        <pt x="559" y="580" on="0"/>
        <pt x="640" y="499" on="0"/>
        <pt x="640" y="442" on="1"/>
        <pt x="640" y="138" on="1"/>
        <pt x="640" y="81" on="0"/>
        <pt x="559" y="0" on="0"/>
        <pt x="502" y="0" on="1"/>
        <pt x="189" y="0" on="1"/>
        <pt x="132" y="0" on="0"/>
        <pt x="51" y="81" on="0"/>
        <pt x="51" y="138" on="1"/>
        <pt x="51" y="442" on="1"/>
        <pt x="51" y="499" on="0"/>
        <pt x="132" y="580" on="0"/>
      </contour>
      <contour>
        <pt x="502" y="449" on="1"/>
        <pt x="189" y="449" on="1"/>
        <pt x="182" y="449" on="0"/>
        <pt x="182" y="442" on="1"/>
        <pt x="182" y="138" on="1"/>
        <pt x="182" y="131" on="0"/>
        <pt x="189" y="131" on="1"/>
        <pt x="502" y="131" on="1"/>
        <pt x="509" y="131" on="0"/>
        <pt x="509" y="138" on="1"/>
        <pt x="509" y="442" on="1"/>
        <pt x="509" y="449" on="0"/>
      </contour>
      <contour>
        <pt x="510" y="811" on="1"/>
        <pt x="510" y="679" on="1"/>
        <pt x="378" y="679" on="1"/>
        <pt x="378" y="811" on="1"/>
      </contour>
      <contour>
        <pt x="338" y="811" on="1"/>
        <pt x="338" y="679" on="1"/>
        <pt x="207" y="679" on="1"/>
        <pt x="207" y="811" on="1"/>
      </contour>
    </TTGlyph>
    <TTGlyph name="oe" xMin="52" yMin="0" xMax="1099" yMax="580">
      <contour>
        <pt x="1099" y="224" on="1"/>
        <pt x="641" y="224" on="1"/>
        <pt x="641" y="138" on="1"/>
        <pt x="641" y="131" on="0"/>
        <pt x="648" y="131" on="1"/>
        <pt x="1099" y="131" on="1"/>
        <pt x="1099" y="0" on="1"/>
        <pt x="190" y="0" on="1"/>
        <pt x="132" y="0" on="0"/>
        <pt x="52" y="81" on="0"/>
        <pt x="52" y="138" on="1"/>
        <pt x="52" y="442" on="1"/>
        <pt x="52" y="499" on="0"/>
        <pt x="132" y="580" on="0"/>
        <pt x="190" y="580" on="1"/>
        <pt x="962" y="580" on="1"/>
        <pt x="1019" y="580" on="0"/>
        <pt x="1099" y="499" on="0"/>
        <pt x="1099" y="442" on="1"/>
      </contour>
      <contour>
        <pt x="648" y="449" on="1"/>
        <pt x="641" y="449" on="0"/>
        <pt x="641" y="442" on="1"/>
        <pt x="641" y="356" on="1"/>
        <pt x="968" y="356" on="1"/>
        <pt x="968" y="442" on="1"/>
        <pt x="968" y="449" on="0"/>
        <pt x="962" y="449" on="1"/>
      </contour>
      <contour>
        <pt x="503" y="131" on="1"/>
        <pt x="510" y="131" on="0"/>
        <pt x="510" y="138" on="1"/>
        <pt x="510" y="442" on="1"/>
        <pt x="510" y="449" on="0"/>
        <pt x="503" y="449" on="1"/>
        <pt x="190" y="449" on="1"/>
        <pt x="183" y="449" on="0"/>
        <pt x="183" y="442" on="1"/>
        <pt x="183" y="138" on="1"/>
        <pt x="183" y="131" on="0"/>
        <pt x="190" y="131" on="1"/>
      </contour>
    </TTGlyph>
    <TTGlyph name="ograve" xMin="51" yMin="0" xMax="640" yMax="861">
      <contour>
        <pt x="189" y="580" on="1"/>
        <pt x="502" y="580" on="1"/>
        <pt x="559" y="580" on="0"/>
        <pt x="640" y="499" on="0"/>
        <pt x="640" y="442" on="1"/>
        <pt x="640" y="138" on="1"/>
        <pt x="640" y="81" on="0"/>
        <pt x="559" y="0" on="0"/>
        <pt x="502" y="0" on="1"/>
        <pt x="189" y="0" on="1"/>
        <pt x="132" y="0" on="0"/>
        <pt x="51" y="81" on="0"/>
        <pt x="51" y="138" on="1"/>
        <pt x="51" y="442" on="1"/>
        <pt x="51" y="499" on="0"/>
        <pt x="132" y="580" on="0"/>
      </contour>
      <contour>
        <pt x="502" y="449" on="1"/>
        <pt x="189" y="449" on="1"/>
        <pt x="182" y="449" on="0"/>
        <pt x="182" y="442" on="1"/>
        <pt x="182" y="138" on="1"/>
        <pt x="182" y="131" on="0"/>
        <pt x="189" y="131" on="1"/>
        <pt x="502" y="131" on="1"/>
        <pt x="509" y="131" on="0"/>
        <pt x="509" y="138" on="1"/>
        <pt x="509" y="442" on="1"/>
        <pt x="509" y="449" on="0"/>
      </contour>
      <contour>
        <pt x="405" y="861" on="1"/>
        <pt x="451" y="678" on="1"/>
        <pt x="318" y="678" on="1"/>
        <pt x="272" y="861" on="1"/>
      </contour>
    </TTGlyph>
    <TTGlyph name="one" xMin="1" yMin="0" xMax="363" yMax="720">
      <contour>
        <pt x="1" y="461" on="1"/>
        <pt x="218" y="720" on="1"/>
        <pt x="363" y="720" on="1"/>
        <pt x="363" y="0" on="1"/>
        <pt x="232" y="0" on="1"/>
        <pt x="232" y="529" on="1"/>
        <pt x="174" y="461" on="1"/>
      </contour>
    </TTGlyph>
    <TTGlyph name="otilde" xMin="51" yMin="0" xMax="640" yMax="835">
      <contour>
        <pt x="189" y="580" on="1"/>
        <pt x="502" y="580" on="1"/>
        <pt x="559" y="580" on="0"/>
        <pt x="640" y="499" on="0"/>
        <pt x="640" y="442" on="1"/>
        <pt x="640" y="138" on="1"/>
        <pt x="640" y="81" on="0"/>
        <pt x="559" y="0" on="0"/>
        <pt x="502" y="0" on="1"/>
        <pt x="189" y="0" on="1"/>
        <pt x="132" y="0" on="0"/>
        <pt x="51" y="81" on="0"/>
        <pt x="51" y="138" on="1"/>
        <pt x="51" y="442" on="1"/>
        <pt x="51" y="499" on="0"/>
        <pt x="132" y="580" on="0"/>
      </contour>
      <contour>
        <pt x="502" y="449" on="1"/>
        <pt x="189" y="449" on="1"/>
        <pt x="182" y="449" on="0"/>
        <pt x="182" y="442" on="1"/>
        <pt x="182" y="138" on="1"/>
        <pt x="182" y="131" on="0"/>
        <pt x="189" y="131" on="1"/>
        <pt x="502" y="131" on="1"/>
        <pt x="509" y="131" on="0"/>
        <pt x="509" y="138" on="1"/>
        <pt x="509" y="442" on="1"/>
        <pt x="509" y="449" on="0"/>
      </contour>
      <contour>
        <pt x="447" y="770" on="1"/>
        <pt x="494" y="770" on="0"/>
        <pt x="534" y="797" on="1"/>
        <pt x="534" y="701" on="1"/>
        <pt x="482" y="679" on="0"/>
        <pt x="445" y="679" on="1"/>
        <pt x="409" y="679" on="0"/>
        <pt x="289" y="744" on="0"/>
        <pt x="255" y="744" on="1"/>
        <pt x="243" y="744" on="1"/>
        <pt x="199" y="744" on="0"/>
        <pt x="170" y="706" on="1"/>
        <pt x="170" y="817" on="1"/>
        <pt x="215" y="835" on="0"/>
        <pt x="255" y="835" on="1"/>
        <pt x="294" y="835" on="0"/>
        <pt x="415" y="774" on="0"/>
      </contour>
    </TTGlyph>
    <TTGlyph name="p" xMin="54" yMin="-230" xMax="643" yMax="580">
      <contour>
        <pt x="505" y="580" on="1"/>
        <pt x="562" y="580" on="0"/>
        <pt x="643" y="499" on="0"/>
        <pt x="643" y="442" on="1"/>
        <pt x="643" y="138" on="1"/>
        <pt x="643" y="81" on="0"/>
        <pt x="562" y="0" on="0"/>
        <pt x="505" y="0" on="1"/>
        <pt x="185" y="0" on="1"/>
        <pt x="185" y="-230" on="1"/>
        <pt x="54" y="-230" on="1"/>
        <pt x="54" y="580" on="1"/>
      </contour>
      <contour>
        <pt x="512" y="138" on="1"/>
        <pt x="512" y="442" on="1"/>
        <pt x="512" y="449" on="0"/>
        <pt x="505" y="449" on="1"/>
        <pt x="192" y="449" on="1"/>
        <pt x="185" y="449" on="0"/>
        <pt x="185" y="442" on="1"/>
        <pt x="185" y="138" on="1"/>
        <pt x="185" y="131" on="0"/>
        <pt x="192" y="131" on="1"/>
        <pt x="505" y="131" on="1"/>
        <pt x="512" y="131" on="0"/>
      </contour>
    </TTGlyph>
    <TTGlyph name="p.sc" xMin="54" yMin="0" xMax="643" yMax="580">
      <contour>
        <pt x="54" y="580" on="1"/>
        <pt x="505" y="580" on="1"/>
        <pt x="562" y="580" on="0"/>
        <pt x="643" y="498" on="0"/>
        <pt x="643" y="442" on="1"/>
        <pt x="643" y="325" on="1"/>
        <pt x="643" y="269" on="0"/>
        <pt x="562" y="187" on="0"/>
        <pt x="505" y="187" on="1"/>
        <pt x="188" y="186" on="1"/>
        <pt x="185" y="187" on="1"/>
        <pt x="185" y="0" on="1"/>
        <pt x="54" y="0" on="1"/>
      </contour>
      <contour>
        <pt x="512" y="325" on="1"/>
        <pt x="512" y="442" on="1"/>
        <pt x="512" y="449" on="0"/>
        <pt x="505" y="449" on="1"/>
        <pt x="192" y="449" on="1"/>
        <pt x="185" y="449" on="0"/>
        <pt x="185" y="442" on="1"/>
        <pt x="185" y="325" on="1"/>
        <pt x="185" y="319" on="0"/>
        <pt x="192" y="319" on="1"/>
        <pt x="505" y="319" on="1"/>
        <pt x="512" y="319" on="0"/>
      </contour>
    </TTGlyph>
    <TTGlyph name="paragraph" xMin="56" yMin="0" xMax="769" yMax="712">
      <contour>
        <pt x="56" y="574" on="1"/>
        <pt x="56" y="630" on="0"/>
        <pt x="137" y="712" on="0"/>
        <pt x="194" y="712" on="1"/>
        <pt x="769" y="712" on="1"/>
        <pt x="769" y="0" on="1"/>
        <pt x="638" y="0" on="1"/>
        <pt x="638" y="244" on="1"/>
        <pt x="561" y="244" on="1"/>
        <pt x="561" y="0" on="1"/>
        <pt x="429" y="0" on="1"/>
        <pt x="429" y="244" on="1"/>
        <pt x="194" y="244" on="1"/>
        <pt x="137" y="244" on="0"/>
        <pt x="56" y="326" on="0"/>
        <pt x="56" y="382" on="1"/>
      </contour>
      <contour>
        <pt x="561" y="581" on="1"/>
        <pt x="561" y="376" on="1"/>
        <pt x="638" y="376" on="1"/>
        <pt x="638" y="581" on="1"/>
      </contour>
      <contour>
        <pt x="187" y="574" on="1"/>
        <pt x="187" y="382" on="1"/>
        <pt x="187" y="376" on="0"/>
        <pt x="194" y="376" on="1"/>
        <pt x="429" y="376" on="1"/>
        <pt x="429" y="581" on="1"/>
        <pt x="194" y="581" on="1"/>
        <pt x="187" y="581" on="0"/>
      </contour>
    </TTGlyph>
    <TTGlyph name="parenleft" xMin="52" yMin="0" xMax="244" yMax="720">
      <contour>
        <pt x="189" y="131" on="1"/>
        <pt x="244" y="131" on="1"/>
        <pt x="244" y="0" on="1"/>
        <pt x="189" y="0" on="1"/>
        <pt x="132" y="0" on="0"/>
        <pt x="52" y="81" on="0"/>
        <pt x="52" y="138" on="1"/>
        <pt x="52" y="582" on="1"/>
        <pt x="52" y="639" on="0"/>
        <pt x="132" y="720" on="0"/>
        <pt x="189" y="720" on="1"/>
        <pt x="244" y="720" on="1"/>
        <pt x="244" y="589" on="1"/>
        <pt x="189" y="589" on="1"/>
        <pt x="183" y="589" on="0"/>
        <pt x="183" y="582" on="1"/>
        <pt x="183" y="138" on="1"/>
        <pt x="183" y="131" on="0"/>
      </contour>
    </TTGlyph>
    <TTGlyph name="parenright" xMin="56" yMin="0" xMax="249" yMax="720">
      <contour>
        <pt x="56" y="0" on="1"/>
        <pt x="56" y="131" on="1"/>
        <pt x="111" y="131" on="1"/>
        <pt x="117" y="131" on="0"/>
        <pt x="117" y="138" on="1"/>
        <pt x="117" y="582" on="1"/>
        <pt x="117" y="589" on="0"/>
        <pt x="111" y="589" on="1"/>
        <pt x="56" y="589" on="1"/>
        <pt x="56" y="720" on="1"/>
        <pt x="111" y="720" on="1"/>
        <pt x="167" y="720" on="0"/>
        <pt x="249" y="639" on="0"/>
        <pt x="249" y="582" on="1"/>
        <pt x="249" y="138" on="1"/>
        <pt x="249" y="81" on="0"/>
        <pt x="167" y="0" on="0"/>
        <pt x="111" y="0" on="1"/>
      </contour>
    </TTGlyph>
    <TTGlyph name="percent" xMin="48" yMin="-1" xMax="902" yMax="720">
      <contour>
        <pt x="808" y="720" on="1"/>
        <pt x="841" y="720" on="1"/>
        <pt x="841" y="577" on="1"/>
        <pt x="161" y="0" on="1"/>
        <pt x="128" y="0" on="1"/>
        <pt x="128" y="143" on="1"/>
      </contour>
      <contour>
        <pt x="186" y="713" on="1"/>
        <pt x="272" y="713" on="1"/>
        <pt x="329" y="713" on="0"/>
        <pt x="410" y="632" on="0"/>
        <pt x="410" y="575" on="1"/>
        <pt x="410" y="499" on="1"/>
        <pt x="410" y="442" on="0"/>
        <pt x="329" y="361" on="0"/>
        <pt x="272" y="361" on="1"/>
        <pt x="186" y="361" on="1"/>
        <pt x="129" y="361" on="0"/>
        <pt x="48" y="442" on="0"/>
        <pt x="48" y="499" on="1"/>
        <pt x="48" y="575" on="1"/>
        <pt x="48" y="632" on="0"/>
        <pt x="129" y="713" on="0"/>
      </contour>
      <contour>
        <pt x="167" y="474" on="1"/>
        <pt x="291" y="474" on="1"/>
        <pt x="297" y="474" on="0"/>
        <pt x="297" y="480" on="1"/>
        <pt x="297" y="594" on="1"/>
        <pt x="297" y="601" on="0"/>
        <pt x="291" y="601" on="1"/>
        <pt x="167" y="601" on="1"/>
        <pt x="160" y="601" on="0"/>
        <pt x="160" y="594" on="1"/>
        <pt x="160" y="480" on="1"/>
        <pt x="160" y="474" on="0"/>
      </contour>
      <contour>
        <pt x="679" y="351" on="1"/>
        <pt x="764" y="351" on="1"/>
        <pt x="821" y="351" on="0"/>
        <pt x="902" y="270" on="0"/>
        <pt x="902" y="213" on="1"/>
        <pt x="902" y="137" on="1"/>
        <pt x="902" y="80" on="0"/>
        <pt x="821" y="-1" on="0"/>
        <pt x="764" y="-1" on="1"/>
        <pt x="679" y="-1" on="1"/>
        <pt x="622" y="-1" on="0"/>
        <pt x="541" y="80" on="0"/>
        <pt x="541" y="137" on="1"/>
        <pt x="541" y="213" on="1"/>
        <pt x="541" y="270" on="0"/>
        <pt x="622" y="351" on="0"/>
      </contour>
      <contour>
        <pt x="660" y="111" on="1"/>
        <pt x="783" y="111" on="1"/>
        <pt x="790" y="111" on="0"/>
        <pt x="790" y="118" on="1"/>
        <pt x="790" y="232" on="1"/>
        <pt x="790" y="239" on="0"/>
        <pt x="783" y="239" on="1"/>
        <pt x="660" y="239" on="1"/>
        <pt x="653" y="239" on="0"/>
        <pt x="653" y="232" on="1"/>
        <pt x="653" y="118" on="1"/>
        <pt x="653" y="111" on="0"/>
      </contour>
    </TTGlyph>
    <TTGlyph name="period" xMin="54" yMin="0" xMax="185" yMax="131">
      <contour>
        <pt x="185" y="131" on="1"/>
        <pt x="185" y="0" on="1"/>
        <pt x="54" y="0" on="1"/>
        <pt x="54" y="131" on="1"/>
      </contour>
    </TTGlyph>
    <TTGlyph name="plus" xMin="17" yMin="90" xMax="426" yMax="499">
      <contour>
        <pt x="154" y="499" on="1"/>
        <pt x="285" y="499" on="1"/>
        <pt x="285" y="361" on="1"/>
        <pt x="426" y="361" on="1"/>
        <pt x="426" y="230" on="1"/>
        <pt x="285" y="230" on="1"/>
        <pt x="285" y="90" on="1"/>
        <pt x="154" y="90" on="1"/>
        <pt x="154" y="230" on="1"/>
        <pt x="17" y="230" on="1"/>
        <pt x="17" y="361" on="1"/>
        <pt x="154" y="361" on="1"/>
      </contour>
    </TTGlyph>
    <TTGlyph name="q" xMin="20" yMin="-230" xMax="610" yMax="580">
      <contour>
        <pt x="20" y="442" on="1"/>
        <pt x="20" y="499" on="0"/>
        <pt x="101" y="580" on="0"/>
        <pt x="158" y="580" on="1"/>
        <pt x="610" y="580" on="1"/>
        <pt x="610" y="-230" on="1"/>
        <pt x="479" y="-230" on="1"/>
        <pt x="479" y="0" on="1"/>
        <pt x="158" y="0" on="1"/>
        <pt x="101" y="0" on="0"/>
        <pt x="20" y="81" on="0"/>
        <pt x="20" y="138" on="1"/>
      </contour>
      <contour>
        <pt x="152" y="442" on="1"/>
        <pt x="152" y="138" on="1"/>
        <pt x="152" y="131" on="0"/>
        <pt x="158" y="131" on="1"/>
        <pt x="472" y="131" on="1"/>
        <pt x="479" y="131" on="0"/>
        <pt x="479" y="138" on="1"/>
        <pt x="479" y="442" on="1"/>
        <pt x="479" y="449" on="0"/>
        <pt x="472" y="449" on="1"/>
        <pt x="158" y="449" on="1"/>
        <pt x="152" y="449" on="0"/>
      </contour>
    </TTGlyph>
    <TTGlyph name="q.sc" xMin="52" yMin="0" xMax="727" yMax="580">
      <contour>
        <pt x="641" y="131" on="1"/>
        <pt x="727" y="131" on="1"/>
        <pt x="727" y="0" on="1"/>
        <pt x="190" y="0" on="1"/>
        <pt x="133" y="0" on="0"/>
        <pt x="52" y="81" on="0"/>
        <pt x="52" y="138" on="1"/>
        <pt x="52" y="442" on="1"/>
        <pt x="52" y="499" on="0"/>
        <pt x="133" y="580" on="0"/>
        <pt x="190" y="580" on="1"/>
        <pt x="503" y="580" on="1"/>
        <pt x="561" y="580" on="0"/>
        <pt x="641" y="499" on="0"/>
        <pt x="641" y="442" on="1"/>
      </contour>
      <contour>
        <pt x="190" y="131" on="1"/>
        <pt x="503" y="131" on="1"/>
        <pt x="510" y="131" on="0"/>
        <pt x="510" y="138" on="1"/>
        <pt x="510" y="442" on="1"/>
        <pt x="510" y="449" on="0"/>
        <pt x="503" y="449" on="1"/>
        <pt x="190" y="449" on="1"/>
        <pt x="183" y="449" on="0"/>
        <pt x="183" y="442" on="1"/>
        <pt x="183" y="138" on="1"/>
        <pt x="183" y="131" on="0"/>
      </contour>
    </TTGlyph>
    <TTGlyph name="question" xMin="31" yMin="0" xMax="655" yMax="720">
      <contour>
        <pt x="31" y="720" on="1"/>
        <pt x="517" y="720" on="1"/>
        <pt x="575" y="720" on="0"/>
        <pt x="655" y="639" on="0"/>
        <pt x="655" y="582" on="1"/>
        <pt x="655" y="407" on="1"/>
        <pt x="655" y="350" on="0"/>
        <pt x="575" y="269" on="0"/>
        <pt x="517" y="269" on="1"/>
        <pt x="271" y="269" on="1"/>
        <pt x="265" y="269" on="0"/>
        <pt x="265" y="263" on="1"/>
        <pt x="265" y="196" on="1"/>
        <pt x="133" y="196" on="1"/>
        <pt x="133" y="263" on="1"/>
        <pt x="133" y="320" on="0"/>
        <pt x="214" y="401" on="0"/>
        <pt x="271" y="401" on="1"/>
        <pt x="517" y="401" on="1"/>
        <pt x="524" y="401" on="0"/>
        <pt x="524" y="407" on="1"/>
        <pt x="524" y="582" on="1"/>
        <pt x="524" y="589" on="0"/>
        <pt x="517" y="589" on="1"/>
        <pt x="31" y="589" on="1"/>
      </contour>
      <contour>
        <pt x="265" y="0" on="1"/>
        <pt x="133" y="0" on="1"/>
        <pt x="133" y="131" on="1"/>
        <pt x="265" y="131" on="1"/>
      </contour>
    </TTGlyph>
    <TTGlyph name="question.alt" xMin="27" yMin="0" xMax="643" yMax="720">
      <contour>
        <pt x="163" y="720" on="1"/>
        <pt x="505" y="720" on="1"/>
        <pt x="562" y="720" on="0"/>
        <pt x="643" y="639" on="0"/>
        <pt x="643" y="582" on="1"/>
        <pt x="643" y="407" on="1"/>
        <pt x="643" y="350" on="0"/>
        <pt x="562" y="269" on="0"/>
        <pt x="505" y="269" on="1"/>
        <pt x="324" y="269" on="1"/>
        <pt x="318" y="269" on="0"/>
        <pt x="318" y="263" on="1"/>
        <pt x="318" y="161" on="1"/>
        <pt x="186" y="161" on="1"/>
        <pt x="186" y="263" on="1"/>
        <pt x="186" y="320" on="0"/>
        <pt x="267" y="401" on="0"/>
        <pt x="324" y="401" on="1"/>
        <pt x="505" y="401" on="1"/>
        <pt x="512" y="401" on="0"/>
        <pt x="512" y="407" on="1"/>
        <pt x="512" y="582" on="1"/>
        <pt x="512" y="589" on="0"/>
        <pt x="505" y="589" on="1"/>
        <pt x="158" y="589" on="1"/>
        <pt x="158" y="486" on="1"/>
        <pt x="27" y="486" on="1"/>
        <pt x="27" y="605" on="1"/>
        <pt x="35" y="654" on="0"/>
        <pt x="112" y="720" on="0"/>
      </contour>
      <contour>
        <pt x="318" y="0" on="1"/>
        <pt x="186" y="0" on="1"/>
        <pt x="186" y="131" on="1"/>
        <pt x="318" y="131" on="1"/>
      </contour>
    </TTGlyph>
    <TTGlyph name="questiondown" xMin="19" yMin="0" xMax="644" yMax="720">
      <contour>
        <pt x="644" y="0" on="1"/>
        <pt x="157" y="0" on="1"/>
        <pt x="100" y="0" on="0"/>
        <pt x="19" y="81" on="0"/>
        <pt x="19" y="138" on="1"/>
        <pt x="19" y="313" on="1"/>
        <pt x="19" y="370" on="0"/>
        <pt x="100" y="451" on="0"/>
        <pt x="157" y="451" on="1"/>
        <pt x="403" y="451" on="1"/>
        <pt x="410" y="451" on="0"/>
        <pt x="410" y="457" on="1"/>
        <pt x="410" y="530" on="1"/>
        <pt x="541" y="530" on="1"/>
        <pt x="541" y="457" on="1"/>
        <pt x="541" y="400" on="0"/>
        <pt x="460" y="319" on="0"/>
        <pt x="403" y="319" on="1"/>
        <pt x="157" y="319" on="1"/>
        <pt x="150" y="319" on="0"/>
        <pt x="150" y="313" on="1"/>
        <pt x="150" y="138" on="1"/>
        <pt x="150" y="131" on="0"/>
        <pt x="157" y="131" on="1"/>
        <pt x="644" y="131" on="1"/>
      </contour>
      <contour>
        <pt x="541" y="720" on="1"/>
        <pt x="541" y="589" on="1"/>
        <pt x="410" y="589" on="1"/>
        <pt x="410" y="720" on="1"/>
      </contour>
    </TTGlyph>
    <TTGlyph name="quotedbl" xMin="59" yMin="537" xMax="350" yMax="719">
      <contour>
        <pt x="191" y="719" on="1"/>
        <pt x="191" y="537" on="1"/>
        <pt x="59" y="537" on="1"/>
        <pt x="59" y="719" on="1"/>
      </contour>
      <contour>
        <pt x="350" y="719" on="1"/>
        <pt x="350" y="537" on="1"/>
        <pt x="219" y="537" on="1"/>
        <pt x="219" y="719" on="1"/>
      </contour>
    </TTGlyph>
    <TTGlyph name="quotedblleft" xMin="45" yMin="467" xMax="349" yMax="723">
      <contour>
        <pt x="176" y="467" on="1"/>
        <pt x="45" y="467" on="1"/>
        <pt x="45" y="584" on="1"/>
        <pt x="45" y="636" on="0"/>
        <pt x="120" y="714" on="0"/>
        <pt x="176" y="723" on="1"/>
      </contour>
      <contour>
        <pt x="349" y="467" on="1"/>
        <pt x="218" y="467" on="1"/>
        <pt x="218" y="584" on="1"/>
        <pt x="218" y="636" on="0"/>
        <pt x="293" y="714" on="0"/>
        <pt x="349" y="723" on="1"/>
      </contour>
    </TTGlyph>
    <TTGlyph name="quotedblright" xMin="54" yMin="464" xMax="358" yMax="720">
      <contour>
        <pt x="226" y="720" on="1"/>
        <pt x="358" y="720" on="1"/>
        <pt x="358" y="603" on="1"/>
        <pt x="358" y="552" on="0"/>
        <pt x="283" y="474" on="0"/>
        <pt x="226" y="464" on="1"/>
      </contour>
      <contour>
        <pt x="54" y="720" on="1"/>
        <pt x="185" y="720" on="1"/>
        <pt x="185" y="603" on="1"/>
        <pt x="185" y="552" on="0"/>
        <pt x="110" y="474" on="0"/>
        <pt x="54" y="464" on="1"/>
      </contour>
    </TTGlyph>
    <TTGlyph name="quoteleft" xMin="34" yMin="467" xMax="165" yMax="723">
      <contour>
        <pt x="165" y="467" on="1"/>
        <pt x="34" y="467" on="1"/>
        <pt x="34" y="584" on="1"/>
        <pt x="34" y="636" on="0"/>
        <pt x="109" y="714" on="0"/>
        <pt x="165" y="723" on="1"/>
      </contour>
    </TTGlyph>
    <TTGlyph name="quoteright" xMin="54" yMin="464" xMax="185" yMax="720">
      <contour>
        <pt x="54" y="720" on="1"/>
        <pt x="185" y="720" on="1"/>
        <pt x="185" y="603" on="1"/>
        <pt x="185" y="552" on="0"/>
        <pt x="110" y="474" on="0"/>
        <pt x="54" y="464" on="1"/>
      </contour>
    </TTGlyph>
    <TTGlyph name="quotesingle" xMin="59" yMin="537" xMax="190" yMax="719">
      <contour>
        <pt x="190" y="719" on="1"/>
        <pt x="190" y="537" on="1"/>
        <pt x="59" y="537" on="1"/>
        <pt x="59" y="719" on="1"/>
      </contour>
    </TTGlyph>
    <TTGlyph name="r" xMin="52" yMin="0" xMax="512" yMax="580">
      <contour>
        <pt x="190" y="580" on="1"/>
        <pt x="512" y="580" on="1"/>
        <pt x="512" y="449" on="1"/>
        <pt x="190" y="449" on="1"/>
        <pt x="183" y="449" on="0"/>
        <pt x="183" y="442" on="1"/>
        <pt x="183" y="0" on="1"/>
        <pt x="52" y="0" on="1"/>
        <pt x="52" y="442" on="1"/>
        <pt x="52" y="499" on="0"/>
        <pt x="133" y="580" on="0"/>
      </contour>
    </TTGlyph>
    <TTGlyph name="r.sc" xMin="54" yMin="0" xMax="653" yMax="580">
      <contour>
        <pt x="643" y="442" on="1"/>
        <pt x="643" y="325" on="1"/>
        <pt x="643" y="269" on="0"/>
        <pt x="562" y="187" on="0"/>
        <pt x="505" y="187" on="1"/>
        <pt x="482" y="187" on="1"/>
        <pt x="653" y="35" on="1"/>
        <pt x="653" y="0" on="1"/>
        <pt x="511" y="0" on="1"/>
        <pt x="306" y="187" on="1"/>
        <pt x="185" y="187" on="1"/>
        <pt x="185" y="0" on="1"/>
        <pt x="54" y="0" on="1"/>
        <pt x="54" y="580" on="1"/>
        <pt x="505" y="580" on="1"/>
        <pt x="562" y="580" on="0"/>
        <pt x="643" y="498" on="0"/>
      </contour>
      <contour>
        <pt x="192" y="319" on="1"/>
        <pt x="505" y="319" on="1"/>
        <pt x="512" y="319" on="0"/>
        <pt x="512" y="325" on="1"/>
        <pt x="512" y="442" on="1"/>
        <pt x="512" y="449" on="0"/>
        <pt x="505" y="449" on="1"/>
        <pt x="192" y="449" on="1"/>
        <pt x="185" y="449" on="0"/>
        <pt x="185" y="442" on="1"/>
        <pt x="185" y="325" on="1"/>
        <pt x="185" y="319" on="0"/>
      </contour>
    </TTGlyph>
    <TTGlyph name="ring" xMin="22" yMin="787" xMax="206" yMax="968">
      <contour>
        <pt x="87" y="968" on="1"/>
        <pt x="141" y="968" on="1"/>
        <pt x="168" y="968" on="0"/>
        <pt x="206" y="929" on="0"/>
        <pt x="206" y="903" on="1"/>
        <pt x="206" y="852" on="1"/>
        <pt x="206" y="826" on="0"/>
        <pt x="168" y="787" on="0"/>
        <pt x="141" y="787" on="1"/>
        <pt x="87" y="787" on="1"/>
        <pt x="60" y="787" on="0"/>
        <pt x="22" y="826" on="0"/>
        <pt x="22" y="852" on="1"/>
        <pt x="22" y="903" on="1"/>
        <pt x="22" y="929" on="0"/>
        <pt x="60" y="968" on="0"/>
      </contour>
      <contour>
        <pt x="88" y="901" on="1"/>
        <pt x="88" y="854" on="1"/>
        <pt x="140" y="854" on="1"/>
        <pt x="140" y="901" on="1"/>
      </contour>
    </TTGlyph>
    <TTGlyph name="s" xMin="48" yMin="0" xMax="637" yMax="580">
      <contour>
        <pt x="637" y="442" on="1"/>
        <pt x="637" y="417" on="1"/>
        <pt x="506" y="417" on="1"/>
        <pt x="506" y="442" on="1"/>
        <pt x="506" y="449" on="0"/>
        <pt x="499" y="449" on="1"/>
        <pt x="186" y="449" on="1"/>
        <pt x="179" y="449" on="0"/>
        <pt x="179" y="442" on="1"/>
        <pt x="179" y="362" on="1"/>
        <pt x="179" y="356" on="0"/>
        <pt x="186" y="356" on="1"/>
        <pt x="499" y="356" on="1"/>
        <pt x="557" y="356" on="0"/>
        <pt x="637" y="275" on="0"/>
        <pt x="637" y="218" on="1"/>
        <pt x="637" y="138" on="1"/>
        <pt x="637" y="81" on="0"/>
        <pt x="557" y="0" on="0"/>
        <pt x="499" y="0" on="1"/>
        <pt x="186" y="0" on="1"/>
        <pt x="129" y="0" on="0"/>
        <pt x="48" y="81" on="0"/>
        <pt x="48" y="138" on="1"/>
        <pt x="48" y="163" on="1"/>
        <pt x="179" y="163" on="1"/>
        <pt x="179" y="138" on="1"/>
        <pt x="179" y="131" on="0"/>
        <pt x="186" y="131" on="1"/>
        <pt x="499" y="131" on="1"/>
        <pt x="506" y="131" on="0"/>
        <pt x="506" y="138" on="1"/>
        <pt x="506" y="218" on="1"/>
        <pt x="506" y="224" on="0"/>
        <pt x="499" y="224" on="1"/>
        <pt x="186" y="224" on="1"/>
        <pt x="129" y="224" on="0"/>
        <pt x="48" y="305" on="0"/>
        <pt x="48" y="362" on="1"/>
        <pt x="48" y="442" on="1"/>
        <pt x="48" y="499" on="0"/>
        <pt x="129" y="580" on="0"/>
        <pt x="186" y="580" on="1"/>
        <pt x="499" y="580" on="1"/>
        <pt x="557" y="580" on="0"/>
        <pt x="637" y="499" on="0"/>
      </contour>
    </TTGlyph>
    <TTGlyph name="s.sc" xMin="49" yMin="0" xMax="638" yMax="580">
      <contour>
        <pt x="638" y="442" on="1"/>
        <pt x="638" y="407" on="1"/>
        <pt x="507" y="407" on="1"/>
        <pt x="507" y="442" on="1"/>
        <pt x="507" y="449" on="0"/>
        <pt x="500" y="449" on="1"/>
        <pt x="187" y="449" on="1"/>
        <pt x="180" y="449" on="0"/>
        <pt x="180" y="442" on="1"/>
        <pt x="180" y="362" on="1"/>
        <pt x="180" y="356" on="0"/>
        <pt x="187" y="356" on="1"/>
        <pt x="500" y="356" on="1"/>
        <pt x="557" y="356" on="0"/>
        <pt x="638" y="275" on="0"/>
        <pt x="638" y="218" on="1"/>
        <pt x="638" y="138" on="1"/>
        <pt x="638" y="81" on="0"/>
        <pt x="557" y="0" on="0"/>
        <pt x="500" y="0" on="1"/>
        <pt x="187" y="0" on="1"/>
        <pt x="130" y="0" on="0"/>
        <pt x="49" y="81" on="0"/>
        <pt x="49" y="138" on="1"/>
        <pt x="49" y="173" on="1"/>
        <pt x="180" y="173" on="1"/>
        <pt x="180" y="138" on="1"/>
        <pt x="180" y="131" on="0"/>
        <pt x="187" y="131" on="1"/>
        <pt x="500" y="131" on="1"/>
        <pt x="507" y="131" on="0"/>
        <pt x="507" y="138" on="1"/>
        <pt x="507" y="218" on="1"/>
        <pt x="507" y="224" on="0"/>
        <pt x="500" y="224" on="1"/>
        <pt x="187" y="224" on="1"/>
        <pt x="130" y="224" on="0"/>
        <pt x="49" y="305" on="0"/>
        <pt x="49" y="362" on="1"/>
        <pt x="49" y="442" on="1"/>
        <pt x="49" y="499" on="0"/>
        <pt x="130" y="580" on="0"/>
        <pt x="187" y="580" on="1"/>
        <pt x="500" y="580" on="1"/>
        <pt x="557" y="580" on="0"/>
        <pt x="638" y="499" on="0"/>
      </contour>
    </TTGlyph>
    <TTGlyph name="scaron" xMin="48" yMin="0" xMax="637" yMax="840">
      <contour>
        <pt x="637" y="442" on="1"/>
        <pt x="637" y="417" on="1"/>
        <pt x="506" y="417" on="1"/>
        <pt x="506" y="442" on="1"/>
        <pt x="506" y="449" on="0"/>
        <pt x="499" y="449" on="1"/>
        <pt x="186" y="449" on="1"/>
        <pt x="179" y="449" on="0"/>
        <pt x="179" y="442" on="1"/>
        <pt x="179" y="362" on="1"/>
        <pt x="179" y="356" on="0"/>
        <pt x="186" y="356" on="1"/>
        <pt x="499" y="356" on="1"/>
        <pt x="557" y="356" on="0"/>
        <pt x="637" y="275" on="0"/>
        <pt x="637" y="218" on="1"/>
        <pt x="637" y="138" on="1"/>
        <pt x="637" y="81" on="0"/>
        <pt x="557" y="0" on="0"/>
        <pt x="499" y="0" on="1"/>
        <pt x="186" y="0" on="1"/>
        <pt x="129" y="0" on="0"/>
        <pt x="48" y="81" on="0"/>
        <pt x="48" y="138" on="1"/>
        <pt x="48" y="163" on="1"/>
        <pt x="179" y="163" on="1"/>
        <pt x="179" y="138" on="1"/>
        <pt x="179" y="131" on="0"/>
        <pt x="186" y="131" on="1"/>
        <pt x="499" y="131" on="1"/>
        <pt x="506" y="131" on="0"/>
        <pt x="506" y="138" on="1"/>
        <pt x="506" y="218" on="1"/>
        <pt x="506" y="224" on="0"/>
        <pt x="499" y="224" on="1"/>
        <pt x="186" y="224" on="1"/>
        <pt x="129" y="224" on="0"/>
        <pt x="48" y="305" on="0"/>
        <pt x="48" y="362" on="1"/>
        <pt x="48" y="442" on="1"/>
        <pt x="48" y="499" on="0"/>
        <pt x="129" y="580" on="0"/>
        <pt x="186" y="580" on="1"/>
        <pt x="499" y="580" on="1"/>
        <pt x="557" y="580" on="0"/>
        <pt x="637" y="499" on="0"/>
      </contour>
      <contour>
        <pt x="221" y="840" on="1"/>
        <pt x="324" y="840" on="1"/>
        <pt x="361" y="781" on="1"/>
        <pt x="398" y="840" on="1"/>
        <pt x="504" y="840" on="1"/>
        <pt x="406" y="677" on="1"/>
        <pt x="319" y="677" on="1"/>
      </contour>
    </TTGlyph>
    <TTGlyph name="semicolon" xMin="51" yMin="-137" xMax="182" yMax="588">
      <contour>
        <pt x="182" y="588" on="1"/>
        <pt x="182" y="456" on="1"/>
        <pt x="51" y="456" on="1"/>
        <pt x="51" y="588" on="1"/>
      </contour>
      <contour>
        <pt x="51" y="119" on="1"/>
        <pt x="182" y="119" on="1"/>
        <pt x="182" y="2" on="1"/>
        <pt x="182" y="-49" on="0"/>
        <pt x="107" y="-127" on="0"/>
        <pt x="51" y="-137" on="1"/>
      </contour>
    </TTGlyph>
    <TTGlyph name="seven" xMin="3" yMin="0" xMax="602" yMax="720">
      <contour>
        <pt x="3" y="720" on="1"/>
        <pt x="464" y="720" on="1"/>
        <pt x="521" y="720" on="0"/>
        <pt x="602" y="639" on="0"/>
        <pt x="602" y="582" on="1"/>
        <pt x="602" y="0" on="1"/>
        <pt x="471" y="0" on="1"/>
        <pt x="471" y="582" on="1"/>
        <pt x="471" y="589" on="0"/>
        <pt x="464" y="589" on="1"/>
        <pt x="3" y="589" on="1"/>
      </contour>
    </TTGlyph>
    <TTGlyph name="seven.alt" xMin="46" yMin="0" xMax="760" yMax="720">
      <contour>
        <pt x="46" y="720" on="1"/>
        <pt x="760" y="720" on="1"/>
        <pt x="760" y="687" on="1"/>
        <pt x="189" y="0" on="1"/>
        <pt x="46" y="0" on="1"/>
        <pt x="46" y="33" on="1"/>
        <pt x="507" y="589" on="1"/>
        <pt x="46" y="589" on="1"/>
      </contour>
    </TTGlyph>
    <TTGlyph name="six" xMin="57" yMin="0" xMax="770" yMax="720">
      <contour>
        <pt x="195" y="435" on="1"/>
        <pt x="632" y="435" on="1"/>
        <pt x="689" y="435" on="0"/>
        <pt x="770" y="354" on="0"/>
        <pt x="770" y="297" on="1"/>
        <pt x="770" y="138" on="1"/>
        <pt x="770" y="81" on="0"/>
        <pt x="689" y="0" on="0"/>
        <pt x="632" y="0" on="1"/>
        <pt x="195" y="0" on="1"/>
        <pt x="138" y="0" on="0"/>
        <pt x="57" y="81" on="0"/>
        <pt x="57" y="138" on="1"/>
        <pt x="57" y="582" on="1"/>
        <pt x="57" y="639" on="0"/>
        <pt x="138" y="720" on="0"/>
        <pt x="195" y="720" on="1"/>
        <pt x="656" y="720" on="1"/>
        <pt x="656" y="589" on="1"/>
        <pt x="195" y="589" on="1"/>
        <pt x="188" y="589" on="0"/>
        <pt x="188" y="582" on="1"/>
        <pt x="188" y="441" on="1"/>
        <pt x="188" y="435" on="0"/>
      </contour>
      <contour>
        <pt x="639" y="138" on="1"/>
        <pt x="639" y="297" on="1"/>
        <pt x="639" y="303" on="0"/>
        <pt x="632" y="303" on="1"/>
        <pt x="188" y="303" on="1"/>
        <pt x="188" y="138" on="1"/>
        <pt x="188" y="131" on="0"/>
        <pt x="195" y="131" on="1"/>
        <pt x="632" y="131" on="1"/>
        <pt x="639" y="131" on="0"/>
      </contour>
    </TTGlyph>
    <TTGlyph name="slash" xMin="6" yMin="0" xMax="519" yMax="720">
      <contour>
        <pt x="6" y="142" on="1"/>
        <pt x="484" y="720" on="1"/>
        <pt x="519" y="720" on="1"/>
        <pt x="519" y="579" on="1"/>
        <pt x="41" y="0" on="1"/>
        <pt x="6" y="0" on="1"/>
      </contour>
    </TTGlyph>
    <TTGlyph name="sterling" xMin="39" yMin="0" xMax="683" yMax="720">
      <contour>
        <pt x="683" y="539" on="1"/>
        <pt x="552" y="539" on="1"/>
        <pt x="552" y="582" on="1"/>
        <pt x="552" y="589" on="0"/>
        <pt x="546" y="589" on="1"/>
        <pt x="272" y="589" on="1"/>
        <pt x="265" y="589" on="0"/>
        <pt x="265" y="582" on="1"/>
        <pt x="265" y="422" on="1"/>
        <pt x="583" y="422" on="1"/>
        <pt x="583" y="291" on="1"/>
        <pt x="265" y="291" on="1"/>
        <pt x="265" y="131" on="1"/>
        <pt x="683" y="131" on="1"/>
        <pt x="683" y="0" on="1"/>
        <pt x="39" y="0" on="1"/>
        <pt x="39" y="131" on="1"/>
        <pt x="134" y="131" on="1"/>
        <pt x="134" y="291" on="1"/>
        <pt x="39" y="291" on="1"/>
        <pt x="39" y="422" on="1"/>
        <pt x="134" y="422" on="1"/>
        <pt x="134" y="582" on="1"/>
        <pt x="134" y="639" on="0"/>
        <pt x="215" y="720" on="0"/>
        <pt x="272" y="720" on="1"/>
        <pt x="546" y="720" on="1"/>
        <pt x="603" y="720" on="0"/>
        <pt x="683" y="639" on="0"/>
        <pt x="683" y="582" on="1"/>
      </contour>
    </TTGlyph>
    <TTGlyph name="t" xMin="53" yMin="0" xMax="410" yMax="770">
      <contour>
        <pt x="410" y="449" on="1"/>
        <pt x="184" y="449" on="1"/>
        <pt x="184" y="138" on="1"/>
        <pt x="184" y="131" on="0"/>
        <pt x="191" y="131" on="1"/>
        <pt x="410" y="131" on="1"/>
        <pt x="410" y="0" on="1"/>
        <pt x="191" y="0" on="1"/>
        <pt x="133" y="0" on="0"/>
        <pt x="53" y="81" on="0"/>
        <pt x="53" y="138" on="1"/>
        <pt x="53" y="770" on="1"/>
        <pt x="184" y="770" on="1"/>
        <pt x="184" y="580" on="1"/>
        <pt x="410" y="580" on="1"/>
      </contour>
    </TTGlyph>
    <TTGlyph name="t.sc" xMin="22" yMin="0" xMax="621" yMax="580">
      <contour>
        <pt x="22" y="580" on="1"/>
        <pt x="621" y="580" on="1"/>
        <pt x="621" y="449" on="1"/>
        <pt x="387" y="449" on="1"/>
        <pt x="387" y="0" on="1"/>
        <pt x="255" y="0" on="1"/>
        <pt x="255" y="449" on="1"/>
        <pt x="22" y="449" on="1"/>
      </contour>
    </TTGlyph>
    <TTGlyph name="three" xMin="53" yMin="0" xMax="766" yMax="720">
      <contour>
        <pt x="738" y="582" on="1"/>
        <pt x="738" y="438" on="1"/>
        <pt x="738" y="409" on="0"/>
        <pt x="728" y="388" on="1"/>
        <pt x="766" y="348" on="0"/>
        <pt x="766" y="294" on="1"/>
        <pt x="766" y="138" on="1"/>
        <pt x="766" y="81" on="0"/>
        <pt x="686" y="0" on="0"/>
        <pt x="629" y="0" on="1"/>
        <pt x="191" y="0" on="1"/>
        <pt x="134" y="0" on="0"/>
        <pt x="53" y="81" on="0"/>
        <pt x="53" y="138" on="1"/>
        <pt x="53" y="181" on="1"/>
        <pt x="184" y="181" on="1"/>
        <pt x="184" y="138" on="1"/>
        <pt x="184" y="131" on="0"/>
        <pt x="191" y="131" on="1"/>
        <pt x="629" y="131" on="1"/>
        <pt x="635" y="131" on="0"/>
        <pt x="635" y="138" on="1"/>
        <pt x="635" y="294" on="1"/>
        <pt x="635" y="301" on="0"/>
        <pt x="629" y="301" on="1"/>
        <pt x="177" y="301" on="1"/>
        <pt x="177" y="432" on="1"/>
        <pt x="600" y="432" on="1"/>
        <pt x="607" y="432" on="0"/>
        <pt x="607" y="438" on="1"/>
        <pt x="607" y="582" on="1"/>
        <pt x="607" y="589" on="0"/>
        <pt x="600" y="589" on="1"/>
        <pt x="191" y="589" on="1"/>
        <pt x="184" y="589" on="0"/>
        <pt x="184" y="582" on="1"/>
        <pt x="184" y="530" on="1"/>
        <pt x="53" y="530" on="1"/>
        <pt x="53" y="582" on="1"/>
        <pt x="53" y="639" on="0"/>
        <pt x="134" y="720" on="0"/>
        <pt x="191" y="720" on="1"/>
        <pt x="600" y="720" on="1"/>
        <pt x="657" y="720" on="0"/>
        <pt x="738" y="639" on="0"/>
      </contour>
    </TTGlyph>
    <TTGlyph name="tilde" xMin="23" yMin="790" xMax="387" yMax="946">
      <contour>
        <pt x="300" y="881" on="1"/>
        <pt x="346" y="881" on="0"/>
        <pt x="387" y="908" on="1"/>
        <pt x="387" y="812" on="1"/>
        <pt x="335" y="790" on="0"/>
        <pt x="298" y="790" on="1"/>
        <pt x="262" y="790" on="0"/>
        <pt x="142" y="855" on="0"/>
        <pt x="108" y="855" on="1"/>
        <pt x="96" y="855" on="1"/>
        <pt x="52" y="855" on="0"/>
        <pt x="23" y="817" on="1"/>
        <pt x="23" y="928" on="1"/>
        <pt x="68" y="946" on="0"/>
        <pt x="108" y="946" on="1"/>
        <pt x="146" y="946" on="0"/>
        <pt x="268" y="885" on="0"/>
      </contour>
    </TTGlyph>
    <TTGlyph name="two" xMin="57" yMin="0" xMax="770" yMax="720">
      <contour>
        <pt x="195" y="720" on="1"/>
        <pt x="632" y="720" on="1"/>
        <pt x="689" y="720" on="0"/>
        <pt x="770" y="639" on="0"/>
        <pt x="770" y="582" on="1"/>
        <pt x="770" y="422" on="1"/>
        <pt x="770" y="365" on="0"/>
        <pt x="689" y="284" on="0"/>
        <pt x="632" y="284" on="1"/>
        <pt x="195" y="284" on="1"/>
        <pt x="188" y="284" on="0"/>
        <pt x="188" y="278" on="1"/>
        <pt x="188" y="138" on="1"/>
        <pt x="188" y="131" on="0"/>
        <pt x="195" y="131" on="1"/>
        <pt x="770" y="131" on="1"/>
        <pt x="770" y="0" on="1"/>
        <pt x="57" y="0" on="1"/>
        <pt x="57" y="278" on="1"/>
        <pt x="57" y="335" on="0"/>
        <pt x="138" y="416" on="0"/>
        <pt x="195" y="416" on="1"/>
        <pt x="632" y="416" on="1"/>
        <pt x="639" y="416" on="0"/>
        <pt x="639" y="422" on="1"/>
        <pt x="639" y="582" on="1"/>
        <pt x="639" y="589" on="0"/>
        <pt x="632" y="589" on="1"/>
        <pt x="195" y="589" on="1"/>
        <pt x="188" y="589" on="0"/>
        <pt x="188" y="582" on="1"/>
        <pt x="188" y="528" on="1"/>
        <pt x="57" y="528" on="1"/>
        <pt x="57" y="582" on="1"/>
        <pt x="57" y="639" on="0"/>
        <pt x="138" y="720" on="0"/>
      </contour>
    </TTGlyph>
</ttFont>
